{
  "accessors": [
    {
      "bufferView": 2,
      "componentType": 5126,
      "count": 65532,
      "max": [
        4.643956184387207,
        5.164272785186768,
        16.618083953857422
      ],
      "min": [
        -4.7829132080078125,
        -7.191534996032715,
        0.10373000055551529
      ],
      "type": "VEC3"
    },
    {
      "bufferView": 2,
      "byteOffset": 786384,
      "componentType": 5126,
      "count": 65532,
      "max": [
        0.9999897480010986,
        0.9999724626541138,
        0.9999587535858154
      ],
      "min": [
        -0.9999929666519165,
        -0.9999935626983643,
        -0.9999924898147583
      ],
      "type": "VEC3"
    },
    {
      "bufferView": 1,
      "componentType": 5126,
      "count": 65532,
      "max": [
        0.999101996421814,
        0.9855960011482239
      ],
      "min": [
        0.0,
        0.0
      ],
      "type": "VEC2"
    },
    {
      "bufferView": 0,
      "componentType": 5125,
      "count": 321564,
      "type": "SCALAR"
    },
    {
      "bufferView": 2,
      "byteOffset": 1572768,
      "componentType": 5126,
      "count": 65532,
      "max": [
        3.132214069366455,
        5.009056091308594,
        14.946964263916016
      ],
      "min": [
        -4.683444976806641,
        -8.421149253845215,
        0.10399000346660614
      ],
      "type": "VEC3"
    },
    {
      "bufferView": 2,
      "byteOffset": 2359152,
      "componentType": 5126,
      "count": 65532,
      "max": [
        0.9999632835388184,
        0.9998960494995117,
        0.9999823570251465
      ],
      "min": [
        -0.999996542930603,
        -0.9999852180480957,
        -0.9999287128448486
      ],
      "type": "VEC3"
    },
    {
      "bufferView": 1,
      "byteOffset": 524256,
      "componentType": 5126,
      "count": 65532,
      "max": [
        0.9993450045585632,
        0.986083984375
      ],
      "min": [
        0.00024399999529123306,
        0.0007430000114254653
      ],
      "type": "VEC2"
    },
    {
      "bufferView": 0,
      "byteOffset": 1286256,
      "componentType": 5125,
      "count": 306147,
      "type": "SCALAR"
    },
    {
      "bufferView": 2,
      "byteOffset": 3145536,
      "componentType": 5126,
      "count": 65532,
      "max": [
        2.9798080921173096,
        3.6590399742126465,
        16.175365447998047
      ],
      "min": [
        -4.76709508895874,
        -7.0644659996032715,
        0.10373000055551529
      ],
      "type": "VEC3"
    },
    {
      "bufferView": 2,
      "byteOffset": 3931920,
      "componentType": 5126,
      "count": 65532,
      "max": [
        0.9999995231628418,
        0.9997097849845886,
        0.9999823570251465
      ],
      "min": [
        -0.9999972581863403,
        -0.9999444484710693,
        -0.9993396997451782
      ],
      "type": "VEC3"
    },
    {
      "bufferView": 1,
      "byteOffset": 1048512,
      "componentType": 5126,
      "count": 65532,
      "max": [
        0.9994770288467407,
        0.986083984375
      ],
      "min": [
        0.00024399999529123306,
        0.000750000006519258
      ],
      "type": "VEC2"
    },
    {
      "bufferView": 0,
      "byteOffset": 2510844,
      "componentType": 5125,
      "count": 287766,
      "type": "SCALAR"
    },
    {
      "bufferView": 2,
      "byteOffset": 4718304,
      "componentType": 5126,
      "count": 65532,
      "max": [
        4.5984578132629395,
        4.858662128448486,
        17.70334243774414
      ],
      "min": [
        -3.8460030555725098,
        -7.841900825500488,
        0.10373000055551529
      ],
      "type": "VEC3"
    },
    {
      "bufferView": 2,
      "byteOffset": 5504688,
      "componentType": 5126,
      "count": 65532,
      "max": [
        0.9999740123748779,
        0.9999755620956421,
        0.999995231628418
      ],
      "min": [
        -0.9999908208847046,
        -0.9999885559082031,
        -0.9999843835830688
      ],
      "type": "VEC3"
    },
    {
      "bufferView": 1,
      "byteOffset": 1572768,
      "componentType": 5126,
      "count": 65532,
      "max": [
        0.9994530081748962,
        0.986083984375
      ],
      "min": [
        0.0007319999858736992,
        0.0011820000363513827
      ],
      "type": "VEC2"
    },
    {
      "bufferView": 0,
      "byteOffset": 3661908,
      "componentType": 5125,
      "count": 317307,
      "type": "SCALAR"
    },
    {
      "bufferView": 2,
      "byteOffset": 6291072,
      "componentType": 5126,
      "count": 65533,
      "max": [
        4.583066940307617,
        5.138544082641602,
        17.622533798217773
      ],
      "min": [
        -4.719598770141602,
        -8.48093318939209,
        0.10373000055551529
      ],
      "type": "VEC3"
    },
    {
      "bufferView": 2,
      "byteOffset": 7077468,
      "componentType": 5126,
      "count": 65533,
      "max": [
        0.9999920129776001,
        0.9999547004699707,
        0.9999940395355225
      ],
      "min": [
        -0.999964714050293,
        -0.9999985694885254,
        -0.9999473094940186
      ],
      "type": "VEC3"
    },
    {
      "bufferView": 1,
      "byteOffset": 2097024,
      "componentType": 5126,
      "count": 65533,
      "max": [
        0.9995819926261902,
        0.986083984375
      ],
      "min": [
        0.00024399999529123306,
        0.0009980000322684646
      ],
      "type": "VEC2"
    },
    {
      "bufferView": 0,
      "byteOffset": 4931136,
      "componentType": 5125,
      "count": 274254,
      "type": "SCALAR"
    },
    {
      "bufferView": 2,
      "byteOffset": 7863864,
      "componentType": 5126,
      "count": 65532,
      "max": [
        3.526242971420288,
        4.409173011779785,
        17.447647094726563
      ],
      "min": [
        -4.322027206420898,
        -7.74582576751709,
        0.891057014465332
      ],
      "type": "VEC3"
    },
    {
      "bufferView": 2,
      "byteOffset": 8650248,
      "componentType": 5126,
      "count": 65532,
      "max": [
        0.9999899864196777,
        0.9999955892562866,
        0.9999793767929077
      ],
      "min": [
        -0.9999972581863403,
        -0.9999985694885254,
        -0.9999287128448486
      ],
      "type": "VEC3"
    },
    {
      "bufferView": 1,
      "byteOffset": 2621288,
      "componentType": 5126,
      "count": 65532,
      "max": [
        0.9977890253067017,
        0.986083984375
      ],
      "min": [
        0.00024399999529123306,
        0.0007919999770820141
      ],
      "type": "VEC2"
    },
    {
      "bufferView": 0,
      "byteOffset": 6028152,
      "componentType": 5125,
      "count": 258951,
      "type": "SCALAR"
    },
    {
      "bufferView": 2,
      "byteOffset": 9436632,
      "componentType": 5126,
      "count": 7926,
      "max": [
        1.0354360342025757,
        4.520153999328613,
        15.823806762695313
      ],
      "min": [
        -4.361710071563721,
        -7.314795017242432,
        1.1138520240783691
      ],
      "type": "VEC3"
    },
    {
      "bufferView": 2,
      "byteOffset": 9531744,
      "componentType": 5126,
      "count": 7926,
      "max": [
        0.9990902543067932,
        0.9979789853096008,
        0.99874347448349
      ],
      "min": [
        -0.9998518228530884,
        -0.974263072013855,
        -0.8137613534927368
      ],
      "type": "VEC3"
    },
    {
      "bufferView": 1,
      "byteOffset": 3145544,
      "componentType": 5126,
      "count": 7926,
      "max": [
        0.9969379901885986,
        0.986083984375
      ],
      "min": [
        0.00024399999529123306,
        0.001003999961540103
      ],
      "type": "VEC2"
    },
    {
      "bufferView": 0,
      "byteOffset": 7063956,
      "componentType": 5125,
      "count": 24219,
      "type": "SCALAR"
    },
    {
      "bufferView": 2,
      "byteOffset": 9626856,
      "componentType": 5126,
      "count": 1751,
      "max": [
        4.643956184387207,
        5.164272785186768,
        0.10373000055551529
      ],
      "min": [
        -4.7829132080078125,
        -4.529246807098389,
        0.10373000055551529
      ],
      "type": "VEC3"
    },
    {
      "bufferView": 2,
      "byteOffset": 9647868,
      "componentType": 5126,
      "count": 1751,
      "max": [
        0.02679932862520218,
        0.015499685890972614,
        -0.9987750053405762
      ],
      "min": [
        -0.0008999996352940798,
        -0.041598957031965256,
        -1.0
      ],
      "type": "VEC3"
    },
    {
      "bufferView": 1,
      "byteOffset": 3208952,
      "componentType": 5126,
      "count": 1751,
      "max": [
        0.8232579827308655,
        0.7244160175323486
      ],
      "min": [
        0.6857609748840332,
        0.5271340012550354
      ],
      "type": "VEC2"
    },
    {
      "bufferView": 0,
      "byteOffset": 7160832,
      "componentType": 5125,
      "count": 3462,
      "type": "SCALAR"
    }
  ],
  "asset": {
    "extras": {
      "author": "noe-3d.at (https://sketchfab.com/www.noe-3d.at)",
      "license": "CC-BY-NC-4.0 (http://creativecommons.org/licenses/by-nc/4.0/)",
      "source": "https://sketchfab.com/3d-models/der-denker-434542838ef140d4a706dc42e775eb12",
      "title": "Der Denker"
    },
    "generator": "Sketchfab-13.90.0",
    "version": "2.0"
  },
  "bufferViews": [
    {
      "buffer": 0,
      "byteLength": 7174680,
      "name": "floatBufferViews",
      "target": 34963
    },
    {
      "buffer": 0,
      "byteLength": 3222960,
      "byteOffset": 7174680,
      "byteStride": 8,
      "name": "floatBufferViews",
      "target": 34962
    },
    {
      "buffer": 0,
      "byteLength": 9668880,
      "byteOffset": 10397640,
      "byteStride": 12,
      "name": "floatBufferViews",
      "target": 34962
    }
  ],
  "buffers": [
    {
      "byteLength": 20066520,
      "uri": "scene.bin"
    }
  ],
  "images": [
    {
      "uri": "textures/Denker_O_Material_u1_v1_baseColor.png"
    }
  ],
  "materials": [
    {
      "doubleSided": true,
      "name": "Denker_O_Material_u1_v1",
      "pbrMetallicRoughness": {
        "baseColorTexture": {
          "index": 0
        },
        "metallicFactor": 0.38247735612146627,
        "roughnessFactor": 0.7881898306737697
      }
    },
    {
      "doubleSided": true,
      "name": "bottom",
      "pbrMetallicRoughness": {
        "baseColorFactor": [
          0.318539,
          0.318539,
          0.318539,
          1.0
        ],
        "metallicFactor": 0.0
      }
    }
  ],
  "meshes": [
    {
      "name": "Object_0",
      "primitives": [
        {
          "attributes": {
            "NORMAL": 1,
            "POSITION": 0,
            "TEXCOORD_0": 2
          },
          "indices": 3,
          "material": 0,
          "mode": 4
        }
      ]
    },
    {
      "name": "Object_1",
      "primitives": [
        {
          "attributes": {
            "NORMAL": 5,
            "POSITION": 4,
            "TEXCOORD_0": 6
          },
          "indices": 7,
          "material": 0,
          "mode": 4
        }
      ]
    },
    {
      "name": "Object_2",
      "primitives": [
        {
          "attributes": {
            "NORMAL": 9,
            "POSITION": 8,
            "TEXCOORD_0": 10
          },
          "indices": 11,
          "material": 0,
          "mode": 4
        }
      ]
    },
    {
      "name": "Object_3",
      "primitives": [
        {
          "attributes": {
            "NORMAL": 13,
            "POSITION": 12,
            "TEXCOORD_0": 14
          },
          "indices": 15,
          "material": 0,
          "mode": 4
        }
      ]
    },
    {
      "name": "Object_4",
      "primitives": [
        {
          "attributes": {
            "NORMAL": 17,
            "POSITION": 16,
            "TEXCOORD_0": 18
          },
          "indices": 19,
          "material": 0,
          "mode": 4
        }
      ]
    },
    {
      "name": "Object_5",
      "primitives": [
        {
          "attributes": {
            "NORMAL": 21,
            "POSITION": 20,
            "TEXCOORD_0": 22
          },
          "indices": 23,
          "material": 0,
          "mode": 4
        }
      ]
    },
    {
      "name": "Object_6",
      "primitives": [
        {
          "attributes": {
            "NORMAL": 25,
            "POSITION": 24,
            "TEXCOORD_0": 26
          },
          "indices": 27,
          "material": 0,
          "mode": 4
        }
      ]
    },
    {
      "name": "Object_7",
      "primitives": [
        {
          "attributes": {
            "NORMAL": 29,
            "POSITION": 28,
            "TEXCOORD_0": 30
          },
          "indices": 31,
          "material": 1,
          "mode": 4
        }
      ]
    }
  ],
  "nodes": [
    {
      "children": [
        1
      ],
      "matrix": [
        0.009977329121211742,
        -2.052683192438766e-17,
        0.09244463260576907,
        0.0,
        0.09244463260576907,
        2.215412102926471e-18,
        -0.009977329121211742,
        0.0,
        0.0,
        0.0929814875125885,
        2.0646037660074446e-17,
        0.0,
        0.0,
        0.0,
        0.0,
        1.0
      ],
      "name": "Sketchfab_model"
    },
    {
      "children": [
        2,
        3,
        4,
        5,
        6,
        7,
        8,
        9
      ],
      "name": "Denker_C.obj.cleaner.materialmerger.gles"
    },
    {
      "mesh": 0,
      "name": "Object_2"
    },
    {
      "mesh": 1,
      "name": "Object_3"
    },
    {
      "mesh": 2,
      "name": "Object_4"
    },
    {
      "mesh": 3,
      "name": "Object_5"
    },
    {
      "mesh": 4,
      "name": "Object_6"
    },
    {
      "mesh": 5,
      "name": "Object_7"
    },
    {
      "mesh": 6,
      "name": "Object_8"
    },
    {
      "mesh": 7,
      "name": "Object_9"
    }
  ],
  "samplers": [
    {
      "magFilter": 9729,
      "minFilter": 9987,
      "wrapS": 10497,
      "wrapT": 10497
    }
  ],
  "scene": 0,
  "scenes": [
    {
      "name": "Sketchfab_Scene",
      "nodes": [
        0
      ]
    }
  ],
  "textures": [
    {
      "sampler": 0,
      "source": 0
    }
  ]
}
