<svg width="200" height="200" viewBox="0 0 200 200" fill="none" xmlns="http://www.w3.org/2000/svg">
<path d="M31.0642 99.3719C-7.00778 121.352 -7.00378 156.972 31.0642 178.972C69.1322 200.972 130.86 200.972 168.932 178.972C207.004 156.972 207 121.372 168.932 99.3719C130.864 77.3719 69.1362 77.3919 31.0642 99.3719Z" fill="#FAFAFA"/>
<path d="M19.3956 97.536L15.6836 95.356L17.8636 91.644C17.9379 91.5173 17.9587 91.3662 17.9216 91.224C17.8845 91.0819 17.7924 90.9603 17.6656 90.886C17.5388 90.8118 17.3878 90.7909 17.2456 90.828C17.1035 90.8652 16.9819 90.9573 16.9076 91.084L14.7276 94.8L11.0156 92.62C10.9528 92.5833 10.8834 92.5592 10.8114 92.5493C10.7393 92.5393 10.666 92.5437 10.5956 92.562C10.4535 92.5992 10.3319 92.6913 10.2576 92.818C10.1834 92.9448 10.1625 93.0959 10.1996 93.238C10.2368 93.3802 10.3288 93.5018 10.4556 93.576L14.1676 95.756L11.9996 99.464C11.9265 99.5916 11.9065 99.7428 11.9439 99.885C11.9813 100.027 12.0732 100.149 12.1996 100.224C12.2624 100.261 12.3317 100.285 12.4037 100.294C12.4757 100.304 12.5489 100.3 12.6191 100.281C12.6894 100.262 12.7552 100.23 12.813 100.186C12.8707 100.142 12.9192 100.087 12.9556 100.024L15.1356 96.312L18.8476 98.492C18.9104 98.5288 18.9798 98.5528 19.0519 98.5628C19.1239 98.5727 19.1972 98.5684 19.2676 98.55C19.338 98.5316 19.4041 98.4996 19.4621 98.4556C19.5201 98.4117 19.5688 98.3568 19.6056 98.294C19.6424 98.2313 19.6664 98.1619 19.6764 98.0898C19.6863 98.0177 19.682 97.9444 19.6636 97.874C19.6452 97.8036 19.6131 97.7376 19.5692 97.6796C19.5253 97.6216 19.4704 97.5728 19.4076 97.536H19.3956Z" fill="#F0F0F0"/>
<path d="M186.54 29.144L183.816 25.812L187.148 23.088C187.257 22.993 187.324 22.8594 187.336 22.7156C187.348 22.5718 187.303 22.429 187.212 22.3173C187.121 22.2057 186.989 22.1339 186.846 22.1172C186.703 22.1006 186.559 22.1403 186.444 22.228L183.116 24.952L180.4 21.62C180.303 21.5197 180.171 21.4597 180.032 21.4518C179.893 21.4439 179.755 21.4888 179.648 21.5775C179.54 21.6662 179.469 21.7922 179.45 21.9305C179.431 22.0688 179.464 22.2093 179.544 22.324L182.268 25.656L178.924 28.4C178.824 28.4972 178.764 28.6285 178.756 28.7679C178.748 28.9073 178.793 29.0446 178.881 29.1524C178.97 29.2602 179.096 29.3308 179.234 29.35C179.373 29.3691 179.513 29.3356 179.628 29.256L182.956 26.532L185.684 29.864C185.73 29.9202 185.786 29.9668 185.85 30.0011C185.914 30.0355 185.985 30.0569 186.057 30.0641C186.129 30.0713 186.202 30.0643 186.272 30.0433C186.341 30.0224 186.406 29.9879 186.462 29.942C186.518 29.896 186.565 29.8394 186.599 29.7755C186.633 29.7115 186.655 29.6414 186.662 29.5691C186.669 29.4969 186.662 29.4239 186.641 29.3544C186.62 29.2849 186.586 29.2202 186.54 29.164V29.144Z" fill="#F0F0F0"/>
<path d="M22.5515 22.3041L19.8275 18.9721L23.1595 16.2481C23.2223 16.2044 23.2754 16.1481 23.3155 16.0829C23.3556 16.0178 23.3817 15.945 23.3924 15.8692C23.4031 15.7934 23.398 15.7163 23.3774 15.6425C23.3569 15.5688 23.3213 15.5001 23.273 15.4408C23.2247 15.3814 23.1647 15.3327 23.0967 15.2976C23.0287 15.2625 22.9541 15.2419 22.8778 15.2369C22.8014 15.232 22.7248 15.2429 22.6529 15.2689C22.5809 15.2949 22.5151 15.3355 22.4595 15.3881L19.1275 18.1161L16.3995 14.8001C16.3558 14.7373 16.2996 14.6842 16.2344 14.6441C16.1692 14.604 16.0964 14.5778 16.0206 14.5672C15.9448 14.5565 15.8677 14.5616 15.794 14.5822C15.7202 14.6027 15.6516 14.6382 15.5922 14.6866C15.5329 14.7349 15.4841 14.7949 15.449 14.8629C15.414 14.9309 15.3933 15.0055 15.3884 15.0818C15.3834 15.1582 15.3943 15.2347 15.4203 15.3067C15.4463 15.3787 15.4869 15.4445 15.5395 15.5001L18.2675 18.8001L14.9355 21.5241C14.8193 21.6174 14.745 21.7531 14.7289 21.9013C14.7128 22.0494 14.7561 22.1979 14.8495 22.3141C14.9429 22.4302 15.0785 22.5046 15.2267 22.5207C15.3748 22.5368 15.5233 22.4934 15.6395 22.4001L18.9715 19.6721L21.6955 23.0041C21.7415 23.0603 21.798 23.1069 21.862 23.1412C21.926 23.1756 21.9961 23.197 22.0683 23.2042C22.1406 23.2115 22.2136 23.2044 22.2831 23.1834C22.3526 23.1625 22.4173 23.128 22.4735 23.0821C22.5297 23.0361 22.5763 22.9795 22.6106 22.9156C22.645 22.8516 22.6664 22.7815 22.6736 22.7092C22.6809 22.637 22.6738 22.564 22.6529 22.4945C22.6319 22.425 22.5975 22.3603 22.5515 22.3041Z" fill="#F0F0F0"/>
<path d="M177.12 71.8882C177.12 71.8882 178.384 75.5842 178.448 76.1442C178.512 76.7042 177.712 78.8602 177.6 79.2642C177.488 79.6682 179.364 80.3362 180.364 79.0402C181.278 77.9302 181.772 76.534 181.76 75.0962L186.4 76.3642C186.78 76.4538 187.18 76.3903 187.514 76.1875C187.848 75.9847 188.088 75.6588 188.184 75.2802C188.259 75.0072 188.262 74.7194 188.192 74.4451C188.121 74.1708 187.981 73.9196 187.784 73.7162C188.086 73.7106 188.378 73.6034 188.611 73.4118C188.845 73.2202 189.007 72.9554 189.072 72.6602C189.158 72.3317 189.131 71.9838 188.996 71.6725C188.86 71.3612 188.623 71.1047 188.324 70.9442C188.632 70.6785 188.843 70.3184 188.924 69.9202C189.064 69.4162 188.64 68.3842 187.988 68.2042C188.213 67.905 188.379 67.5656 188.476 67.2042C188.552 66.7809 188.461 66.3449 188.223 65.9866C187.986 65.6283 187.619 65.3753 187.2 65.2802L179.488 63.2002L177.12 71.8882Z" fill="#E0E0E0"/>
<path d="M178.7 61.7081L175.34 60.7961L172.592 70.9281L175.944 71.8401L178.7 61.7081ZM177.2 62.7321C177.219 62.8533 177.202 62.9774 177.15 63.0888C177.099 63.2001 177.015 63.2937 176.911 63.3577C176.806 63.4217 176.685 63.4532 176.562 63.4482C176.44 63.4432 176.321 63.402 176.222 63.3298C176.123 63.2575 176.048 63.1575 176.005 63.0423C175.963 62.9272 175.956 62.8021 175.985 62.6828C176.014 62.5636 176.077 62.4556 176.167 62.3726C176.258 62.2895 176.371 62.235 176.492 62.2161C176.654 62.1908 176.82 62.2309 176.953 62.3277C177.085 62.4244 177.174 62.5699 177.2 62.7321Z" fill="#E0E0E0"/>
<path d="M58.9316 23.4762C58.9316 23.4762 59.9236 26.9922 59.9556 27.5162C59.9876 28.0402 59.1276 30.0002 59.0036 30.4002C58.8796 30.8002 60.6036 31.4922 61.5956 30.3322C62.5025 29.345 63.0347 28.0711 63.0996 26.7322L67.3796 28.1522C67.7297 28.2559 68.1065 28.2174 68.4285 28.0452C68.7504 27.873 68.9916 27.5809 69.0996 27.2322C69.184 26.9822 69.2026 26.7147 69.1535 26.4555C69.1045 26.1963 68.9895 25.954 68.8196 25.7522C69.1018 25.7617 69.379 25.6762 69.6067 25.5094C69.8345 25.3425 69.9996 25.1041 70.0756 24.8322C70.1722 24.5298 70.1644 24.2037 70.0534 23.9063C69.9424 23.6089 69.7347 23.3574 69.4636 23.1922C69.766 22.9595 69.9826 22.6331 70.0796 22.2642C70.2316 21.8002 69.8916 20.8162 69.2796 20.6162C69.5052 20.3471 69.6776 20.0376 69.7876 19.7042C69.8789 19.3078 69.8122 18.8914 69.6016 18.5434C69.391 18.1954 69.0531 17.9432 68.6596 17.8402L61.5996 15.4722L58.9316 23.4762Z" fill="#E0E0E0"/>
<path d="M60.928 14.0521L57.8359 13.0281L54.752 22.3481L57.8359 23.3721L60.928 14.0521ZM59.484 14.9321C59.4952 15.0462 59.4724 15.161 59.4185 15.2622C59.3645 15.3633 59.2818 15.4462 59.1807 15.5003C59.0797 15.5545 58.9648 15.5774 58.8507 15.5664C58.7366 15.5553 58.6284 15.5107 58.5396 15.4381C58.4509 15.3655 58.3856 15.2683 58.3521 15.1587C58.3186 15.0491 58.3183 14.932 58.3513 14.8222C58.3843 14.7124 58.4491 14.6148 58.5375 14.5418C58.6259 14.4689 58.7339 14.4237 58.8479 14.4121C58.9239 14.4043 59.0006 14.4117 59.0737 14.4336C59.1468 14.4556 59.2148 14.4918 59.2739 14.5401C59.333 14.5884 59.3819 14.6479 59.418 14.7151C59.454 14.7824 59.4765 14.8561 59.484 14.9321Z" fill="#E0E0E0"/>
<path d="M153.156 15.1282C153.212 15.1283 153.267 15.1485 153.31 15.1851C153.353 15.2217 153.382 15.2724 153.392 15.3282L154.752 23.4002C154.757 23.4307 154.756 23.462 154.75 23.4922C154.743 23.5225 154.73 23.551 154.712 23.5762C154.675 23.6287 154.619 23.6646 154.556 23.6762L151.884 24.1242C151.853 24.1299 151.821 24.1293 151.79 24.1225C151.759 24.1157 151.73 24.1028 151.704 24.0845C151.679 24.0662 151.657 24.043 151.64 24.0161C151.624 23.9893 151.613 23.9594 151.608 23.9282L150.248 15.8562C150.242 15.8257 150.243 15.7944 150.25 15.7641C150.257 15.7339 150.27 15.7054 150.288 15.6802C150.325 15.6276 150.381 15.5917 150.444 15.5802L153.116 15.1322L153.156 15.1282ZM154.24 23.2402L152.96 15.6402L150.76 16.0122L152.04 23.6122L154.24 23.2402ZM149.76 16.6602C149.816 16.6603 149.871 16.6805 149.914 16.7171C149.957 16.7537 149.986 16.8044 149.996 16.8602L151.164 23.7962C151.176 23.8421 151.176 23.8903 151.164 23.9362C150.656 25.0402 149.884 26.7882 149.82 27.0842C149.86 27.7417 149.968 28.3932 150.144 29.0282C150.192 29.2362 150.228 29.4002 150.24 29.4802C150.252 29.5602 150.24 29.8282 149.84 29.9882C149.452 30.1285 149.028 30.1333 148.637 30.0018C148.247 29.8704 147.912 29.6103 147.688 29.2642C147.093 28.3773 146.8 27.3226 146.852 26.2562L143.444 26.8282C143.08 26.8787 142.711 26.7842 142.416 26.5649C142.121 26.3456 141.924 26.0193 141.868 25.6562C141.798 25.2738 141.88 24.8793 142.096 24.5562C141.901 24.4625 141.733 24.3221 141.606 24.1477C141.479 23.9732 141.397 23.77 141.368 23.5562C141.33 23.293 141.364 23.0243 141.467 22.7791C141.569 22.5339 141.737 22.3213 141.952 22.1642C141.82 21.9416 141.732 21.6958 141.692 21.4402C141.677 21.1575 141.736 20.8757 141.864 20.6231C141.991 20.3704 142.183 20.1557 142.42 20.0002C142.328 19.7946 142.262 19.5782 142.224 19.3562C142.188 18.954 142.313 18.554 142.57 18.2431C142.828 17.9323 143.198 17.7357 143.6 17.6962L149.732 16.6642L149.76 16.6602ZM150.68 23.8042L149.564 17.2002L143.668 18.1922C143.393 18.2157 143.137 18.3452 142.956 18.5535C142.775 18.7618 142.681 19.0324 142.696 19.3082C142.74 19.5621 142.829 19.806 142.96 20.0282C142.981 20.0618 142.995 20.1002 142.998 20.1401C143.001 20.18 142.995 20.22 142.979 20.2568C142.963 20.2935 142.938 20.3258 142.907 20.3508C142.876 20.3758 142.839 20.3928 142.8 20.4002C142.605 20.4807 142.439 20.6165 142.321 20.7907C142.203 20.9648 142.139 21.1698 142.136 21.3802C142.16 21.6413 142.27 21.8872 142.448 22.0802C142.478 22.1074 142.501 22.1419 142.514 22.1803C142.528 22.2188 142.531 22.2601 142.524 22.3002C142.518 22.3407 142.501 22.379 142.476 22.4112C142.451 22.4435 142.418 22.4686 142.38 22.4842C142.185 22.5645 142.024 22.7082 141.921 22.8919C141.819 23.0756 141.782 23.2886 141.816 23.4962C141.833 23.6768 141.912 23.846 142.038 23.9761C142.165 24.1062 142.332 24.1894 142.512 24.2122C142.559 24.2163 142.604 24.234 142.642 24.2631C142.679 24.2921 142.708 24.3314 142.724 24.3762C142.738 24.4219 142.738 24.4706 142.725 24.5166C142.713 24.5627 142.687 24.6041 142.652 24.6362C142.516 24.7526 142.414 24.9025 142.354 25.0709C142.294 25.2393 142.28 25.4204 142.312 25.5962C142.342 25.8379 142.466 26.0579 142.658 26.2079C142.85 26.3578 143.094 26.4256 143.336 26.3962L147.04 25.7722C147.076 25.7664 147.113 25.7688 147.149 25.7792C147.184 25.7896 147.216 25.8077 147.244 25.8322C147.271 25.8566 147.292 25.887 147.305 25.9211C147.318 25.9551 147.323 25.9918 147.32 26.0282C147.207 27.0909 147.47 28.1595 148.064 29.0482C148.175 29.2236 148.327 29.3696 148.507 29.4741C148.686 29.5785 148.888 29.6382 149.096 29.6482C149.317 29.6712 149.54 29.6324 149.74 29.5362C149.74 29.4522 149.692 29.3242 149.66 29.1762C149.444 28.2402 149.26 27.3722 149.336 27.0242C149.424 26.5682 150.456 24.2962 150.68 23.8042Z" fill="#E0E0E0"/>
<path d="M21.2878 47.9202C21.345 47.9205 21.4002 47.9412 21.4435 47.9786C21.4868 48.016 21.5153 48.0676 21.5238 48.1242L22.9078 56.3202C22.9157 56.3848 22.9 56.4501 22.8638 56.5042C22.827 56.5567 22.771 56.5926 22.7078 56.6042L19.9998 57.0602C19.9683 57.0659 19.9359 57.0652 19.9046 57.0582C19.8733 57.0512 19.8437 57.0379 19.8176 57.0193C19.7915 57.0007 19.7694 56.977 19.7526 56.9496C19.7358 56.9223 19.7247 56.8919 19.7198 56.8602L18.3398 48.6642C18.3285 48.6 18.3428 48.5339 18.3798 48.4802C18.419 48.4283 18.476 48.3926 18.5398 48.3802L21.2518 47.9242L21.2878 47.9202ZM22.3998 56.1642L21.0998 48.4442L18.8678 48.8202L20.1678 56.5402L22.3998 56.1642ZM17.8358 49.4802C17.8935 49.4803 17.9492 49.5009 17.9932 49.5383C18.0371 49.5756 18.0664 49.6273 18.0758 49.6842L19.2758 56.7282C19.2897 56.7738 19.2897 56.8225 19.2758 56.8682C18.7638 57.9882 17.9758 59.7642 17.9118 60.0682C17.9531 60.7363 18.063 61.3985 18.2398 62.0442C18.2878 62.2562 18.3278 62.4202 18.3398 62.5002C18.3518 62.5802 18.3398 62.8602 17.9198 63.0202C17.5256 63.1626 17.0948 63.1674 16.6975 63.0337C16.3002 62.9001 15.9598 62.6359 15.7318 62.2842C15.1292 61.3826 14.832 60.3114 14.8838 59.2282L11.4238 59.8122C11.0531 59.8615 10.6779 59.7634 10.3787 59.539C10.0795 59.3147 9.88028 58.9819 9.82383 58.6122C9.75507 58.2236 9.83967 57.8236 10.0598 57.4962C9.86145 57.401 9.6899 57.2579 9.5607 57.0798C9.4315 56.9018 9.34872 56.6943 9.31983 56.4762C9.27993 56.2088 9.31444 55.9356 9.41957 55.6865C9.5247 55.4374 9.6964 55.2221 9.91583 55.0642C9.77698 54.8398 9.68576 54.5893 9.64783 54.3282C9.63581 54.0427 9.69894 53.7591 9.83091 53.5057C9.96288 53.2523 10.1591 53.038 10.3998 52.8842C10.3065 52.6745 10.2394 52.4542 10.1998 52.2282C10.1596 51.82 10.2826 51.4124 10.5419 51.0946C10.8012 50.7768 11.1758 50.5746 11.5838 50.5322L17.8158 49.4842L17.8358 49.4802ZM18.7678 56.7322L17.6358 50.0002L11.6358 51.0082C11.3575 51.0336 11.0998 51.1656 10.9164 51.3765C10.7331 51.5874 10.6383 51.861 10.6518 52.1402C10.6952 52.4005 10.7875 52.6502 10.9238 52.8762C10.9434 52.9117 10.9537 52.9516 10.9537 52.9922C10.9537 53.0327 10.9434 53.0726 10.9238 53.1082C10.9084 53.145 10.8838 53.1773 10.8522 53.2018C10.8207 53.2263 10.7834 53.2423 10.7438 53.2482C10.5462 53.3312 10.3771 53.47 10.2571 53.6476C10.137 53.8252 10.0713 54.0338 10.0678 54.2482C10.0981 54.5153 10.2147 54.7653 10.3998 54.9602C10.4309 54.9886 10.4545 55.0244 10.4684 55.0641C10.4824 55.1039 10.4863 55.1465 10.4798 55.1882C10.4724 55.2287 10.455 55.2668 10.4291 55.2989C10.4033 55.331 10.3699 55.3562 10.3318 55.3722C10.1363 55.4559 9.97424 55.6025 9.87136 55.7887C9.76848 55.9748 9.73064 56.19 9.76383 56.4002C9.77935 56.5847 9.8584 56.7581 9.98751 56.8909C10.1166 57.0237 10.2878 57.1075 10.4718 57.1282C10.5202 57.1324 10.5663 57.1505 10.6046 57.1803C10.6429 57.2101 10.6718 57.2503 10.6878 57.2962C10.7027 57.3418 10.7038 57.3908 10.691 57.437C10.6782 57.4833 10.6521 57.5247 10.6158 57.5562C10.4786 57.6749 10.3747 57.8274 10.3144 57.9985C10.2541 58.1697 10.2394 58.3536 10.2718 58.5322C10.3047 58.7749 10.4319 58.9949 10.6258 59.1446C10.8196 59.2944 11.0647 59.3617 11.3078 59.3322L15.0758 58.6962C15.1122 58.691 15.1492 58.6936 15.1844 58.704C15.2196 58.7143 15.2521 58.7321 15.2798 58.7562C15.3071 58.7814 15.3282 58.8125 15.3414 58.8472C15.3545 58.8819 15.3595 58.9192 15.3558 58.9562C15.2427 60.0362 15.5116 61.1218 16.1158 62.0242C16.2284 62.202 16.382 62.3504 16.5636 62.4569C16.7452 62.5633 16.9496 62.6248 17.1598 62.6362C17.3854 62.6589 17.6129 62.6173 17.8158 62.5162C17.8158 62.4322 17.7678 62.3042 17.7318 62.1522C17.5158 61.2042 17.3318 60.3202 17.4038 59.9682C17.4958 59.5402 18.5438 57.2322 18.7678 56.7322Z" fill="#E0E0E0"/>
<path d="M25.1482 161.956C25.1482 161.956 28.2962 149.484 23.9482 136.668C21.5082 129.508 16.5762 125.888 13.4522 125.328C9.95217 124.704 6.22817 127.372 9.08817 132.196C11.8082 136.78 17.4362 138.996 20.1522 150.596C21.9402 158.244 21.3162 163.156 21.3162 163.156L25.1482 161.956Z" fill="#407BFF"/>
<path opacity="0.5" d="M25.1482 161.956C25.1482 161.956 28.2962 149.484 23.9482 136.668C21.5082 129.508 16.5762 125.888 13.4522 125.328C9.95217 124.704 6.22817 127.372 9.08817 132.196C11.8082 136.78 17.4362 138.996 20.1522 150.596C21.9402 158.244 21.3162 163.156 21.3162 163.156L25.1482 161.956Z" fill="white"/>
<path d="M23.1481 158.576C23.1207 158.573 23.0942 158.565 23.0701 158.551C23.0459 158.538 23.0247 158.52 23.0076 158.498C22.9905 158.477 22.9778 158.452 22.9703 158.426C22.9629 158.399 22.9607 158.371 22.9641 158.344C25.2681 144.604 18.4001 132.4 12.8001 128.136C12.7778 128.122 12.7589 128.102 12.7449 128.08C12.7309 128.057 12.722 128.032 12.719 128.005C12.7159 127.979 12.7187 127.952 12.7272 127.927C12.7357 127.902 12.7497 127.879 12.7681 127.86C12.8112 127.822 12.8666 127.801 12.9241 127.801C12.9815 127.801 13.037 127.822 13.0801 127.86C18.7681 132.196 25.7361 144.548 23.4041 158.44C23.3859 158.49 23.3496 158.532 23.3023 158.557C23.255 158.582 23.2 158.589 23.1481 158.576Z" fill="white"/>
<path d="M21.3041 163.168C20.9681 159.94 19.1641 156.508 15.1001 152.696C11.0361 148.884 5.35212 145.248 6.37612 142.228C7.40012 139.208 11.9961 140.204 15.1761 142.144C18.3561 144.084 25.2841 151.372 23.2401 162.564L21.3041 163.168Z" fill="#407BFF"/>
<path opacity="0.65" d="M21.3041 163.168C20.9681 159.94 19.1641 156.508 15.1001 152.696C11.0361 148.884 5.35212 145.248 6.37612 142.228C7.40012 139.208 11.9961 140.204 15.1761 142.144C18.3561 144.084 25.2841 151.372 23.2401 162.564L21.3041 163.168Z" fill="white"/>
<path d="M22.4005 159.672C22.3518 159.667 22.3064 159.645 22.2722 159.61C22.2379 159.575 22.2168 159.529 22.2125 159.48C21.9605 152.68 13.6525 143.576 9.67646 141.976C9.65097 141.968 9.62748 141.954 9.60745 141.936C9.58742 141.918 9.57128 141.896 9.56003 141.872C9.54878 141.848 9.54266 141.821 9.54204 141.794C9.54143 141.768 9.54634 141.741 9.55646 141.716C9.58294 141.666 9.62763 141.628 9.68125 141.61C9.73487 141.593 9.79331 141.596 9.84446 141.62C14.0125 143.3 22.3925 152.42 22.6445 159.48C22.6446 159.507 22.639 159.534 22.6282 159.559C22.6173 159.584 22.6014 159.606 22.5815 159.625C22.5616 159.643 22.538 159.657 22.5124 159.666C22.4867 159.675 22.4595 159.678 22.4325 159.676L22.4005 159.672Z" fill="white"/>
<path d="M106.176 176.904C121.287 176.904 133.536 169.832 133.536 161.108C133.536 152.384 121.287 145.312 106.176 145.312C91.0659 145.312 78.8164 152.384 78.8164 161.108C78.8164 169.832 91.0659 176.904 106.176 176.904Z" fill="#E0E0E0"/>
<path d="M42.9119 186.416C58.5792 186.416 71.2799 179.082 71.2799 170.036C71.2799 160.99 58.5792 153.656 42.9119 153.656C27.2447 153.656 14.5439 160.99 14.5439 170.036C14.5439 179.082 27.2447 186.416 42.9119 186.416Z" fill="#E0E0E0"/>
<path d="M181.204 174.04L83.0596 117.408L94.7596 110.656L192.9 167.284L181.204 174.04Z" fill="#E0E0E0"/>
<path opacity="0.5" d="M192.132 116.548L170.344 103.968L181.24 123.98L192.132 116.548Z" fill="#407BFF"/>
<path opacity="0.3" d="M192.132 107.396L170.344 94.8159L181.24 114.832L192.132 107.396Z" fill="#407BFF"/>
<path opacity="0.1" d="M192.132 98.248L170.344 85.668L181.24 105.684L192.132 98.248Z" fill="#407BFF"/>
<path d="M122.108 96.324L110.412 103.076L123.028 91.308L134.724 84.552L122.108 96.324Z" fill="#407BFF"/>
<path opacity="0.3" d="M134.724 84.552L122.108 96.324L110.412 103.076L123.028 91.308L134.724 84.552Z" fill="black"/>
<path d="M120.728 93.4521L110.412 103.076L90.1523 60.9601L101.852 54.2041L120.728 93.4521Z" fill="#407BFF"/>
<path d="M154.98 126.672L143.284 133.424L155.9 121.656L167.6 114.904L154.98 126.672Z" fill="#407BFF"/>
<path opacity="0.3" d="M167.6 114.904L154.98 126.672L143.284 133.424L155.9 121.656L167.6 114.904Z" fill="black"/>
<path d="M155.9 121.656L167.596 114.9L183.2 147.772L186.352 146.052L185.756 166.908L168.224 155.952L171.368 154.236L155.9 121.656Z" fill="#407BFF"/>
<path d="M153.6 123.8L143.284 133.424L123.028 91.308L134.724 84.552L153.6 123.8Z" fill="#407BFF"/>
<path d="M106.242 161.983C111.374 161.893 115.491 159.42 115.439 156.458C115.388 153.496 111.186 151.167 106.055 151.257C100.924 151.346 96.8066 153.82 96.8583 156.782C96.91 159.744 101.111 162.072 106.242 161.983Z" fill="#263238"/>
<path d="M97.3916 158.532L98.8996 158.508C99.322 157.682 99.9843 157.003 100.8 156.56C103.72 154.804 108.504 154.72 111.484 156.372C112.312 156.789 112.997 157.444 113.452 158.252L114.956 158.228L113.276 160.996C112.845 161.634 112.271 162.163 111.6 162.54C108.68 164.296 103.896 164.38 100.916 162.728C100.231 162.372 99.6381 161.863 99.1836 161.24L97.3916 158.532Z" fill="#263238"/>
<path d="M115.884 157.8C121.184 154.6 121.084 149.576 115.66 146.6C110.236 143.624 101.536 143.8 96.2323 147C90.9283 150.2 91.0323 155.224 96.4563 158.2C101.88 161.176 110.58 161.008 115.884 157.8Z" fill="#455A64"/>
<path d="M116.208 155.976C121.708 152.652 121.604 147.444 115.976 144.344C110.348 141.244 101.324 141.424 95.8236 144.744C90.3236 148.064 90.4316 153.276 96.0596 156.376C101.688 159.476 110.708 159.3 116.208 155.976Z" fill="#37474F"/>
<path d="M116.42 153.948C122.06 150.54 121.952 145.2 116.184 142.02C110.416 138.84 101.164 139.024 95.5238 142.42C89.8838 145.816 89.9998 151.2 95.7638 154.36C101.528 157.52 110.8 157.356 116.42 153.948Z" fill="#455A64"/>
<path d="M116.636 151.916C122.416 148.424 122.304 142.952 116.392 139.696C110.48 136.44 101 136.628 95.2239 140.116C89.4479 143.604 89.5559 149.08 95.4679 152.34C101.38 155.6 110.86 155.408 116.636 151.916Z" fill="#37474F"/>
<path d="M116.852 149.884C122.768 146.308 122.656 140.704 116.6 137.368C110.544 134.032 100.84 134.228 94.9241 137.804C89.0081 141.38 89.1161 146.984 95.1721 150.32C101.228 153.656 110.932 153.46 116.852 149.884Z" fill="#455A64"/>
<path d="M117.064 147.852C123.12 144.192 123.008 138.46 116.808 135.052C110.608 131.644 100.676 131.852 94.6199 135.496C88.5639 139.14 88.6799 144.892 94.8759 148.296C101.072 151.7 111.008 151.512 117.064 147.852Z" fill="#37474F"/>
<path d="M89.2636 133.892C89.2196 131.468 90.7756 129.012 93.9436 127.092C100.28 123.26 110.676 123.052 117.164 126.624C120.408 128.412 122.056 130.804 122.104 133.232C122.124 134.172 122.196 137.868 122.216 138.812C122.264 141.236 120.704 143.696 117.536 145.612C111.2 149.444 100.8 149.652 94.3116 146.08C91.0716 144.296 89.4196 141.9 89.3756 139.472C89.3596 138.536 89.2836 134.836 89.2636 133.892Z" fill="#407BFF"/>
<path d="M150.772 90.068C142.884 112.312 122.44 119.416 122.692 132.024C122.744 134.536 121.128 137.088 117.84 139.072C111.268 143.052 100.48 143.268 93.7478 139.556C90.3878 137.704 88.6718 135.216 88.6238 132.704C88.4638 124.8 80.2678 119.384 72.0078 111.048C63.7478 102.712 55.4398 91.448 55.0478 71.848C54.8638 62.5745 57.2949 53.4366 62.0627 45.4806C66.8306 37.5245 73.7426 31.0719 82.0072 26.8615C90.2719 22.6512 99.5551 20.8532 108.794 21.6735C118.033 22.4939 126.854 25.8993 134.248 31.5L139.608 44.668L121.532 38.892L133.44 46.696L106.896 57.976L139.024 61.852L133.4 82.888L147.148 72.304L150.772 90.068Z" fill="#407BFF"/>
<path opacity="0.6" d="M150.772 90.068C142.884 112.312 122.44 119.416 122.692 132.024C122.744 134.536 121.128 137.088 117.84 139.072C111.268 143.052 100.48 143.268 93.7478 139.556C90.3878 137.704 88.6718 135.216 88.6238 132.704C88.4638 124.8 80.2678 119.384 72.0078 111.048C63.7478 102.712 55.4398 91.448 55.0478 71.848C54.8638 62.5745 57.2949 53.4366 62.0627 45.4806C66.8306 37.5245 73.7426 31.0719 82.0072 26.8615C90.2719 22.6512 99.5551 20.8532 108.794 21.6735C118.033 22.4939 126.854 25.8993 134.248 31.5L139.608 44.668L121.532 38.892L133.44 46.696L106.896 57.976L139.024 61.852L133.4 82.888L147.148 72.304L150.772 90.068Z" fill="white"/>
<path d="M115.848 138.064C121.348 134.74 121.244 129.532 115.616 126.432C109.988 123.332 100.968 123.508 95.4681 126.832C89.9681 130.156 90.0721 135.364 95.7001 138.468C101.328 141.572 110.348 141.388 115.848 138.064Z" fill="#407BFF"/>
<path opacity="0.4" d="M115.848 138.064C121.348 134.74 121.244 129.532 115.616 126.432C109.988 123.332 100.968 123.508 95.4681 126.832C89.9681 130.156 90.0721 135.364 95.7001 138.468C101.328 141.572 110.348 141.388 115.848 138.064Z" fill="white"/>
<path opacity="0.25" d="M93.2598 136.676C93.9844 137.385 94.8059 137.989 95.6998 138.468C101.332 141.568 110.352 141.388 115.848 138.068C116.72 137.553 117.516 136.917 118.212 136.18C117.491 135.467 116.67 134.862 115.776 134.384C110.144 131.28 101.124 131.464 95.6238 134.784C94.7483 135.297 93.952 135.934 93.2598 136.676Z" fill="#407BFF"/>
<path d="M93.2598 136.676C93.9844 137.385 94.8059 137.989 95.6998 138.468C101.332 141.568 110.352 141.388 115.848 138.068C116.72 137.553 117.516 136.917 118.212 136.18C117.491 135.467 116.67 134.862 115.776 134.384C110.144 131.28 101.124 131.464 95.6238 134.784C94.7483 135.297 93.952 135.934 93.2598 136.676Z" fill="#407BFF"/>
<path opacity="0.5" d="M78.712 41.9119C79.337 42.1658 79.9261 42.5007 80.464 42.9079C82.464 44.4079 83.312 47.1119 83 49.5879C82.4 54.3999 77.856 57.4479 75.268 61.1999C72.4252 65.3335 70.3369 69.938 69.1 74.7999C68.736 76.2479 68.272 78.6439 67.556 79.9519C66.436 82.0119 64.008 82.3799 62.676 81.7039C60.736 80.7239 59.696 78.3399 59.388 76.4679C57.564 65.3239 59.68 56.9199 65.14 48.2119C68.116 43.4719 72.88 39.5479 78.712 41.9119Z" fill="white"/>
<path opacity="0.5" d="M68.9796 87.6001C69.2263 88.3268 69.316 89.0976 69.2429 89.8616C69.1698 90.6255 68.9356 91.3653 68.5556 92.0321C67.7556 93.5321 65.6476 93.9641 64.2396 93.1081C63.513 92.662 62.9098 92.0409 62.4849 91.3016C62.0601 90.5624 61.8273 89.7285 61.8076 88.8761C61.8076 87.0681 62.9316 85.1121 64.9356 84.8761C66.7996 84.6601 68.4476 86.1001 68.9796 87.6001Z" fill="white"/>
<path d="M95.8558 100.896C95.2109 98.784 94.3559 96.7418 93.3038 94.8001C92.7676 94.9636 92.2228 95.0971 91.6718 95.2001C85.9478 96.2761 82.5718 94.6841 81.3158 92.8401C80.8878 92.2136 80.6605 91.4717 80.6641 90.713C80.6677 89.9543 80.9019 89.2146 81.3358 88.5921C82.1358 87.3441 83.5398 86.7521 85.2278 86.9721C87.7278 87.2961 90.9038 89.4001 93.5918 94.1161C97.6134 92.7129 101.286 90.4606 104.36 87.5121C103.738 86.9289 103.175 86.2858 102.68 85.5921C99.9078 81.5601 99.9958 78.0241 101.004 76.0561C101.321 75.3976 101.815 74.84 102.43 74.445C103.045 74.0501 103.758 73.8334 104.489 73.8189C105.22 73.8044 105.94 73.9927 106.571 74.3629C107.201 74.7331 107.716 75.2707 108.06 75.9161C109.148 77.8401 109.38 81.3681 106.768 85.5161C106.302 86.2342 105.766 86.9042 105.168 87.5161C108.357 90.3393 112.117 92.443 116.192 93.6841C118.688 88.8641 121.792 86.6361 124.264 86.2121C125.936 85.9241 127.38 86.4601 128.22 87.6761C128.677 88.2806 128.94 89.0097 128.973 89.7668C129.007 90.524 128.81 91.2736 128.408 91.9161C127.228 93.8121 123.912 95.5361 118.152 94.6921C117.597 94.6086 117.047 94.4964 116.504 94.3561C115.531 96.3438 114.76 98.4234 114.2 100.564C111.98 108.792 111.18 119.764 111.532 137.296H110.96C110.608 119.72 111.412 108.688 113.648 100.404C114.207 98.264 114.971 96.1825 115.928 94.1881C111.806 92.9082 108.004 90.7677 104.772 87.9081C101.655 90.8936 97.9418 93.1852 93.8758 94.6321C94.9097 96.5775 95.7549 98.6175 96.3998 100.724C98.9638 108.912 100.208 119.904 100.56 137.48H99.9878C99.6438 119.972 98.3998 109.028 95.8558 100.896ZM85.1558 87.5241C83.6998 87.3361 82.4838 87.8281 81.8198 88.8841C81.447 89.4089 81.2441 90.0354 81.2384 90.6791C81.2326 91.3228 81.4244 91.9528 81.7878 92.4841C82.9438 94.1801 86.1118 95.6281 91.5678 94.6081C92.0398 94.5161 92.5238 94.4001 93.0158 94.2601C90.3998 89.8081 87.3918 87.8161 85.1558 87.5241ZM124.356 86.7241C122.132 87.1241 119.188 89.2161 116.756 93.7841C117.252 93.9041 117.744 94.0041 118.22 94.0721C123.704 94.8721 126.82 93.3041 127.904 91.5641C128.247 91.0184 128.414 90.3808 128.383 89.7371C128.352 89.0934 128.125 88.4746 127.732 87.9641C127.427 87.5363 127.019 87.1932 126.545 86.9671C126.071 86.741 125.548 86.6395 125.024 86.6721C124.801 86.6783 124.579 86.701 124.36 86.7401L124.356 86.7241ZM101.512 76.2881C100.34 78.5721 100.98 82.0841 103.148 85.2321C103.62 85.8972 104.156 86.5148 104.748 87.0761C105.318 86.4927 105.83 85.855 106.276 85.1721C108.316 81.9361 108.82 78.4001 107.556 76.1681C107.263 75.6128 106.822 75.1498 106.281 74.8309C105.741 74.512 105.122 74.3497 104.495 74.3621C103.867 74.3746 103.256 74.5613 102.728 74.9014C102.201 75.2415 101.778 75.7217 101.508 76.2881H101.512Z" fill="#455A64"/>
<path d="M166.104 32.468C164.232 31.404 161.652 31.568 158.8 33.2C153.072 36.508 148.424 44.556 148.424 51.172C148.424 54.476 149.584 56.796 151.46 57.88L155.004 59.92C156.88 61 159.472 60.844 162.332 59.192C168.064 55.884 172.708 47.84 172.708 41.224C172.708 37.924 171.552 35.624 169.684 34.52C168.904 34.076 166.9 32.92 166.104 32.468Z" fill="#407BFF"/>
<path opacity="0.5" d="M166.104 32.468C164.232 31.404 161.652 31.568 158.8 33.2C153.072 36.508 148.424 44.556 148.424 51.172C148.424 54.476 149.584 56.796 151.46 57.88L155.004 59.92C156.88 61 159.472 60.844 162.332 59.192C168.064 55.884 172.708 47.84 172.708 41.224C172.708 37.924 171.552 35.624 169.684 34.52C168.904 34.076 166.9 32.92 166.104 32.468Z" fill="white"/>
<path d="M156.572 60.076C155.924 61.1279 155.034 62.0098 153.976 62.648C152.798 63.3369 151.448 63.6768 150.084 63.628C150.022 63.6291 149.96 63.6139 149.904 63.584L146.372 61.552C146.319 61.5204 146.275 61.4756 146.245 61.422C146.214 61.3683 146.198 61.3077 146.198 61.246C146.198 61.1842 146.214 61.1236 146.245 61.0699C146.275 61.0163 146.319 60.9715 146.372 60.94C147.268 60.4519 148.032 59.7529 148.597 58.9033C149.163 58.0537 149.512 57.0791 149.616 56.064L156.572 60.076Z" fill="#407BFF"/>
<path opacity="0.35" d="M156.572 60.076C155.924 61.1279 155.034 62.0098 153.976 62.648C152.798 63.3369 151.448 63.6768 150.084 63.628C150.022 63.6291 149.96 63.6139 149.904 63.584L146.372 61.552C146.319 61.5204 146.275 61.4756 146.245 61.422C146.214 61.3683 146.198 61.3077 146.198 61.246C146.198 61.1842 146.214 61.1236 146.245 61.0699C146.275 61.0163 146.319 60.9715 146.372 60.94C147.268 60.4519 148.032 59.7529 148.597 58.9033C149.163 58.0537 149.512 57.0791 149.616 56.064L156.572 60.076Z" fill="white"/>
<path d="M169.674 51.4607C173.726 44.4432 173.725 36.8579 169.673 34.5184C165.621 32.1789 159.052 35.9712 155 42.9887C150.949 50.0063 150.949 57.5916 155.001 59.9311C159.053 62.2705 165.622 58.4783 169.674 51.4607Z" fill="#407BFF"/>
<path opacity="0.25" d="M169.674 51.4607C173.726 44.4432 173.725 36.8579 169.673 34.5184C165.621 32.1789 159.052 35.9712 155 42.9887C150.949 50.0063 150.949 57.5916 155.001 59.9311C159.053 62.2705 165.622 58.4783 169.674 51.4607Z" fill="white"/>
<path d="M153.116 56.5439C153.304 57.814 153.097 59.1111 152.525 60.2604C151.953 61.4097 151.042 62.3561 149.916 62.9719C149.848 63.0098 149.794 63.0693 149.763 63.1412C149.732 63.213 149.726 63.2931 149.746 63.3687C149.765 63.4444 149.81 63.5113 149.872 63.559C149.934 63.6066 150.01 63.6323 150.088 63.6319C151.455 63.6769 152.806 63.3359 153.988 62.6479C156.744 60.8999 157.088 58.8319 157.088 58.8319L153.116 56.5439Z" fill="#407BFF"/>
<path opacity="0.25" d="M153.116 56.5439C153.304 57.814 153.097 59.1111 152.525 60.2604C151.953 61.4097 151.042 62.3561 149.916 62.9719C149.848 63.0098 149.794 63.0693 149.763 63.1412C149.732 63.213 149.726 63.2931 149.746 63.3687C149.765 63.4444 149.81 63.5113 149.872 63.559C149.934 63.6066 150.01 63.6323 150.088 63.6319C151.455 63.6769 152.806 63.3359 153.988 62.6479C156.744 60.8999 157.088 58.8319 157.088 58.8319L153.116 56.5439Z" fill="white"/>
<path d="M161.329 39.8279L155.969 55.2959C155.409 56.8959 156.161 57.5279 157.641 56.6759L167.045 51.2439C167.397 51.0405 167.707 50.7695 167.955 50.4465C168.203 50.1234 168.385 49.7547 168.49 49.3613C168.596 48.9679 168.623 48.5576 168.57 48.1538C168.516 47.75 168.384 47.3606 168.181 47.0079L163.893 39.5999C163.041 38.1039 161.885 38.2159 161.329 39.8279Z" fill="#FAFAFA"/>
<path d="M162.924 49.072L162.104 49.544C162.078 49.5675 162.045 49.5823 162.009 49.5863C161.974 49.5902 161.938 49.5832 161.907 49.5661C161.876 49.549 161.851 49.5227 161.836 49.4908C161.82 49.4589 161.815 49.423 161.82 49.388L161.488 43.268C161.488 43.1757 161.511 43.0849 161.555 43.0039C161.599 42.9228 161.663 42.8541 161.74 42.804L163.288 41.912C163.436 41.824 163.548 41.912 163.54 42.064L163.2 48.608C163.192 48.7009 163.162 48.7909 163.115 48.8711C163.067 48.9514 163.002 49.02 162.924 49.072Z" fill="#455A64"/>
<path d="M162.513 52.364C161.993 52.664 161.681 52.276 161.681 51.736C161.684 51.4227 161.762 51.1148 161.906 50.8369C162.051 50.559 162.258 50.3189 162.513 50.136C163.037 49.836 163.349 50.224 163.349 50.768C163.346 51.0812 163.269 51.3893 163.123 51.6668C162.978 51.9443 162.769 52.1833 162.513 52.364Z" fill="#455A64"/>
<path d="M150.955 169.896C150.665 169.758 150.348 169.687 150.027 169.688C149.489 169.708 148.966 169.871 148.511 170.16C147.93 170.501 147.411 170.938 146.975 171.452C146.501 172.002 146.09 172.605 145.751 173.248C145.406 173.914 145.138 174.617 144.951 175.344C144.761 176.054 144.663 176.785 144.659 177.52C144.643 178.151 144.742 178.78 144.951 179.376C145.105 179.827 145.382 180.227 145.751 180.528L145.871 180.612C145.415 180.356 142.167 178.512 141.847 178.272C141.479 177.97 141.202 177.571 141.047 177.12C140.84 176.524 140.741 175.895 140.755 175.264C140.76 174.529 140.859 173.798 141.047 173.088C141.234 172.361 141.502 171.658 141.847 170.992C142.182 170.347 142.593 169.744 143.071 169.196C143.507 168.683 144.025 168.247 144.603 167.904C145.058 167.615 145.581 167.452 146.119 167.432C146.497 167.428 146.869 167.526 147.195 167.716C147.239 167.744 150.027 169.348 150.955 169.896Z" fill="#263238"/>
<path d="M152.363 139.936C151.913 139.697 151.396 139.617 150.895 139.708C150.488 139.769 150.092 139.889 149.719 140.064C149.744 140.303 149.756 140.544 149.755 140.784C149.762 142.02 149.559 143.248 149.155 144.416C148.754 145.573 148.255 146.693 147.663 147.764C147.067 148.84 146.431 149.892 145.751 150.908C145.071 151.924 144.455 152.928 143.899 153.916C143.367 154.865 142.924 155.861 142.575 156.892C142.247 157.857 142.128 158.881 142.227 159.896L142.663 165.2L146.567 167.46L146.139 162.16C146.038 161.146 146.153 160.122 146.479 159.156C146.826 158.123 147.272 157.127 147.811 156.18C148.361 155.191 148.977 154.188 149.659 153.172C150.335 152.156 150.975 151.104 151.567 150.028C152.161 148.957 152.661 147.837 153.063 146.68C153.465 145.513 153.667 144.286 153.659 143.052C153.687 142.369 153.571 141.688 153.319 141.052C153.135 140.584 152.798 140.191 152.363 139.936Z" fill="#263238"/>
<path d="M152.512 129.876C151.641 129.5 150.68 129.382 149.744 129.536C148.31 129.773 146.936 130.288 145.7 131.052C144.624 131.672 143.608 132.39 142.664 133.196C141.735 133.991 140.865 134.852 140.06 135.772C139.26 136.69 138.514 137.654 137.828 138.66C137.14 139.668 136.508 140.68 135.932 141.696L137.588 144.244C137.662 144.414 137.79 144.554 137.952 144.644C138.196 144.772 141.504 146.704 141.848 146.896C141.691 146.802 141.567 146.662 141.492 146.496L139.836 143.948C140.412 142.932 141.045 141.92 141.736 140.912C142.42 139.904 143.165 138.94 143.968 138.024C144.772 137.104 145.64 136.243 146.568 135.448C147.512 134.643 148.529 133.925 149.604 133.304C150.84 132.538 152.216 132.023 153.652 131.788C154.627 131.632 155.628 131.771 156.524 132.188C155.408 131.528 152.616 129.92 152.512 129.876Z" fill="#37474F"/>
<path d="M137.952 144.64C138.196 144.768 141.504 146.7 141.848 146.892C141.691 146.798 141.567 146.658 141.492 146.492L139.836 143.944L135.932 141.688L137.588 144.236C137.661 144.407 137.789 144.549 137.952 144.64Z" fill="#263238"/>
<path d="M139.836 143.952C140.412 142.936 141.045 141.924 141.736 140.916C142.421 139.909 143.166 138.945 143.968 138.028C144.772 137.107 145.642 136.246 146.572 135.452C147.515 134.644 148.531 133.926 149.608 133.308C150.843 132.542 152.217 132.027 153.652 131.792C154.723 131.608 155.824 131.793 156.776 132.316C157.7 132.902 158.404 133.779 158.776 134.808C159.297 136.214 159.54 137.709 159.492 139.208C159.505 140.825 159.315 142.438 158.928 144.008C158.581 145.41 158.112 146.779 157.528 148.1C156.992 149.303 156.374 150.467 155.676 151.584L153.776 154.604C153.179 155.548 152.664 156.435 152.232 157.264C151.827 158.009 151.562 158.823 151.452 159.664L150.868 164.972L146.556 167.46L146.12 162.164C146.022 161.15 146.139 160.126 146.464 159.16C146.812 158.128 147.257 157.132 147.792 156.184C148.344 155.195 148.961 154.192 149.644 153.176C150.327 152.16 150.964 151.111 151.556 150.028C152.147 148.957 152.646 147.839 153.048 146.684C153.451 145.517 153.654 144.29 153.648 143.056C153.672 142.373 153.555 141.692 153.304 141.056C153.128 140.579 152.786 140.181 152.341 139.935C151.896 139.689 151.378 139.611 150.88 139.716C150.224 139.827 149.595 140.064 149.028 140.412C148.132 140.918 147.305 141.538 146.568 142.256C145.953 142.863 145.381 143.511 144.856 144.196C144.392 144.82 143.996 145.364 143.656 145.836C143.433 146.2 143.138 146.515 142.788 146.76C142.176 147.116 141.732 147.028 141.46 146.508L139.836 143.952ZM144.656 177.52C144.661 176.785 144.76 176.054 144.952 175.344C145.135 174.616 145.403 173.912 145.752 173.248C146.088 172.603 146.499 172 146.976 171.452C147.41 170.938 147.928 170.501 148.508 170.16C148.962 169.871 149.486 169.709 150.024 169.692C150.462 169.683 150.892 169.817 151.248 170.072C151.63 170.369 151.917 170.771 152.076 171.228C152.294 171.812 152.399 172.433 152.384 173.056C152.383 173.8 152.279 174.54 152.076 175.256C151.879 175.983 151.601 176.686 151.248 177.352C150.911 177.991 150.5 178.589 150.024 179.132C149.591 179.634 149.079 180.062 148.508 180.4C148.045 180.686 147.519 180.855 146.976 180.892C146.538 180.918 146.105 180.789 145.752 180.528C145.379 180.229 145.102 179.829 144.952 179.376C144.741 178.78 144.641 178.151 144.656 177.52Z" fill="#455A64"/>
<path d="M47.7719 155.16L46.8799 147.248L55.8919 146.448C55.8919 146.448 55.5119 152.548 55.5679 155.344C55.5919 156.664 56.5239 159.144 56.5239 159.144C56.5239 159.144 52.7519 161.1 50.7959 160.3C48.8399 159.5 47.5399 156.412 47.5959 155.848C47.6519 155.284 47.7719 155.16 47.7719 155.16Z" fill="#FFBDA7"/>
<path d="M66.9679 167.6C67.0919 167.6 67.1879 168.748 66.4999 169.312C65.6999 169.96 63.1919 171.2 60.1759 170.764C57.1599 170.328 55.5359 169.376 54.3439 168.364C53.1519 167.352 51.4839 165.908 50.1199 165.588C48.8946 165.235 47.7504 164.645 46.7519 163.852C46.3519 163.452 46.4399 161.74 46.4399 161.74L66.9679 167.6Z" fill="#263238"/>
<path d="M47.7679 155.148C47.6561 155.15 47.5485 155.192 47.4638 155.265C47.3791 155.338 47.3225 155.438 47.3039 155.548C47.2039 156.02 47.0759 157.396 46.8599 158.172C46.5639 159.248 46.3359 161.46 46.4879 162.344C46.6399 163.228 49.0319 164.344 50.3439 164.852C51.8878 165.546 53.3174 166.47 54.5839 167.592C55.9839 168.792 58.9519 170.024 60.9239 170.044C63.2559 170.068 65.8959 169.368 66.5239 168.312C67.2919 167.008 67.8639 165.488 64.4359 163.848C63.7839 163.54 61.5119 162.16 60.7359 161.66C58.6399 160.308 57.1719 159.076 56.2399 156.732C56.1637 156.445 55.9933 156.191 55.7559 156.012C55.5441 155.921 55.3096 155.898 55.0839 155.944C54.5039 156.012 52.1999 156.284 51.6719 156.52C51.2039 156.732 50.5399 156.976 50.5399 157.56C50.5477 157.764 50.5883 157.965 50.6599 158.156C50.6959 158.276 50.7279 158.436 50.6199 158.504C50.5119 158.572 50.3879 158.504 50.2959 158.412C49.9629 158.064 49.6593 157.69 49.3879 157.292C49.1179 156.938 48.8267 156.6 48.5159 156.28C48.3112 156.16 48.1148 156.026 47.9279 155.88C47.7199 155.676 47.7759 155.42 47.7679 155.148Z" fill="#455A64"/>
<path d="M54.5836 167.6C53.9916 167.1 53.3596 166.616 52.7236 166.18C52.7236 166.18 56.7476 168.668 58.3996 167.6C59.4716 166.908 58.9836 166.036 58.9636 165.756C58.9436 165.476 62.7156 163.592 63.7636 163.492C64.0476 163.652 64.2796 163.788 64.4356 163.852C67.1156 164.964 67.4476 166.34 66.9676 168.056C66.3476 169.112 63.9836 170.168 60.9676 170.116C58.9916 170.072 55.9996 168.764 54.5836 167.6Z" fill="#37474F"/>
<path d="M58.7037 164.936C60.8397 165.82 59.9037 166.2 59.3117 166.272C58.7197 166.344 55.1277 164.204 52.9517 162.444C50.6837 160.612 48.9517 158.172 48.0877 157.496C47.7757 157.248 47.4357 156.94 47.1357 156.652C47.2037 156.188 47.2557 155.764 47.3037 155.54C47.3224 155.43 47.3789 155.33 47.4636 155.256C47.5484 155.183 47.6559 155.142 47.7677 155.14C47.7677 155.412 47.7197 155.668 47.9237 155.876C48.1106 156.022 48.3071 156.156 48.5117 156.276C48.8225 156.596 49.1137 156.934 49.3837 157.288C49.6551 157.686 49.9588 158.06 50.2917 158.408C52.1277 160.8 56.5717 164.052 58.7037 164.936Z" fill="#37474F"/>
<path d="M59.1636 165.96C59.1154 165.957 59.0693 165.939 59.0316 165.908C59.0099 165.891 58.992 165.869 58.9789 165.845C58.9659 165.82 58.958 165.793 58.9557 165.765C58.9535 165.738 58.9569 165.71 58.9659 165.683C58.9748 165.657 58.989 165.633 59.0077 165.612C59.6277 164.892 62.5356 163.212 64.1156 163.404C64.1471 163.4 64.1789 163.404 64.2088 163.414C64.2387 163.425 64.2658 163.442 64.288 163.464C64.3103 163.487 64.3271 163.514 64.3372 163.544C64.3473 163.574 64.3504 163.606 64.3464 163.637C64.3423 163.669 64.3311 163.699 64.3136 163.725C64.2962 163.752 64.273 163.774 64.2457 163.79C64.2184 163.806 64.1879 163.816 64.1563 163.818C64.1248 163.82 64.0931 163.816 64.0636 163.804C62.5876 163.62 59.8236 165.296 59.3316 165.868C59.3126 165.895 59.2875 165.918 59.2584 165.934C59.2293 165.95 59.1968 165.959 59.1636 165.96Z" fill="#263238"/>
<path d="M57.3114 164.8C57.2619 164.8 57.2139 164.783 57.1754 164.752C57.1542 164.734 57.1367 164.713 57.1239 164.688C57.1112 164.664 57.1035 164.637 57.1013 164.609C57.099 164.582 57.1023 164.554 57.1109 164.528C57.1195 164.501 57.1333 164.477 57.1514 164.456C57.7714 163.736 60.6794 162.056 62.2594 162.248C62.2868 162.251 62.3133 162.259 62.3374 162.273C62.3616 162.286 62.3828 162.304 62.3999 162.326C62.417 162.347 62.4297 162.372 62.4372 162.398C62.4446 162.425 62.4467 162.453 62.4434 162.48C62.4405 162.508 62.432 162.535 62.4184 162.559C62.4048 162.584 62.3865 162.605 62.3645 162.622C62.3424 162.639 62.3172 162.652 62.2902 162.659C62.2632 162.666 62.2351 162.668 62.2074 162.664C60.7314 162.484 57.9674 164.156 57.4754 164.728C57.4552 164.752 57.4299 164.77 57.4016 164.783C57.3732 164.795 57.3424 164.801 57.3114 164.8Z" fill="#263238"/>
<path d="M55.4519 163.68C55.4038 163.679 55.3574 163.662 55.3199 163.632C55.2987 163.614 55.2812 163.593 55.2685 163.568C55.2557 163.543 55.248 163.517 55.2458 163.489C55.2436 163.461 55.2468 163.434 55.2555 163.407C55.2641 163.381 55.2778 163.357 55.2959 163.336C55.9159 162.612 58.8239 160.936 60.4039 161.124C60.4596 161.131 60.5102 161.16 60.5447 161.204C60.5792 161.248 60.5947 161.304 60.5879 161.36C60.585 161.388 60.5765 161.414 60.5629 161.439C60.5493 161.463 60.5309 161.484 60.5088 161.501C60.4867 161.518 60.4614 161.53 60.4344 161.537C60.4074 161.543 60.3794 161.544 60.3519 161.54C58.8759 161.36 56.1119 163.036 55.6199 163.608C55.5986 163.631 55.5726 163.649 55.5436 163.662C55.5147 163.674 55.4834 163.68 55.4519 163.68Z" fill="#263238"/>
<path d="M53.7401 162.42C53.6906 162.42 53.6426 162.403 53.6041 162.372C53.5829 162.355 53.5654 162.333 53.5527 162.308C53.5399 162.284 53.5322 162.257 53.53 162.229C53.5277 162.202 53.531 162.174 53.5396 162.148C53.5482 162.121 53.562 162.097 53.5801 162.076C54.2001 161.352 57.1161 159.676 58.6881 159.864C58.7438 159.871 58.7944 159.9 58.8289 159.944C58.8634 159.988 58.8789 160.045 58.8721 160.1C58.8692 160.128 58.8607 160.155 58.8471 160.179C58.8335 160.203 58.815 160.224 58.7929 160.241C58.7708 160.258 58.7455 160.27 58.7186 160.277C58.6916 160.284 58.6635 160.285 58.6361 160.28C57.1601 160.1 54.3961 161.776 53.9041 162.348C53.8834 162.371 53.858 162.389 53.8298 162.402C53.8015 162.414 53.771 162.42 53.7401 162.42Z" fill="#263238"/>
<path d="M52.0559 161.16C52.0089 161.16 51.9634 161.143 51.9279 161.112C51.9062 161.095 51.8881 161.074 51.8747 161.051C51.8613 161.027 51.8528 161 51.8498 160.973C51.8469 160.946 51.8494 160.918 51.8573 160.892C51.8652 160.866 51.8783 160.841 51.8959 160.82C52.7519 159.796 55.7919 158.396 57.3679 158.596C57.3993 158.592 57.4312 158.596 57.4611 158.606C57.4909 158.617 57.518 158.634 57.5403 158.656C57.5625 158.679 57.5793 158.706 57.5894 158.736C57.5996 158.766 57.6027 158.798 57.5986 158.83C57.5945 158.861 57.5833 158.891 57.5659 158.917C57.5485 158.944 57.5252 158.966 57.498 158.982C57.4707 158.998 57.4401 159.008 57.4086 159.01C57.377 159.013 57.3453 159.008 57.3159 158.996C55.8959 158.82 52.9839 160.164 52.2239 161.072C52.2056 161.1 52.1806 161.122 52.1513 161.138C52.1219 161.153 52.0891 161.161 52.0559 161.16Z" fill="#263238"/>
<path d="M32.8356 158.876L34.9796 149.372L25.5996 147.908L25.4476 157.292C25.4476 157.292 24.7316 159.812 25.2596 160.68C25.7876 161.548 31.4196 162.46 31.9356 161.88C32.4516 161.3 32.8356 158.876 32.8356 158.876Z" fill="#FFBDA7"/>
<path d="M31.8999 173.848C31.6559 175.98 31.2079 177.36 30.2999 178.512C29.3919 179.664 27.7359 179.864 26.1079 179.312C24.4799 178.76 22.3999 177.48 22.0279 175.568C21.6559 173.656 21.8079 172.4 22.2759 170.452L31.8999 173.848Z" fill="#263238"/>
<path d="M25.4561 157.292C24.7761 157.256 24.9601 158.932 24.6561 161.808C24.3081 164.916 22.9081 167.352 22.4081 169.844C21.8401 172.692 21.9481 174.008 23.0081 175.904C24.0681 177.8 28.0481 180.016 30.1721 177.748C31.9041 175.9 32.0801 173.64 32.0761 170.724C32.0761 167.712 32.0361 165.588 32.2881 163.336C32.5241 161.18 33.4281 159.188 32.8521 158.876C32.7921 159.188 32.2121 161.372 31.8321 161.336C31.8175 161.069 31.8295 160.801 31.8681 160.536C31.893 160.411 31.8924 160.283 31.8663 160.158C31.8402 160.034 31.7891 159.916 31.7161 159.812C31.3908 159.559 31.0201 159.37 30.6241 159.256C29.9601 159.06 28.7801 158.812 28.1041 158.676C27.7681 158.608 27.4321 158.552 27.0921 158.512C26.8055 158.472 26.5147 158.472 26.2281 158.512C26.1462 158.519 26.0673 158.546 25.9978 158.59C25.9283 158.634 25.8701 158.693 25.8281 158.764C25.7886 158.867 25.7709 158.978 25.7761 159.088C25.768 159.288 25.7289 159.485 25.6601 159.672C25.6321 159.756 25.5601 159.852 25.4641 159.82C25.43 159.803 25.402 159.776 25.3841 159.742C25.3662 159.708 25.3592 159.67 25.3641 159.632C25.3801 159.264 25.4321 157.476 25.4561 157.292Z" fill="#455A64"/>
<path d="M22.5875 169.04C22.4995 169.44 21.9635 172.168 22.7915 172.772C23.6875 173.428 24.2995 171.312 24.2995 171.312C24.2995 171.312 26.4915 170.988 29.5755 172.592C29.3915 173.024 29.8075 174.564 30.6835 174.356C31.5595 174.148 32.0515 171.016 32.0595 170.976C32.0595 173.776 31.8355 175.956 30.1555 177.748C28.0315 180.016 24.0515 177.796 22.9915 175.904C21.9315 174.012 21.8235 172.704 22.3915 169.844C22.4475 169.56 22.5155 169.292 22.5875 169.04Z" fill="#37474F"/>
<path d="M24.5359 171.528C24.4719 172.572 23.3359 172.076 23.3359 170.588C23.3359 169.1 24.1359 165.492 24.4319 163.064C24.6279 159.564 24.7679 157.256 25.4479 157.292C25.4479 157.324 25.4479 157.36 25.4479 157.396C25.4479 157.432 25.3759 159.396 25.3679 159.616C25.2439 161.752 25.2159 165.904 24.9119 167.832C24.7097 169.055 24.5841 170.29 24.5359 171.528Z" fill="#37474F"/>
<path d="M29.1999 172.52C29.5521 171.339 29.8287 170.136 30.0279 168.92C30.3559 167.012 31.4999 163.188 32.0639 161.132C32.2479 160.796 32.8239 158.876 32.8239 158.876C33.2959 159.008 32.8239 160.84 32.6039 161.696C32.3839 162.552 32.1159 163.472 31.8399 164.7C31.1359 167.124 31.0679 170.764 30.6159 172.16C30.1639 173.556 28.9399 173.524 29.1999 172.52Z" fill="#37474F"/>
<path d="M29.6397 172.688C29.6075 172.68 29.5766 172.668 29.5477 172.652C27.9601 171.781 26.153 171.392 24.3477 171.532C24.2836 171.54 24.2186 171.526 24.1643 171.491C24.1101 171.455 24.0702 171.402 24.0517 171.34C24.0446 171.311 24.044 171.281 24.05 171.251C24.056 171.222 24.0684 171.194 24.0864 171.17C24.1043 171.146 24.1274 171.126 24.1539 171.112C24.1804 171.098 24.2097 171.09 24.2397 171.088C26.1699 170.925 28.1047 171.343 29.7957 172.288C29.8232 172.301 29.8477 172.32 29.8675 172.344C29.8873 172.367 29.9019 172.394 29.9106 172.424C29.9193 172.453 29.9217 172.484 29.9178 172.514C29.9138 172.545 29.9036 172.574 29.8877 172.6C29.8591 172.637 29.8205 172.665 29.7766 172.68C29.7326 172.696 29.6851 172.699 29.6397 172.688Z" fill="#263238"/>
<path d="M30.3156 170.48C30.2877 170.475 30.2607 170.466 30.2356 170.452C28.4344 169.528 26.4213 169.097 24.3996 169.2C24.3347 169.206 24.2698 169.189 24.2163 169.152C24.1629 169.114 24.1244 169.059 24.1076 168.996C24.1024 168.967 24.1037 168.936 24.1113 168.907C24.1189 168.878 24.1326 168.851 24.1516 168.828C24.1706 168.805 24.1944 168.786 24.2213 168.773C24.2482 168.76 24.2777 168.753 24.3076 168.752C26.4385 168.636 28.5616 169.093 30.4556 170.076C30.4834 170.089 30.5082 170.108 30.5285 170.131C30.5489 170.154 30.5644 170.181 30.5741 170.21C30.5838 170.239 30.5875 170.27 30.5851 170.301C30.5826 170.331 30.5739 170.361 30.5596 170.388C30.5322 170.425 30.4945 170.454 30.4512 170.47C30.4079 170.486 30.3609 170.49 30.3156 170.48Z" fill="#263238"/>
<path d="M24.6881 167.06C24.6415 167.051 24.598 167.029 24.5616 166.999C24.5253 166.968 24.4973 166.929 24.4801 166.884C24.4711 166.855 24.4685 166.825 24.4726 166.795C24.4767 166.765 24.4873 166.737 24.5038 166.712C24.5202 166.686 24.5421 166.665 24.5677 166.649C24.5933 166.633 24.6222 166.623 24.6521 166.62C27.7361 166.08 30.6521 167.82 30.7921 167.892C30.8192 167.906 30.8433 167.925 30.8627 167.949C30.8822 167.972 30.8966 167.999 30.9052 168.028C30.9138 168.058 30.9164 168.088 30.9128 168.118C30.9092 168.149 30.8994 168.178 30.8841 168.204C30.8428 168.253 30.7852 168.285 30.7219 168.295C30.6586 168.304 30.594 168.291 30.5401 168.256C30.5121 168.256 27.6601 166.556 24.7961 167.056C24.7609 167.066 24.724 167.067 24.6881 167.06Z" fill="#263238"/>
<path d="M24.9599 165.044C24.9146 165.034 24.8723 165.013 24.8368 164.983C24.8013 164.953 24.7735 164.915 24.7559 164.872C24.7462 164.844 24.743 164.813 24.7465 164.783C24.75 164.753 24.7602 164.724 24.7763 164.698C24.7924 164.673 24.814 164.651 24.8395 164.635C24.865 164.618 24.8939 164.608 24.9239 164.604C28.3159 163.952 31.0719 165.804 31.1879 165.872C31.2145 165.887 31.2377 165.908 31.2558 165.932C31.2739 165.957 31.2866 165.985 31.293 166.015C31.2994 166.045 31.2995 166.076 31.2931 166.106C31.2867 166.135 31.274 166.164 31.2559 166.188C31.2123 166.236 31.1524 166.265 31.0881 166.271C31.0238 166.277 30.9596 166.259 30.9079 166.22C30.8839 166.22 28.2279 164.44 25.0719 165.044C25.0348 165.05 24.997 165.05 24.9599 165.044Z" fill="#263238"/>
<path d="M25.2801 162.776C25.2346 162.768 25.192 162.748 25.1563 162.719C25.1206 162.689 25.093 162.651 25.0761 162.608C25.0656 162.58 25.0616 162.55 25.0643 162.52C25.067 162.49 25.0764 162.461 25.0918 162.436C25.1071 162.41 25.1281 162.388 25.153 162.372C25.178 162.355 25.2064 162.344 25.2361 162.34C28.4361 161.684 31.4201 163.592 31.5441 163.676C31.5709 163.691 31.5943 163.711 31.6128 163.735C31.6314 163.76 31.6446 163.788 31.6518 163.817C31.659 163.847 31.6598 163.878 31.6544 163.908C31.6489 163.938 31.6372 163.967 31.6201 163.992C31.5777 164.04 31.5192 164.07 31.4557 164.078C31.3923 164.085 31.3283 164.069 31.2761 164.032C31.2441 164.012 28.3481 162.168 25.3921 162.78C25.3548 162.785 25.317 162.783 25.2801 162.776Z" fill="#263238"/>
<path d="M29.0554 85.6001C26.0754 92.9041 28.0314 102.672 27.7274 110.632C27.3634 120.156 27.1994 127.62 27.1994 127.62C27.0874 128.9 26.3554 130.692 25.7634 137.008C25.1314 143.672 25.1554 153.2 25.1554 153.2C25.1554 153.2 30.7874 155.6 34.2874 154.364C34.2874 154.364 38.0514 140.092 39.8874 132.248C41.5994 124.8 42.8634 113.2 42.8634 113.2L44.9074 124.4C44.9074 124.4 44.6514 129.2 44.7714 132.568C44.9114 136.484 47.0234 151.464 47.0234 151.464C47.0234 151.464 52.2554 154.596 55.8954 151.608C55.8954 151.608 57.6714 129.608 57.7874 124.916C58.0194 115.684 58.2834 97.5281 57.1914 85.6201L29.0554 85.6001Z" fill="#37474F"/>
<path d="M42.8643 113.2L45.2003 98.5522C45.2003 98.5522 50.2403 97.7122 52.4003 95.6162C51.1776 97.7386 49.1641 99.2904 46.8003 99.9322L44.3523 113.484L44.9083 124.4L42.8643 113.2Z" fill="#263238"/>
<path d="M25.0596 153.512C26.6316 154.744 31.2116 155.796 34.3476 154.66L34.9796 152C32.6116 152.8 27.7356 152.292 25.1116 150.672L25.0596 153.512Z" fill="#455A64"/>
<path d="M47.0242 151.752C48.0842 152.828 53.0042 153.716 55.9122 152.016L56.1242 149.36C53.9202 150.584 48.8602 150.376 46.7002 149.116L47.0242 151.752Z" fill="#455A64"/>
<path d="M27.564 111.94C27.564 111.94 27.076 123.804 27.108 124.668C27.14 125.532 33.6 127.24 33.76 126.692C34.04 125.78 33.968 123.74 34.524 113.892C29.176 113.22 27.564 111.94 27.564 111.94Z" fill="#455A64"/>
<path d="M33.5198 117.292C33.3208 117.245 33.1159 117.227 32.9118 117.24C32.6745 117.24 32.4385 117.228 32.2038 117.204C31.703 117.164 31.2057 117.088 30.7158 116.976C30.1624 116.85 29.6184 116.686 29.0878 116.484C28.6558 116.316 28.2478 116.084 27.8118 115.932C27.7718 115.932 27.7678 115.996 27.8118 116.012C28.2363 116.299 28.6944 116.533 29.1758 116.708C29.6132 116.883 30.0623 117.028 30.5198 117.14C31.0082 117.26 31.5039 117.348 32.0038 117.404C32.2518 117.432 32.5038 117.448 32.7518 117.456C33.0189 117.506 33.2942 117.486 33.5518 117.4C33.5558 117.384 33.5598 117.304 33.5198 117.292Z" fill="#37474F"/>
<path d="M30.7115 115.636C30.6515 115.512 30.6035 115.436 30.4635 115.42C30.3488 115.407 30.2334 115.437 30.1395 115.504C30.0962 115.536 30.0598 115.576 30.0323 115.622C30.0048 115.668 29.9868 115.719 29.9795 115.772C29.9698 115.857 29.9842 115.943 30.0211 116.02C30.0579 116.097 30.1157 116.163 30.1879 116.209C30.2601 116.254 30.3437 116.279 30.4292 116.28C30.5147 116.28 30.5987 116.257 30.6715 116.212C30.7108 116.179 30.7416 116.137 30.7611 116.09C30.7806 116.043 30.7883 115.991 30.7835 115.94C30.7839 115.835 30.7592 115.73 30.7115 115.636ZM30.5915 115.996C30.5528 116.042 30.4996 116.073 30.4407 116.085C30.3818 116.097 30.3207 116.088 30.2675 116.06C30.0995 115.964 30.1355 115.66 30.3355 115.624C30.3989 115.616 30.4631 115.632 30.5155 115.668C30.5653 115.706 30.6003 115.76 30.6142 115.82C30.6281 115.881 30.6201 115.945 30.5915 116V115.996Z" fill="#37474F"/>
<path d="M49.2637 54.7C52.5117 55.284 54.0877 56.112 56.5277 60.028C58.9677 63.944 63.9277 75.124 63.9277 75.124L69.8837 87.2799L64.3757 89.2799C64.3757 89.2799 61.6917 85.708 59.4277 82.932C57.7517 80.88 56.6277 79.3799 54.4357 75.5479C52.2437 71.716 50.3077 67.7599 50.3077 67.7599L49.2637 54.7Z" fill="#FFBDA7"/>
<path d="M31.5755 77.692C31.5755 78.532 29.4355 82.756 28.2715 87.312C35.2755 96.344 56.0315 91.416 57.5515 86.332C57.2235 80.292 56.9435 65.032 55.6195 62.272C54.1537 59.2651 51.9709 56.6647 49.2635 54.7C47.8001 54.4183 46.3216 54.222 44.8355 54.112C42.6255 53.8826 40.3951 53.9391 38.1995 54.28C36.2355 54.584 32.9995 55.436 32.9995 55.436C31.7675 56.476 28.3595 60.856 29.1475 66.136C29.5155 68.56 31.5995 71.724 31.5755 77.692Z" fill="#407BFF"/>
<path opacity="0.2" d="M31.5755 77.692C31.5755 78.532 29.4355 82.756 28.2715 87.312C35.2755 96.344 56.0315 91.416 57.5515 86.332C57.2235 80.292 56.9435 65.032 55.6195 62.272C54.1537 59.2651 51.9709 56.6647 49.2635 54.7C47.8001 54.4183 46.3216 54.222 44.8355 54.112C42.6255 53.8826 40.3951 53.9391 38.1995 54.28C36.2355 54.584 32.9995 55.436 32.9995 55.436C31.7675 56.476 28.3595 60.856 29.1475 66.136C29.5155 68.56 31.5995 71.724 31.5755 77.692Z" fill="white"/>
<path d="M43.3436 88.12C43.1076 87.604 45.5676 87.18 46.4716 86.06C46.9196 85.504 46.8716 84.428 45.9396 84.796C44.0156 85.572 42.9156 85.38 41.6396 85.708" fill="#FFBDA7"/>
<path d="M44.3999 89.0561C43.8544 89.3655 43.4286 89.8491 43.1907 90.4293C42.9528 91.0095 42.9166 91.6528 43.0879 92.2561C43.2193 92.7938 43.5271 93.2719 43.9622 93.6141C44.3972 93.9563 44.9344 94.1429 45.4879 94.1441C45.139 94.5282 44.8956 94.9961 44.7814 95.5022C44.6671 96.0083 44.6859 96.5354 44.8359 97.0321C45.1359 98.0441 46.3559 99.4841 48.1519 98.9561L56.6559 96.4561C56.6879 99.1005 57.6494 101.649 59.3719 103.656C61.2599 106 64.6759 104.696 64.4599 103.96C64.2439 103.224 62.6839 99.2881 62.7799 98.2601C62.8759 97.2321 65.0639 90.3921 65.0639 90.3921L67.0919 89.8161L62.3999 73.8401L60.3999 74.4601L46.3279 78.5961C44.4919 79.1401 43.5959 80.8521 43.9879 82.1961C44.1814 82.8579 44.4991 83.4769 44.9239 84.0201C43.7239 84.3721 42.9919 86.2841 43.2639 87.2201C43.6439 88.5721 44.3999 89.0561 44.3999 89.0561Z" fill="#FAFAFA"/>
<path d="M64.4515 103.936C64.6675 104.672 61.2515 105.976 59.3635 103.632C57.641 101.625 56.6795 99.0766 56.6475 96.4322L56.7555 96.2842L58.2675 95.8562C59.5515 104.096 62.8315 104.368 64.4515 103.936Z" fill="#E0E0E0"/>
<path d="M67.3227 90.0317L73.459 88.2419L68.055 69.7139L61.9187 71.5037L67.3227 90.0317Z" fill="#407BFF"/>
<path opacity="0.2" d="M67.3227 90.0317L73.459 88.2419L68.055 69.7139L61.9187 71.5037L67.3227 90.0317Z" fill="black"/>
<path d="M44.3994 89.0561C44.3994 89.0561 43.6594 88.5721 43.2554 87.1921C43.2339 87.1203 43.2192 87.0467 43.2114 86.9721C43.0954 86.0001 43.8074 84.3321 44.9154 84.0081C44.4907 83.4649 44.173 82.846 43.9794 82.1841C43.9398 82.0537 43.913 81.9198 43.8994 81.7841C43.7754 80.5321 44.6674 79.0961 46.3194 78.6081L49.1474 77.7761C47.4914 78.2641 46.5994 79.7001 46.7234 80.9761C46.7382 81.1116 46.765 81.2454 46.8034 81.3761C46.997 82.038 47.3147 82.6569 47.7394 83.2001C46.6314 83.5241 45.9194 85.2001 46.0354 86.1641C46.0451 86.2397 46.0598 86.3145 46.0794 86.3881C46.4794 87.7641 47.2274 88.2481 47.2274 88.2481C46.682 88.5575 46.2562 89.0411 46.0183 89.6213C45.7804 90.2016 45.7442 90.8449 45.9154 91.4481C45.9138 91.4627 45.9138 91.4775 45.9154 91.4921C46.0527 92.023 46.3635 92.4928 46.7983 92.8269C47.2331 93.161 47.7671 93.3402 48.3154 93.3361C47.9663 93.7208 47.723 94.1896 47.6094 94.6965C47.4958 95.2035 47.5158 95.7312 47.6674 96.2281C47.6834 96.2841 47.7034 96.3441 47.7274 96.4081C48.1074 97.4001 49.2914 98.6481 50.9834 98.1481L48.1554 98.9801C46.4674 99.4761 45.2834 98.2321 44.9034 97.2401C44.8794 97.1761 44.8594 97.1161 44.8394 97.0561C44.6895 96.5594 44.6707 96.0323 44.7849 95.5262C44.8992 95.0201 45.1426 94.5522 45.4914 94.1681C44.9436 94.1701 44.4107 93.9901 43.9762 93.6564C43.5418 93.3226 43.2306 92.854 43.0914 92.3241C43.0937 92.3095 43.0937 92.2947 43.0914 92.2801C42.9139 91.674 42.9465 91.0256 43.1839 90.4403C43.4214 89.855 43.8497 89.3672 44.3994 89.0561Z" fill="#E0E0E0"/>
<path d="M62.4676 73.7002L67.2236 89.8722L65.1436 90.4602C64.9316 91.1202 62.9756 97.2882 62.8836 98.2442C62.8116 99.0002 63.7196 101.536 64.2076 102.896C64.3716 103.36 64.5036 103.724 64.5556 103.904C64.6316 104.164 64.4156 104.448 63.9636 104.684C63.1852 105.066 62.3017 105.177 61.4532 104.999C60.6047 104.822 59.8397 104.366 59.2796 103.704C57.574 101.717 56.6074 99.202 56.5436 96.5842L48.1756 99.0482C47.7858 99.1727 47.3718 99.2013 46.9686 99.1317C46.5655 99.062 46.185 98.8962 45.8596 98.6482C45.3227 98.247 44.9254 97.6873 44.7236 97.0482C44.5763 96.5708 44.5471 96.0648 44.6383 95.5737C44.7296 95.0825 44.9387 94.6208 45.2476 94.2282C44.7106 94.1802 44.202 93.9654 43.7932 93.6139C43.3843 93.2625 43.0957 92.7919 42.9676 92.2682C42.799 91.6724 42.8244 91.0385 43.0402 90.4581C43.2559 89.8778 43.6508 89.3812 44.1676 89.0402C43.6526 88.5456 43.2868 87.9164 43.1116 87.2242C42.9942 86.5817 43.0956 85.9183 43.3996 85.3402C43.648 84.7351 44.1089 84.2415 44.6956 83.9522C44.3109 83.4275 44.02 82.8401 43.8356 82.2162C43.7388 81.8486 43.7197 81.4649 43.7796 81.0895C43.8395 80.7141 43.9771 80.3554 44.1836 80.0362C44.6574 79.281 45.3965 78.7303 46.2556 78.4922L60.3236 74.3522L62.4676 73.7002ZM66.9476 89.7002L62.3156 73.9602L60.3996 74.5642L46.3276 78.7042C45.5222 78.9285 44.8291 79.4447 44.3836 80.1522C44.1939 80.4449 44.0672 80.7738 44.0114 81.1181C43.9556 81.4624 43.972 81.8146 44.0596 82.1522C44.2505 82.799 44.5612 83.4041 44.9756 83.9362L45.0876 84.0642L44.9236 84.1122C44.6255 84.2306 44.3551 84.4093 44.1293 84.6372C43.9035 84.865 43.7273 85.137 43.6116 85.4362C43.3324 85.9648 43.2353 86.5708 43.3356 87.1602C43.4957 87.8653 43.8837 88.4979 44.4396 88.9602L44.5916 89.0642L44.4316 89.1522C43.9102 89.4474 43.5027 89.9088 43.2743 90.4628C43.0459 91.0168 43.0098 91.6313 43.1716 92.2082C43.2915 92.7251 43.5838 93.1857 44.0004 93.5143C44.417 93.8429 44.933 94.0199 45.4636 94.0162H45.7356L45.5516 94.2162C45.2127 94.5881 44.9768 95.0421 44.8674 95.5332C44.7579 96.0244 44.7787 96.5356 44.9276 97.0162C45.1192 97.6063 45.4879 98.123 45.9836 98.4962C46.2816 98.7229 46.63 98.8744 46.999 98.9377C47.3681 99.0011 47.747 98.9745 48.1036 98.8602L56.7476 96.3202V96.4642C56.7823 99.0822 57.735 101.605 59.4396 103.592C59.9661 104.213 60.6845 104.641 61.4812 104.808C62.278 104.976 63.1078 104.873 63.8396 104.516C64.1716 104.344 64.3636 104.116 64.3236 103.996C64.2836 103.876 64.1436 103.46 63.9796 103C63.4516 101.524 62.5676 99.0562 62.6436 98.2522C62.7396 97.2242 64.8396 90.6522 64.9316 90.3642V90.3042L66.9476 89.7002Z" fill="#455A64"/>
<path opacity="0.2" d="M64.602 80.7788L70.7383 78.989L68.0357 69.7231L61.8994 71.5129L64.602 80.7788Z" fill="black"/>
<path d="M66.4275 72.9441C66.4794 73.1201 66.4779 73.3076 66.4232 73.4829C66.3685 73.6581 66.2631 73.8131 66.1203 73.9284C65.9774 74.0437 65.8036 74.1141 65.6208 74.1306C65.438 74.1471 65.2544 74.109 65.0932 74.0211C64.932 73.9333 64.8005 73.7996 64.7154 73.637C64.6302 73.4744 64.5951 73.2902 64.6146 73.1077C64.6342 72.9251 64.7074 72.7525 64.825 72.6116C64.9426 72.4707 65.0994 72.3678 65.2755 72.316C65.5116 72.2477 65.765 72.2754 65.9808 72.393C66.1965 72.5106 66.3571 72.7087 66.4275 72.9441Z" fill="#F0F0F0"/>
<path d="M41.6396 85.7079C40.3676 86.0359 39.3516 86.0759 37.4356 85.5759C35.3996 85.0439 28.4476 79.3159 28.4476 79.3159L33.2276 67.3159C33.2276 67.3159 35.4876 62.0079 33.0076 55.4399C28.2836 56.4559 27.1516 58.2159 26.2716 59.7359C25.3916 61.2559 24.9236 62.6439 22.6236 68.9359C20.6276 74.3999 19.5996 77.5999 19.1476 79.8319C18.5916 82.5759 20.3876 84.0119 23.8276 86.0199C27.2676 88.0279 29.5516 89.0839 34.5756 91.4839C36.9756 92.6399 38.4756 92.9119 40.6876 93.5399C41.5188 93.8069 42.3867 93.9419 43.2596 93.9399C44.059 93.9571 44.8503 93.7772 45.5636 93.4159C45.6867 93.3335 45.8216 93.2701 45.9636 93.2279C46.1081 93.2082 46.2538 93.1988 46.3996 93.1999C46.6705 93.2002 46.94 93.1611 47.1996 93.0839C47.4634 92.9617 47.714 92.8129 47.9476 92.6399C48.0571 92.5632 48.1706 92.4924 48.2876 92.4279C48.4168 92.3731 48.5507 92.3303 48.6876 92.2999C49.0468 92.2427 49.3932 92.1236 49.7116 91.9479C49.7918 91.8952 49.8569 91.8224 49.9004 91.7368C49.9439 91.6513 49.9643 91.5558 49.9596 91.4599C49.9596 91.4599 50.4276 91.4199 50.5876 91.3959C50.8087 91.3635 51.0258 91.3086 51.2356 91.2319C51.2781 91.2216 51.3179 91.2024 51.3524 91.1755C51.3869 91.1486 51.4153 91.1147 51.4356 91.0759C51.4496 91.0249 51.4496 90.971 51.4356 90.9199C51.2516 90.1199 50.4436 89.8679 49.7316 89.7199C47.8756 89.3199 46.6276 89.4599 44.8156 88.8559C43.8316 88.5279 43.5876 88.4319 43.3556 88.1439" fill="#FFBDA7"/>
<path d="M28.4478 79.316C27.3701 78.2879 26.1892 77.3737 24.9238 76.588C24.9238 76.588 26.2958 76.456 28.7358 78.588L28.4478 79.316Z" fill="#F0997A"/>
<path d="M49.8632 91.492C49.393 91.5454 48.9204 91.5747 48.4472 91.58C47.9712 91.58 47.4992 91.58 47.0272 91.6C46.7952 91.6 46.5592 91.6 46.3152 91.6C46.0712 91.6 45.8392 91.576 45.6032 91.548C45.1312 91.496 44.6632 91.428 44.1992 91.332L44.9072 91.372L45.6152 91.412C45.8512 91.412 46.0872 91.412 46.3192 91.412C46.5512 91.412 46.7872 91.412 47.0272 91.412C47.4992 91.412 47.9752 91.412 48.4472 91.432L49.8632 91.492Z" fill="#F0997A"/>
<path d="M48.3394 92.3999C47.9872 92.5183 47.6241 92.6014 47.2554 92.6479C46.8954 92.6919 46.5314 92.7199 46.1674 92.7359C45.8034 92.7519 45.4394 92.7359 45.0714 92.7359C44.7071 92.7293 44.3436 92.6985 43.9834 92.6439C44.3474 92.6439 44.7074 92.6119 45.0714 92.5959L46.1594 92.5519L47.2434 92.5039C47.5994 92.4719 47.9754 92.4319 48.3394 92.3999Z" fill="#F0997A"/>
<path d="M74.9638 87.5759C76.0798 87.3879 76.1238 87.2559 76.2038 86.6719C76.2804 86.2173 76.2478 85.751 76.1087 85.3115C75.9696 84.8719 75.728 84.4717 75.4038 84.1439C74.8118 83.5879 74.2438 82.9999 73.8038 82.8559C73.3638 82.7119 72.9838 83.5879 73.5678 84.5039C74.4838 85.9439 74.1558 86.2559 74.1558 86.2559C73.7682 85.64 73.349 85.0445 72.8998 84.4719C72.4998 84.0119 71.4838 83.4279 70.8998 83.0079C70.3158 82.5879 69.5838 83.1359 70.2078 84.2079L69.1518 83.4479C68.4118 82.9119 67.8558 83.0479 67.9518 83.9319C67.9761 84.2321 68.1033 84.5147 68.3118 84.7319C68.3118 84.7319 67.6318 84.0519 67.3918 84.2639C66.7078 84.8719 66.9598 85.4639 67.9358 87.2319C68.7678 88.7359 68.6718 89.5879 68.0798 89.9319L67.6798 90.1159C67.6798 90.1159 68.5118 90.3359 69.3078 90.4799C69.8878 90.5839 70.4478 90.6079 70.8278 89.9159C70.8278 89.9159 71.5598 90.6759 72.0678 90.2599C72.4153 89.9311 72.6881 89.5314 72.8678 89.0879C73.0774 89.1456 73.2991 89.1428 73.5072 89.0798C73.7153 89.0168 73.9013 88.8962 74.0438 88.7319C74.339 88.4388 74.5288 88.0563 74.5838 87.6439L74.9638 87.5759Z" fill="#FFBDA7"/>
<path d="M70.1875 84.196C70.5158 84.4113 70.8225 84.6578 71.1035 84.932C71.3419 85.2522 71.527 85.6088 71.6515 85.988C71.9398 86.7046 72.166 87.4447 72.3275 88.2C71.9392 87.5329 71.6073 86.8345 71.3355 86.112C71.2211 85.7603 71.0738 85.4201 70.8955 85.096C70.6875 84.8 70.3995 84.516 70.1875 84.196Z" fill="#F0997A"/>
<path d="M68.3037 84.7119C68.6778 84.92 68.995 85.2167 69.2277 85.5759C69.4567 85.9303 69.6522 86.3053 69.8117 86.6959C70.1389 87.4678 70.383 88.2723 70.5397 89.0959C70.1541 88.3611 69.8069 87.6068 69.4997 86.8359C69.2372 86.0595 68.8315 85.339 68.3037 84.7119Z" fill="#F0997A"/>
<path d="M33.6875 33.9321C33.5825 34.2584 33.5128 34.595 33.4795 34.9361C33.4535 35.154 33.4535 35.3742 33.4795 35.5921C33.5789 36.0942 33.8484 36.5467 34.2426 36.8731C34.6369 37.1996 35.1316 37.38 35.6435 37.3841C36.1527 37.3651 36.6511 37.2307 37.1008 36.9909C37.5505 36.7512 37.9399 36.4124 38.2395 36.0001C39.0835 34.9241 40.3435 32.4001 38.7035 31.4841C38.1533 31.2064 37.537 31.0863 36.9228 31.1371C36.3086 31.1879 35.7205 31.4077 35.2235 31.7721C34.4964 32.312 33.9588 33.0681 33.6875 33.9321Z" fill="#407BFF"/>
<path opacity="0.25" d="M33.6875 33.9321C33.5825 34.2584 33.5128 34.595 33.4795 34.9361C33.4535 35.154 33.4535 35.3742 33.4795 35.5921C33.5789 36.0942 33.8484 36.5467 34.2426 36.8731C34.6369 37.1996 35.1316 37.38 35.6435 37.3841C36.1527 37.3651 36.6511 37.2307 37.1008 36.9909C37.5505 36.7512 37.9399 36.4124 38.2395 36.0001C39.0835 34.9241 40.3435 32.4001 38.7035 31.4841C38.1533 31.2064 37.537 31.0863 36.9228 31.1371C36.3086 31.1879 35.7205 31.4077 35.2235 31.7721C34.4964 32.312 33.9588 33.0681 33.6875 33.9321Z" fill="black"/>
<path d="M53.6678 32.7081C52.5718 31.1081 50.6238 30.5721 49.5278 31.1081C48.5358 29.7681 46.5278 29.0001 44.8718 28.9001C38.5478 28.5001 36.5038 31.6241 36.1598 32.7841C33.1678 33.1841 31.0158 37.6721 32.8278 43.8401C33.6278 46.5241 37.6918 49.7241 37.9358 51.1561L40.8238 50.1881C40.9673 48.8784 41.4714 47.6342 42.28 46.594C43.0886 45.5538 44.17 44.7583 45.4038 44.2961C49.7478 42.5921 52.2038 41.5321 52.8678 40.6521C55.5518 37.9401 54.7678 34.2921 53.6678 32.7081Z" fill="#263238"/>
<path d="M35.5194 28.24C33.8394 28.44 32.7794 29.292 32.4594 30.916C30.9594 30.7 29.3114 30.976 28.1994 32.116C27.8318 32.5032 27.5542 32.9668 27.3862 33.4735C27.2182 33.9803 27.164 34.5179 27.2274 35.048C27.3034 36.052 27.8234 36.584 28.4274 37.284C27.8828 37.5182 27.4441 37.9457 27.196 38.4842C26.9478 39.0226 26.9077 39.6338 27.0834 40.2C27.2874 40.9 29.9234 43.488 27.8074 43.696C28.7714 44.364 30.4034 43.796 30.2914 42.496C30.2775 42.8829 30.3405 43.2686 30.4767 43.631C30.6129 43.9934 30.8195 44.3251 31.0848 44.6071C31.35 44.889 31.6685 45.1156 32.0219 45.2737C32.3752 45.4318 32.7564 45.5182 33.1434 45.528C35.5034 45.632 37.4194 44.328 37.9834 42.04L39.1234 30.32C38.6594 28.824 37.1594 28.04 35.5194 28.24Z" fill="#263238"/>
<path d="M52.8435 37.6001C52.9863 38.2864 53.0852 38.9812 53.1395 39.6801C53.2695 41.0747 53.3095 42.4763 53.2595 43.8761C53.0515 48.8601 51.6595 50.7121 50.3475 51.3401C49.0313 51.8868 47.584 52.037 46.1835 51.7721L46.2435 54.7841C46.2435 54.7841 50.7755 57.8361 46.7195 59.0041C45.1715 59.4481 41.9675 58.7881 40.1755 57.3801C38.3835 55.9721 37.9035 55.1001 37.9035 55.1001L37.8235 47.9001C37.8235 47.9001 36.2595 49.3601 34.3435 47.3161C32.9755 45.8641 32.6595 42.7761 34.4635 41.8201C34.7535 41.6409 35.0775 41.5238 35.4151 41.4763C35.7526 41.4287 36.0964 41.4517 36.4246 41.5438C36.7528 41.6359 37.0583 41.7951 37.3218 42.0114C37.5853 42.2276 37.8011 42.4962 37.9555 42.8001C38.6355 44.0361 39.8915 43.5641 39.8715 42.1401C39.8515 40.7161 39.9435 40.2801 40.4115 39.5481C42.0115 37.0721 40.8835 36.3241 42.3675 34.8961C43.2195 34.0961 45.5275 33.7721 47.2755 35.0961C49.3035 33.3001 52.0635 34.0761 52.8435 37.6001Z" fill="#FFBDA7"/>
<path d="M47.0391 39.3679L48.0951 44.9879L50.8911 43.6759L47.0391 39.3679Z" fill="#F0997A"/>
<path d="M46.1832 51.752C42.3712 50.952 40.1832 49.432 39.4912 47.896C39.7386 49.1844 40.4829 50.3237 41.5632 51.068C43.4032 52.236 46.2032 52.724 46.2032 52.724L46.1832 51.752Z" fill="#F0997A"/>
<path d="M50.1914 37.9041L51.9194 38.8001C51.8669 38.9153 51.7915 39.0187 51.6978 39.104C51.6042 39.1892 51.4942 39.2546 51.3745 39.2961C51.2548 39.3376 51.128 39.3544 51.0016 39.3455C50.8753 39.3365 50.7521 39.302 50.6394 39.2441C50.4077 39.1203 50.2321 38.9124 50.1487 38.6632C50.0654 38.414 50.0807 38.1424 50.1914 37.9041Z" fill="#263238"/>
<path d="M42.7432 39.048L44.6552 38.228C44.7174 38.3505 44.7537 38.4846 44.7616 38.6218C44.7695 38.759 44.749 38.8963 44.7013 39.0252C44.6536 39.154 44.5797 39.2716 44.4844 39.3706C44.389 39.4695 44.2742 39.5476 44.1472 39.6C43.8871 39.7063 43.596 39.7083 43.3345 39.6054C43.073 39.5026 42.8612 39.303 42.7432 39.048Z" fill="#263238"/>
<path d="M51.3795 40.8521C51.5235 41.2521 51.2475 41.3801 50.8675 41.5161C50.4875 41.6521 50.1435 41.7361 50.0035 41.3401C49.9629 41.248 49.9418 41.1484 49.9414 41.0477C49.941 40.947 49.9614 40.8473 50.0013 40.7549C50.0412 40.6624 50.0998 40.5792 50.1733 40.5104C50.2469 40.4416 50.3338 40.3888 50.4287 40.3551C50.5236 40.3214 50.6245 40.3077 50.7249 40.3148C50.8254 40.3219 50.9233 40.3496 51.0125 40.3963C51.1018 40.4429 51.1804 40.5075 51.2436 40.5859C51.3067 40.6644 51.353 40.755 51.3795 40.8521Z" fill="#263238"/>
<path d="M50.071 40.528C50.2422 40.4325 50.427 40.3637 50.619 40.324C50.8046 40.2782 50.997 40.266 51.187 40.288C51.3882 40.3094 51.5843 40.3648 51.7669 40.452C51.7669 40.452 51.7949 40.5 51.7669 40.5C51.6109 40.5 51.4749 40.46 51.2469 40.452C50.7743 40.4645 50.3112 40.5878 49.8949 40.812L49.663 40.944C49.663 40.944 49.6269 40.904 49.6349 40.884C49.7533 40.7356 49.9019 40.6143 50.071 40.528Z" fill="#263238"/>
<path d="M43.9991 41.1161C43.9111 41.5161 44.2031 41.6201 44.5991 41.7041C44.9951 41.7881 45.3431 41.8281 45.4311 41.4161C45.4547 41.3206 45.4588 41.2214 45.4431 41.1244C45.4275 41.0273 45.3925 40.9344 45.3402 40.8512C45.2878 40.768 45.2193 40.6961 45.1386 40.64C45.0579 40.5838 44.9667 40.5445 44.8705 40.5243C44.7743 40.5042 44.675 40.5036 44.5786 40.5227C44.4822 40.5417 44.3905 40.58 44.3092 40.6352C44.2279 40.6904 44.1585 40.7615 44.1052 40.8441C44.052 40.9267 44.0159 41.0192 43.9991 41.1161Z" fill="#263238"/>
<path d="M45.2516 40.6199C45.0682 40.5494 44.8755 40.5062 44.6796 40.4919C44.4907 40.473 44.2999 40.4866 44.1156 40.5319C43.9193 40.5837 43.7319 40.6646 43.5596 40.7719C43.5596 40.7719 43.5596 40.8239 43.5596 40.8199C43.7116 40.7839 43.8436 40.7399 44.0676 40.7039C44.2801 40.6779 44.495 40.6779 44.7076 40.7039C44.9643 40.7249 45.2164 40.7842 45.4556 40.8799L45.7036 40.9759C45.7276 40.9759 45.7356 40.9319 45.7036 40.9159C45.5751 40.7868 45.4212 40.686 45.2516 40.6199Z" fill="#263238"/>
<path d="M47.3037 46.7999C47.3957 46.7039 47.2117 46.4559 47.1437 46.3999C47.0602 46.3305 46.9705 46.2689 46.8757 46.2159C46.6969 46.1112 46.5044 46.0317 46.3037 45.9799C45.891 45.8632 45.4514 45.8843 45.0517 46.0399C44.9757 46.0679 44.9957 46.1799 45.0517 46.2279C45.074 46.2614 45.1043 46.2889 45.1397 46.3079C45.1788 46.3202 45.2207 46.3202 45.2597 46.3079C45.3197 46.3079 45.3797 46.2799 45.4397 46.2719C45.5343 46.2512 45.6309 46.2404 45.7277 46.2399C45.9087 46.2366 46.0893 46.2595 46.2637 46.3079C46.4305 46.3516 46.5896 46.4204 46.7357 46.5119C46.8597 46.5879 46.9797 46.6719 47.0997 46.7559C47.1557 46.7959 47.2077 46.8439 47.2797 46.8079C47.2881 46.8067 47.2963 46.804 47.3037 46.7999Z" fill="#B16668"/>
</svg>
