<svg width="200" height="200" viewBox="0 0 200 200" fill="none" xmlns="http://www.w3.org/2000/svg">
<path d="M177.568 132.079H105.27C103.977 132.079 102.925 131.027 102.925 129.734V24.4248C102.925 23.1318 103.977 22.0801 105.27 22.0801H177.568C178.861 22.0801 179.913 23.1318 179.913 24.4248V129.734C179.913 131.027 178.861 132.079 177.568 132.079ZM105.27 22.1801C104.032 22.1801 103.025 23.1871 103.025 24.4248V129.734C103.025 130.972 104.032 131.979 105.27 131.979H177.568C178.806 131.979 179.813 130.972 179.813 129.734V24.4248C179.813 23.1871 178.806 22.1801 177.568 22.1801H105.27Z" fill="#E0E0E0"/>
<path d="M94.1971 132.079H21.8984C20.6055 132.079 19.5537 131.027 19.5537 129.734V24.4248C19.5537 23.1318 20.6055 22.0801 21.8984 22.0801H94.1971C95.49 22.0801 96.542 23.1318 96.542 24.4248V129.734C96.542 131.027 95.49 132.079 94.1971 132.079ZM21.8984 22.1801C20.6608 22.1801 19.6537 23.1871 19.6537 24.4248V129.734C19.6537 130.972 20.6608 131.979 21.8984 131.979H94.1971C95.435 131.979 96.442 130.972 96.442 129.734V24.4248C96.442 23.1871 95.435 22.1801 94.1971 22.1801H21.8984Z" fill="#E0E0E0"/>
<path d="M200 156.507H0V156.607H200V156.507Z" fill="#E0E0E0"/>
<path d="M27.0929 162.213H20.6689V162.313H27.0929V162.213Z" fill="#E0E0E0"/>
<path d="M89.5526 161.129H68.1406V161.229H89.5526V161.129Z" fill="#E0E0E0"/>
<path d="M41.9932 165.929H27.4932V166.029H41.9932V165.929Z" fill="#E0E0E0"/>
<path d="M168.617 161.077H151.341V161.177H168.617V161.077Z" fill="#E0E0E0"/>
<path d="M174.713 161.077H172.181V161.177H174.713V161.077Z" fill="#E0E0E0"/>
<path d="M148.041 163.569H126.485V163.669H148.041V163.569Z" fill="#E0E0E0"/>
<path d="M75.7753 142.237C75.527 141.039 75.0522 139.925 74.4028 138.935L75.585 137.508L73.0577 134.98L71.6298 136.162C70.6404 135.513 69.5264 135.038 68.3285 134.79L68.1551 132.949H64.581L64.4075 134.79C63.2095 135.038 62.0955 135.513 61.1063 136.162L59.6784 134.98L57.151 137.508L58.3331 138.936C57.6838 139.925 57.2091 141.039 56.9606 142.237L55.1201 142.41V145.984L56.9606 146.158C57.2091 147.356 57.6838 148.47 58.3331 149.459L57.151 150.887L59.6784 153.414L61.1063 152.232C62.0955 152.881 63.2095 153.356 64.4075 153.605L64.581 155.445H68.1551L68.3285 153.605C69.5264 153.356 70.6404 152.881 71.6298 152.232L73.0577 153.414L75.585 150.887L74.4028 149.459C75.0522 148.47 75.527 147.356 75.7753 146.158L77.6156 145.984V142.41L75.7753 142.237ZM71.2065 144.197C71.2065 146.869 69.0403 149.036 66.368 149.036C63.6957 149.036 61.5295 146.869 61.5295 144.197C61.5295 141.525 63.6957 139.359 66.368 139.359C69.0403 139.359 71.2065 141.525 71.2065 144.197Z" fill="#E0E0E0"/>
<path d="M48.5072 101.965C48.3352 101.135 48.0065 100.364 47.5569 99.6791L48.3754 98.6904L46.6255 96.9403L45.6367 97.7588C44.9517 97.3094 44.1804 96.9805 43.3508 96.8085L43.2308 95.5342H40.756L40.6359 96.8085C39.8064 96.9806 39.035 97.3094 38.35 97.7588L37.3613 96.9403L35.6113 98.6904L36.4298 99.6791C35.9802 100.364 35.6515 101.135 35.4794 101.965L34.2051 102.085V104.56L35.4794 104.68C35.6515 105.51 35.9802 106.281 36.4298 106.966L35.6113 107.954L37.3613 109.704L38.35 108.886C39.035 109.336 39.8064 109.664 40.6359 109.836L40.756 111.111H43.2308L43.3508 109.836C44.1804 109.664 44.9517 109.336 45.6367 108.886L46.6255 109.704L48.3754 107.954L47.5569 106.966C48.0065 106.281 48.3352 105.51 48.5072 104.68L49.7815 104.56V102.085L48.5072 101.965ZM45.3437 103.322C45.3437 105.173 43.8437 106.673 41.9934 106.673C40.143 106.673 38.643 105.173 38.643 103.322C38.643 101.472 40.143 99.9721 41.9934 99.9721C43.8437 99.9721 45.3437 101.472 45.3437 103.322Z" fill="#E0E0E0"/>
<path d="M113.234 36.9531C112.935 35.5079 112.362 34.1643 111.579 32.971L113.005 31.2488L109.956 28.2003L108.234 29.6259C107.041 28.8431 105.697 28.2702 104.252 27.9707L104.043 25.7507H99.7318L99.5226 27.9707C98.0776 28.2703 96.7339 28.8431 95.5408 29.6259L93.8184 28.2003L90.77 31.2488L92.1957 32.9711C91.4126 34.1643 90.84 35.5079 90.5402 36.9531L88.3203 37.1624V41.4732L90.5402 41.6825C90.84 43.1275 91.4126 44.4709 92.1957 45.6643L90.77 47.3866L93.8184 50.4351L95.5408 49.0091C96.7339 49.7924 98.0776 50.365 99.5226 50.6646L99.7318 52.8845H104.043L104.252 50.6648C105.697 50.3653 107.041 49.7924 108.234 49.0091L109.956 50.4351L113.005 47.3866L111.579 45.6644C112.362 44.4709 112.935 43.1275 113.234 41.6825L115.454 41.4732V37.1624L113.234 36.9531ZM107.724 39.3177C107.724 42.5408 105.111 45.1538 101.887 45.1538C98.664 45.1538 96.0512 42.5408 96.0512 39.3177C96.0512 36.0947 98.6641 33.4815 101.887 33.4815C105.111 33.4815 107.724 36.0945 107.724 39.3177Z" fill="#F0F0F0"/>
<path d="M126.562 27.49C126.425 26.8261 126.162 26.2088 125.802 25.6607L126.457 24.8695L125.057 23.469L124.265 24.124C123.717 23.7644 123.1 23.5012 122.436 23.3636L122.34 22.3438H120.359L120.263 23.3636C119.6 23.5012 118.982 23.7644 118.434 24.124L117.643 23.469L116.243 24.8695L116.898 25.6607C116.538 26.2088 116.275 26.8261 116.137 27.49L115.117 27.5861V29.5665L116.137 29.6626C116.275 30.3264 116.538 30.9436 116.898 31.4918L116.243 32.283L117.643 33.6835L118.434 33.0283C118.982 33.3882 119.6 33.6512 120.263 33.7889L120.359 34.8087H122.34L122.436 33.789C123.1 33.6514 123.717 33.3882 124.265 33.0283L125.057 33.6835L126.457 32.283L125.802 31.4919C126.162 30.9436 126.425 30.3264 126.562 29.6626L127.582 29.5665V27.5861L126.562 27.49ZM124.031 28.5763C124.031 30.0569 122.83 31.2573 121.35 31.2573C119.869 31.2573 118.669 30.0569 118.669 28.5763C118.669 27.0956 119.869 25.8952 121.35 25.8952C122.83 25.8952 124.031 27.0956 124.031 28.5763Z" fill="#F0F0F0"/>
<path d="M151.442 55.5969V46.6282H156.941V55.4342C156.941 57.9269 157.895 58.8583 159.433 58.8583C160.971 58.8583 161.926 57.9269 161.926 55.4342V46.6282H167.33V55.5969C167.33 60.4891 164.395 63.3083 159.386 63.3083C154.378 63.3083 151.442 60.4891 151.442 55.5969Z" fill="#F0F0F0"/>
<path d="M169.847 46.6282H175.345V62.9354H169.847V46.6282Z" fill="#F0F0F0"/>
<path d="M23.7969 38.3776V25.895H31.4484V38.1505C31.4484 41.62 32.7776 42.9163 34.9172 42.9163C37.0572 42.9163 38.3864 41.62 38.3864 38.1505V25.895H45.9083V38.3776C45.9083 45.1857 41.8233 49.1093 34.8526 49.1093C27.8819 49.1093 23.7969 45.1857 23.7969 38.3776Z" fill="#F0F0F0"/>
<path d="M63.4499 48.5903L59.5267 42.5272L55.7011 48.5903H46.9795L55.1822 37.1456L47.2713 25.895H55.863L59.7212 31.6014L63.4821 25.895H71.7175L63.8389 36.8539L72.2038 48.5903H63.4499Z" fill="#F0F0F0"/>
<path d="M153.763 74.7033C153.334 72.634 152.514 70.7102 151.392 69.0016L153.434 66.5357L149.069 62.1709L146.603 64.2121C144.895 63.0913 142.971 62.271 140.902 61.8421L140.602 58.6636H134.43L134.13 61.8421C132.061 62.2711 130.137 63.0913 128.429 64.2121L125.963 62.1709L121.598 66.5357L123.64 69.0018C122.518 70.7102 121.698 72.634 121.269 74.7033L118.091 75.0029V81.1751L121.269 81.4748C121.698 83.5438 122.518 85.4673 123.64 87.176L121.598 89.642L125.963 94.0068L128.429 91.965C130.137 93.0867 132.061 93.9064 134.13 94.3355L134.43 97.5139H140.602L140.902 94.3357C142.971 93.9069 144.895 93.0867 146.603 91.965L149.069 94.0068L153.434 89.642L151.392 87.1762C152.514 85.4673 153.334 83.5438 153.763 81.4748L156.941 81.1751V75.0029L153.763 74.7033ZM145.872 78.0889C145.872 82.7037 142.131 86.4451 137.516 86.4451C132.901 86.4451 129.16 82.7037 129.16 78.0889C129.16 73.4741 132.901 69.7326 137.516 69.7326C142.131 69.7326 145.872 73.4739 145.872 78.0889Z" fill="#263238"/>
<path opacity="0.7" d="M153.763 74.7033C153.334 72.634 152.514 70.7102 151.392 69.0016L153.434 66.5357L149.069 62.1709L146.603 64.2121C144.895 63.0913 142.971 62.271 140.902 61.8421L140.602 58.6636H134.43L134.13 61.8421C132.061 62.2711 130.137 63.0913 128.429 64.2121L125.963 62.1709L121.598 66.5357L123.64 69.0018C122.518 70.7102 121.698 72.634 121.269 74.7033L118.091 75.0029V81.1751L121.269 81.4748C121.698 83.5438 122.518 85.4673 123.64 87.176L121.598 89.642L125.963 94.0068L128.429 91.965C130.137 93.0867 132.061 93.9064 134.13 94.3355L134.43 97.5139H140.602L140.902 94.3357C142.971 93.9069 144.895 93.0867 146.603 91.965L149.069 94.0068L153.434 89.642L151.392 87.1762C152.514 85.4673 153.334 83.5438 153.763 81.4748L156.941 81.1751V75.0029L153.763 74.7033ZM145.872 78.0889C145.872 82.7037 142.131 86.4451 137.516 86.4451C132.901 86.4451 129.16 82.7037 129.16 78.0889C129.16 73.4741 132.901 69.7326 137.516 69.7326C142.131 69.7326 145.872 73.4739 145.872 78.0889Z" fill="white"/>
<path d="M180.969 81.3499C180.758 80.3304 180.354 79.3826 179.801 78.5408L180.807 77.3258L178.657 75.1753L177.442 76.181C176.6 75.6287 175.652 75.2246 174.633 75.0133L174.485 73.4473H171.444L171.296 75.0133C170.277 75.2247 169.329 75.6287 168.487 76.181L167.272 75.1753L165.122 77.3258L166.127 78.5409C165.575 79.3826 165.171 80.3304 164.96 81.3499L163.394 81.4976V84.5386L164.96 84.6863C165.171 85.7057 165.575 86.6533 166.127 87.4952L165.122 88.7102L167.272 90.8608L168.487 89.8548C169.329 90.4074 170.277 90.8113 171.296 91.0227L171.444 92.5887H174.485L174.633 91.0228C175.652 90.8115 176.6 90.4074 177.442 89.8548L178.657 90.8608L180.807 88.7102L179.801 87.4953C180.354 86.6533 180.758 85.7057 180.969 84.6863L182.535 84.5386V81.4976L180.969 81.3499ZM177.082 83.0181C177.082 85.2918 175.238 87.1351 172.964 87.1351C170.69 87.1351 168.847 85.2918 168.847 83.0181C168.847 80.7442 170.691 78.9009 172.964 78.9009C175.238 78.9009 177.082 80.7442 177.082 83.0181Z" fill="#263238"/>
<path opacity="0.8" d="M180.969 81.3499C180.758 80.3304 180.354 79.3826 179.801 78.5408L180.807 77.3258L178.657 75.1753L177.442 76.181C176.6 75.6287 175.652 75.2246 174.633 75.0133L174.485 73.4473H171.444L171.296 75.0133C170.277 75.2247 169.329 75.6287 168.487 76.181L167.272 75.1753L165.122 77.3258L166.127 78.5409C165.575 79.3826 165.171 80.3304 164.96 81.3499L163.394 81.4976V84.5386L164.96 84.6863C165.171 85.7057 165.575 86.6533 166.127 87.4952L165.122 88.7102L167.272 90.8608L168.487 89.8548C169.329 90.4074 170.277 90.8113 171.296 91.0227L171.444 92.5887H174.485L174.633 91.0228C175.652 90.8115 176.6 90.4074 177.442 89.8548L178.657 90.8608L180.807 88.7102L179.801 87.4953C180.354 86.6533 180.758 85.7057 180.969 84.6863L182.535 84.5386V81.4976L180.969 81.3499ZM177.082 83.0181C177.082 85.2918 175.238 87.1351 172.964 87.1351C170.69 87.1351 168.847 85.2918 168.847 83.0181C168.847 80.7442 170.691 78.9009 172.964 78.9009C175.238 78.9009 177.082 80.7442 177.082 83.0181Z" fill="white"/>
<path d="M75.1683 50.3136C74.926 49.1442 74.4626 48.057 73.8288 47.0914L74.9826 45.6979L72.516 43.2311L71.1223 44.3847C70.1567 43.7513 69.0694 43.2877 67.9002 43.0453L67.731 41.249H64.2426L64.0733 43.0453C62.9041 43.2878 61.8168 43.7513 60.8513 44.3847L59.4577 43.2311L56.9909 45.6979L58.1446 47.0915C57.5109 48.057 57.0476 49.1442 56.8051 50.3136L55.0088 50.483V53.9711L56.8051 54.1405C57.0476 55.3098 57.5109 56.3968 58.1446 57.3624L56.9909 58.7561L59.4577 61.2228L60.8513 60.0689C61.8168 60.7028 62.9041 61.1661 64.0733 61.4085L64.2426 63.2048H67.731L67.9002 61.4087C69.0694 61.1663 70.1567 60.7028 71.1223 60.0689L72.516 61.2228L74.9826 58.7561L73.8288 57.3626C74.4626 56.3968 74.926 55.3098 75.1683 54.1405L76.9645 53.9711V50.483L75.1683 50.3136ZM70.7092 52.227C70.7092 54.835 68.5949 56.9494 65.9867 56.9494C63.3785 56.9494 61.2643 54.835 61.2643 52.227C61.2643 49.6189 63.3786 47.5045 65.9867 47.5045C68.5949 47.5045 70.7092 49.6189 70.7092 52.227Z" fill="#263238"/>
<path opacity="0.8" d="M75.1683 50.3136C74.926 49.1442 74.4626 48.057 73.8288 47.0914L74.9826 45.6979L72.516 43.2311L71.1223 44.3847C70.1567 43.7513 69.0694 43.2877 67.9002 43.0453L67.731 41.249H64.2426L64.0733 43.0453C62.9041 43.2878 61.8168 43.7513 60.8513 44.3847L59.4577 43.2311L56.9909 45.6979L58.1446 47.0915C57.5109 48.057 57.0476 49.1442 56.8051 50.3136L55.0088 50.483V53.9711L56.8051 54.1405C57.0476 55.3098 57.5109 56.3968 58.1446 57.3624L56.9909 58.7561L59.4577 61.2228L60.8513 60.0689C61.8168 60.7028 62.9041 61.1661 64.0733 61.4085L64.2426 63.2048H67.731L67.9002 61.4087C69.0694 61.1663 70.1567 60.7028 71.1223 60.0689L72.516 61.2228L74.9826 58.7561L73.8288 57.3626C74.4626 56.3968 74.926 55.3098 75.1683 54.1405L76.9645 53.9711V50.483L75.1683 50.3136ZM70.7092 52.227C70.7092 54.835 68.5949 56.9494 65.9867 56.9494C63.3785 56.9494 61.2643 54.835 61.2643 52.227C61.2643 49.6189 63.3786 47.5045 65.9867 47.5045C68.5949 47.5045 70.7092 49.6189 70.7092 52.227Z" fill="white"/>
<path d="M147.763 46.4286C147.612 45.7005 147.324 45.0236 146.929 44.4224L147.648 43.5548L146.112 42.019L145.244 42.7372C144.643 42.3428 143.966 42.0542 143.238 41.9033L143.133 40.7849H140.961L140.856 41.9033C140.128 42.0542 139.451 42.3428 138.849 42.7372L137.982 42.019L136.446 43.5548L137.164 44.4225C136.77 45.0236 136.481 45.7005 136.33 46.4286L135.212 46.534V48.7058L136.33 48.8112C136.481 49.5392 136.77 50.216 137.164 50.8172L136.446 51.6849L137.982 53.2207L138.849 52.5022C139.451 52.8969 140.128 53.1853 140.856 53.3363L140.961 54.4547H143.133L143.238 53.3364C143.966 53.1855 144.643 52.8969 145.244 52.5022L146.112 53.2207L147.648 51.6849L146.929 50.8173C147.324 50.216 147.612 49.5392 147.763 48.8112L148.882 48.7058V46.534L147.763 46.4286ZM144.987 47.6198C144.987 49.2436 143.671 50.56 142.047 50.56C140.423 50.56 139.107 49.2436 139.107 47.6198C139.107 45.9961 140.423 44.6796 142.047 44.6796C143.671 44.6796 144.987 45.996 144.987 47.6198Z" fill="#263238"/>
<path opacity="0.8" d="M147.763 46.4286C147.612 45.7005 147.324 45.0236 146.929 44.4224L147.648 43.5548L146.112 42.019L145.244 42.7372C144.643 42.3428 143.966 42.0542 143.238 41.9033L143.133 40.7849H140.961L140.856 41.9033C140.128 42.0542 139.451 42.3428 138.849 42.7372L137.982 42.019L136.446 43.5548L137.164 44.4225C136.77 45.0236 136.481 45.7005 136.33 46.4286L135.212 46.534V48.7058L136.33 48.8112C136.481 49.5392 136.77 50.216 137.164 50.8172L136.446 51.6849L137.982 53.2207L138.849 52.5022C139.451 52.8969 140.128 53.1853 140.856 53.3363L140.961 54.4547H143.133L143.238 53.3364C143.966 53.1855 144.643 52.8969 145.244 52.5022L146.112 53.2207L147.648 51.6849L146.929 50.8173C147.324 50.216 147.612 49.5392 147.763 48.8112L148.882 48.7058V46.534L147.763 46.4286ZM144.987 47.6198C144.987 49.2436 143.671 50.56 142.047 50.56C140.423 50.56 139.107 49.2436 139.107 47.6198C139.107 45.9961 140.423 44.6796 142.047 44.6796C143.671 44.6796 144.987 45.996 144.987 47.6198Z" fill="white"/>
<path d="M187.44 180.385C187.44 183.53 150.033 186.08 103.89 186.08C57.7464 186.08 20.3398 183.53 20.3398 180.385C20.3398 177.239 57.7464 174.69 103.89 174.69C150.033 174.69 187.44 177.239 187.44 180.385Z" fill="#F5F5F5"/>
<path d="M176.405 114.412H168.109C166.168 114.412 164.595 115.986 164.595 117.926V126.223C164.595 128.163 166.168 129.736 168.109 129.736H176.405C178.346 129.736 179.919 128.163 179.919 126.223V117.926C179.919 115.986 178.346 114.412 176.405 114.412Z" fill="#407BFF"/>
<path opacity="0.5" d="M176.405 114.412H168.109C166.168 114.412 164.595 115.986 164.595 117.926V126.223C164.595 128.163 166.168 129.736 168.109 129.736H176.405C178.346 129.736 179.919 128.163 179.919 126.223V117.926C179.919 115.986 178.346 114.412 176.405 114.412Z" fill="white"/>
<path d="M170.904 123.339H168.704L168.315 124.348H166.33L168.861 118.559H170.779L173.31 124.348H171.292L170.904 123.339ZM170.366 121.934L169.804 120.478L169.241 121.934H170.366Z" fill="#407BFF"/>
<path d="M178.041 121.917V124.348H176.304V123.753C176.089 124.208 175.659 124.431 175.023 124.431C173.914 124.431 173.344 123.803 173.344 123.025C173.344 122.148 174.005 121.66 175.411 121.66H176.164C176.106 121.313 175.841 121.131 175.312 121.131C174.907 121.131 174.452 121.264 174.154 121.487L173.559 120.255C174.088 119.924 174.89 119.742 175.593 119.742C177.148 119.742 178.041 120.412 178.041 121.917ZM176.172 122.876V122.562H175.709C175.312 122.562 175.138 122.694 175.138 122.942C175.138 123.149 175.304 123.306 175.585 123.306C175.841 123.306 176.073 123.174 176.172 122.876Z" fill="#407BFF"/>
<path d="M165.902 97.1426H151.955C150.839 97.1426 149.935 98.047 149.935 99.1627V110.808C149.935 111.924 150.839 112.828 151.955 112.828H165.902C167.017 112.828 167.922 111.924 167.922 110.808V99.1627C167.922 98.047 167.017 97.1426 165.902 97.1426Z" fill="#407BFF"/>
<path opacity="0.6" d="M165.902 97.1426H151.955C150.839 97.1426 149.935 98.047 149.935 99.1627V110.808C149.935 111.924 150.839 112.828 151.955 112.828H165.902C167.017 112.828 167.922 111.924 167.922 110.808V99.1627C167.922 98.047 167.017 97.1426 165.902 97.1426Z" fill="white"/>
<path d="M163.707 104.461L159.473 107.776L156.853 106.221C156.367 105.933 155.753 105.977 155.314 106.333L149.953 110.669C149.932 111.856 150.887 112.829 152.074 112.831L165.792 112.852C166.972 112.839 167.921 111.878 167.921 110.699V105.859L165.244 104.346C164.755 104.07 164.149 104.116 163.707 104.461Z" fill="#407BFF"/>
<path d="M161.694 101.945C161.694 103.019 160.844 103.889 159.795 103.889C158.747 103.889 157.896 103.019 157.896 101.945C157.896 100.872 158.747 100.001 159.795 100.001C160.844 100.001 161.694 100.872 161.694 101.945Z" fill="#407BFF"/>
<path d="M160.851 115.833H156.036V120.648H160.851V115.833Z" fill="#407BFF"/>
<path d="M160.851 121.764H156.036V126.579H160.851V121.764Z" fill="#263238"/>
<path d="M175.371 100.915H170.557V105.73H175.371V100.915Z" fill="#407BFF"/>
<path opacity="0.8" d="M175.371 100.915H170.557V105.73H175.371V100.915Z" fill="white"/>
<path d="M44.4152 38.3096C47.3663 35.0293 52.4179 34.7624 55.6981 37.7135C58.9784 40.6646 59.2453 45.7162 56.2942 48.9965C54.0158 51.5289 50.4881 52.2568 47.4875 51.103L45.3533 52.2001L45.1141 49.676C45.0805 49.6468 45.0444 49.6223 45.0111 49.5924C41.7309 46.6414 41.4641 41.5898 44.4152 38.3096Z" fill="#407BFF"/>
<g opacity="0.3">
<path d="M44.4152 38.3096C47.3663 35.0293 52.4179 34.7624 55.6981 37.7135C58.9784 40.6646 59.2453 45.7162 56.2942 48.9965C54.0158 51.5289 50.4881 52.2568 47.4875 51.103L45.3533 52.2001L45.1141 49.676C45.0805 49.6468 45.0444 49.6223 45.0111 49.5924C41.7309 46.6414 41.4641 41.5898 44.4152 38.3096Z" fill="white"/>
</g>
<path d="M45.2077 36.1829C42.9394 37.4487 41.39 39.9173 41.2363 42.5103" stroke="#407BFF" stroke-width="0.5" stroke-linecap="round" stroke-linejoin="round"/>
<path d="M41.2081 43.7021C41.1553 44.0949 41.1848 44.4983 41.294 44.8792" stroke="#407BFF" stroke-width="0.5" stroke-linecap="round" stroke-linejoin="round"/>
<path d="M50.0569 46.8618L46.6846 43.7842L47.7585 42.6075L50.0199 44.6711L53.7774 41.002L54.8904 42.1417L50.0569 46.8618Z" fill="white"/>
<path d="M71.3762 79.2239C71.3762 79.2239 70.8733 78.2311 71.1697 77.36C71.4662 76.4889 71.4712 75.7144 71.7364 75.082C72.0015 74.4497 72.2887 75.3295 72.3467 75.8286C72.4047 76.3275 72.4755 76.8926 72.8432 76.7883C73.211 76.6842 75.5091 74.3335 76.0354 74.2472C76.5617 74.1607 76.3089 74.6572 76.3089 74.6572C76.3089 74.6572 76.8824 74.1013 77.1645 74.2685C77.2377 74.3119 77.3377 74.5318 77.1161 74.8261C76.6174 75.4881 75.4993 76.8236 75.4993 76.8236C75.5619 76.7457 77.0597 75.1958 77.3143 74.9929C77.6472 74.7278 77.9393 74.7725 78.0867 74.9705C78.2965 75.2523 76.5049 77.2372 76.4879 77.3737C76.4879 77.3737 77.4811 76.1965 77.9253 76.2866C78.3695 76.3767 77.7847 77.1518 77.1393 77.7374C76.5475 78.2742 75.5273 79.4822 74.8729 79.9695C74.0664 80.5701 73.39 80.7921 72.5646 80.3365C71.7392 79.8807 71.3762 79.2239 71.3762 79.2239Z" fill="#E9B376"/>
<path opacity="0.3" d="M76.2196 74.7156C75.7711 75.1726 75.3435 75.6501 74.9385 76.146" stroke="black" stroke-width="0.25" stroke-linecap="round" stroke-linejoin="round"/>
<path opacity="0.3" d="M76.118 77.8443C75.7004 77.1304 75.0683 76.5437 74.3252 76.1804" stroke="black" stroke-width="0.25" stroke-linecap="round" stroke-linejoin="round"/>
<path opacity="0.3" d="M72.9102 77.1956C73.1131 77.4647 73.2186 77.8057 73.203 78.1424C73.1875 78.4791 73.0511 78.8089 72.8242 79.0582" stroke="black" stroke-width="0.25" stroke-linecap="round" stroke-linejoin="round"/>
<path d="M53.0919 74.1168C53.0919 74.1168 54.8076 73.821 57.6762 76.9542C61.302 80.9144 64.2337 83.8818 64.2337 83.8818L71.9274 78.4482L73.8338 80.3316C73.8338 80.3316 66.6555 89.2481 64.8575 89.724C63.0595 90.2 62.277 89.5932 61.1136 88.6413C59.9502 87.6894 52.7053 80.3916 52.8639 80.4444C53.0225 80.4973 53.0919 74.1168 53.0919 74.1168Z" fill="#EBB373"/>
<path d="M55.4595 172.404C55.4334 172.17 54.5932 167.278 54.5932 167.278L49.9062 168.345L51.2292 173.351L54.4369 173.893L55.4595 172.404Z" fill="#EBB373"/>
<path d="M17.5162 78.8015C17.7523 78.946 26.0836 86.1696 26.1799 86.1215C26.2762 86.0733 34.8964 79.2831 35.4261 79.0423C35.9558 78.8015 38.7156 83.6173 38.4674 83.6173C38.2192 83.6173 29.987 90.8642 26.5535 91.057C23.12 91.2498 15.833 80.0536 15.833 80.0536L17.5162 78.8015Z" fill="#EBB373"/>
<path d="M89.746 162.761L86.8972 165.241L80.3799 159.576L83.2287 157.092L89.746 162.761Z" fill="#EBB373"/>
<path d="M84.3223 164.268L85.3792 163.203C85.6183 162.962 85.9615 162.86 86.2973 162.911C87.7458 163.129 87.8867 162.352 87.7609 160.901C88.1328 160.427 88.7338 160.797 88.8992 160.892L92.5863 162.97C92.8969 163.141 93.0102 163.531 92.8393 163.841C92.8089 163.897 92.7706 163.947 92.7255 163.991C91.442 165.285 90.8348 165.897 89.2373 167.507L84.3517 172.432C83.0199 173.774 81.391 172.71 81.8145 172.033C83.7319 169.001 84.747 166.515 84.7861 165.028C84.8008 164.76 84.5609 164.813 84.3223 164.268Z" fill="#263238"/>
<path d="M83.2922 166.276C83.7603 166.203 84.2197 166.082 84.6628 165.913C84.7037 165.892 84.7198 165.842 84.6987 165.801C84.6874 165.779 84.6667 165.763 84.6424 165.758C84.4202 165.683 82.446 165.057 82.0229 165.449C81.9429 165.517 81.9091 165.625 81.9357 165.727C81.9633 165.919 82.0806 166.087 82.2519 166.18C82.5796 166.322 82.9441 166.355 83.2922 166.276ZM84.3567 165.84C83.8211 166.014 82.8188 166.283 82.3549 166.023C82.2341 165.951 82.1499 165.831 82.1239 165.692C82.1095 165.65 82.123 165.603 82.1579 165.574C82.3918 165.361 83.5398 165.601 84.3567 165.84Z" fill="#407BFF"/>
<path d="M84.644 165.921C84.6638 165.924 84.6841 165.921 84.7024 165.913C84.7243 165.888 84.7294 165.853 84.7152 165.823C84.705 165.745 84.0281 163.971 83.0233 164.221C82.7752 164.288 82.7182 164.419 82.7218 164.522C82.7222 165.016 84.0131 165.781 84.6022 165.941L84.644 165.921ZM83.1444 164.353C83.7904 164.269 84.3044 165.288 84.4866 165.699C83.8374 165.458 82.8876 164.807 82.9022 164.504C82.899 164.479 82.8901 164.411 83.077 164.367L83.1444 164.353Z" fill="#407BFF"/>
<path d="M84.4111 165.824C84.8253 165.506 85.3822 165.384 85.8914 165.497" stroke="#407BFF" stroke-width="0.5" stroke-linecap="round" stroke-linejoin="round"/>
<path d="M84.252 166.98C84.6661 166.663 85.223 166.54 85.7323 166.654" stroke="#407BFF" stroke-width="0.5" stroke-linecap="round" stroke-linejoin="round"/>
<path d="M83.8545 168.22C84.2686 167.902 84.8256 167.78 85.3348 167.893" stroke="#407BFF" stroke-width="0.5" stroke-linecap="round" stroke-linejoin="round"/>
<path d="M35.0292 177.011C38.1644 176.61 40.3286 173.333 39.8632 169.691C39.3977 166.049 36.4789 163.421 33.3437 163.822C30.2085 164.223 28.0443 167.5 28.5097 171.142C28.9752 174.784 31.8941 177.412 35.0292 177.011Z" fill="#407BFF"/>
<path d="M15.7422 71.3325L19.5446 58.9985L27.0874 69.8828L39.7826 169.229L28.4374 170.678L15.7422 71.3325Z" fill="#407BFF"/>
<path d="M21.5402 61.8696C20.6371 62.7719 19.6383 62.9077 18.5372 62.2615L15.7422 71.3325C15.7422 71.3325 17.0473 73.7629 18.5667 71.1459C18.5667 71.1459 20.3015 73.3166 21.8018 70.7325C21.8018 70.7325 23.4292 72.4296 24.6239 70.3719C24.6239 70.3719 26.0272 71.7088 27.0874 69.8827L21.5402 61.8696Z" fill="#B97964"/>
<path opacity="0.3" d="M21.8428 70.7405L35.1811 169.955L37.8222 169.617C38.2267 169.441 24.6649 70.3799 24.6649 70.3799C23.4702 72.4376 21.8428 70.7405 21.8428 70.7405Z" fill="white"/>
<path opacity="0.3" d="M18.5798 71.1792C17.742 72.6222 16.9699 72.5299 16.4453 72.1573L29.6904 170.678L32.3316 170.341C32.7167 170.172 20.4406 80.3608 19.2646 71.7641C18.8484 71.514 18.5798 71.1792 18.5798 71.1792Z" fill="white"/>
<path d="M28.3017 171.956L40.3184 170.421L40.0706 168.482L28.0539 170.017L28.3017 171.956Z" fill="#263238"/>
<path d="M17.2275 80.04C17.2275 80.04 19.4458 78.894 19.6241 78.2293C19.8024 77.5644 18.8443 77.7811 18.8443 77.7811C18.8443 77.7811 19.8838 77.478 19.8147 77.0192C19.7319 76.4686 18.7292 76.7001 18.7292 76.7001C18.7292 76.7001 19.5678 76.4178 19.4791 76.0139C19.3869 75.5948 18.2366 75.7756 18.2366 75.7756C18.2366 75.7756 18.7895 75.4652 18.5689 75.2193C18.3483 74.9734 15.8995 75.31 15.2629 75.891C14.6263 76.4721 15.1551 79.6062 15.4315 80.257C15.5109 80.4438 15.7019 80.7382 16.6247 80.869C16.8181 80.8965 17.0038 80.7709 17.0471 80.5804L17.1621 80.0748L17.2275 80.04Z" fill="#EBB373"/>
<path opacity="0.2" d="M18.8334 77.7303L18.8291 77.7315L17.0422 78.3467C17.0183 78.3551 17.0058 78.384 17.0145 78.4113C17.0233 78.4386 17.0508 78.4543 17.0737 78.446L18.8606 77.8307C18.8845 77.8224 18.897 77.7934 18.8883 77.7662C18.8801 77.7403 18.8561 77.7251 18.8334 77.7303Z" fill="black"/>
<path opacity="0.2" d="M18.6652 76.6612L18.6641 76.6614L16.9008 77.1159C16.8762 77.1223 16.862 77.15 16.869 77.1777C16.876 77.2058 16.8969 77.2194 16.9262 77.2169L18.6895 76.7625C18.714 76.7561 18.7282 76.7284 18.7213 76.7006C18.7144 76.673 18.6895 76.6557 18.6652 76.6612Z" fill="black"/>
<path opacity="0.2" d="M18.1641 75.7386L16.8442 76.0388C16.8195 76.0444 16.8047 76.0718 16.8111 76.0998C16.8174 76.1277 16.8425 76.146 16.8673 76.1404L18.1873 75.8402C18.2121 75.8346 18.2268 75.8072 18.2205 75.7792C18.2141 75.7512 18.1889 75.733 18.1641 75.7386Z" fill="black"/>
<path d="M50.646 171.986H52.1467C52.4863 171.986 52.8004 172.158 53.001 172.432C53.8664 173.614 54.5168 173.167 55.4581 172.056C56.0565 171.986 56.2176 172.673 56.2664 172.858L57.3883 176.938C57.4857 177.279 57.2885 177.634 56.9477 177.732C56.8871 177.749 56.8243 177.758 56.7612 177.757H44.8716C42.9805 177.757 42.5887 175.851 43.3676 175.675C46.8703 174.901 49.3506 173.87 50.4333 172.851C50.634 172.672 50.4278 172.539 50.646 171.986Z" fill="#263238"/>
<path d="M48.4953 172.669C48.8767 172.95 49.2864 173.191 49.7178 173.387C49.7615 173.401 49.8085 173.377 49.8227 173.333C49.8304 173.31 49.8271 173.284 49.8138 173.263C49.7102 173.052 48.7642 171.21 48.1884 171.185C48.0835 171.177 47.983 171.229 47.9296 171.319C47.8123 171.475 47.7756 171.676 47.8309 171.863C47.9608 172.195 48.1936 172.478 48.4953 172.669ZM49.5544 173.118C49.0538 172.86 48.1566 172.338 48.0147 171.825C47.9806 171.689 48.0068 171.544 48.0866 171.429C48.1067 171.388 48.1496 171.365 48.1944 171.37C48.5106 171.385 49.1487 172.369 49.5544 173.118Z" fill="#407BFF"/>
<path d="M49.6994 173.379C49.7111 173.395 49.7272 173.407 49.7459 173.415C49.779 173.413 49.8079 173.391 49.8192 173.36C49.8672 173.298 50.6499 171.568 49.7647 171.031C49.5423 170.902 49.4092 170.954 49.3385 171.029C48.988 171.377 49.3542 172.832 49.6555 173.363L49.6994 173.379ZM49.756 171.21C50.271 171.609 49.9091 172.692 49.7457 173.111C49.4597 172.48 49.2531 171.347 49.4787 171.144C49.4937 171.124 49.5357 171.07 49.6988 171.172L49.756 171.21Z" fill="#407BFF"/>
<path d="M49.6045 173.144C50.1214 173.215 50.6009 173.524 50.8789 173.965" stroke="#407BFF" stroke-width="0.5" stroke-linecap="round" stroke-linejoin="round"/>
<path d="M48.6719 173.846C49.1888 173.917 49.6683 174.226 49.9463 174.667" stroke="#407BFF" stroke-width="0.5" stroke-linecap="round" stroke-linejoin="round"/>
<path d="M47.5107 174.437C48.0277 174.507 48.5071 174.816 48.7852 175.257" stroke="#407BFF" stroke-width="0.5" stroke-linecap="round" stroke-linejoin="round"/>
<path d="M39.3392 77.0263C39.3392 77.0263 36.6862 82.9499 37.0156 85.2728C37.4556 88.3758 40.1257 92.2562 42.7153 98.1562L57.2521 95.9035C55.4867 90.0233 54.149 86.7374 53.1028 73.7C50.9508 73.6983 49.9566 73.7975 47.829 74.2533C45.5616 74.7101 43.3294 75.3271 41.1493 76.0998C38.3451 77.1346 39.3392 77.0263 39.3392 77.0263Z" fill="#263238"/>
<path d="M52.2354 73.9024C52.2354 73.9024 53.1724 73.3424 54.6502 74.0774C56.1279 74.8124 60.4502 79.0841 60.4502 79.0841C60.4502 79.0841 55.2938 85.5044 55.218 85.5044C55.1422 85.5044 52.387 81.7634 52.387 81.7634L52.2354 73.9024Z" fill="#263238"/>
<path d="M37.2546 84.044L33.7314 79.9226C33.7314 79.9226 38.0523 77.031 39.282 76.5656C40.5118 76.1003 41.1497 76.0996 41.1497 76.0996L37.2546 84.044Z" fill="#263238"/>
<path d="M42.7159 98.1562C40.2172 106.703 40.8668 126.405 43.1303 140.616C44.7545 153.455 48.6476 169.673 48.6476 169.673L56.4694 168.447C56.4694 168.447 53.852 147.422 53.2229 138.457C52.3707 126.104 52.3201 96.6679 52.3201 96.6679L41.9492 96.4028L42.7159 98.1562Z" fill="#407BFF"/>
<path d="M42.0244 96.4029C42.0244 96.4029 47.1956 101.993 51.0072 110.067C54.9768 118.476 57.6492 129.512 60.5765 136.306C65.2109 147.065 82.1618 162.096 82.1618 162.096L86.1672 158.772C86.1672 158.772 74.0577 141.639 70.8517 134.342C60.5847 110.984 63.6323 101.09 57.2529 95.871L56.6511 93.8567L42.0244 96.4029Z" fill="#407BFF"/>
<path d="M36.8908 61.8767C36.9154 61.8687 36.9367 61.8529 36.9515 61.8318C36.9802 61.779 36.9613 61.7129 36.909 61.6831C35.7899 60.8739 35.4527 59.3557 36.1242 58.1489C37.2467 55.9672 40.0729 56.7401 40.102 56.7456C40.1574 56.7711 40.223 56.7469 40.2485 56.6915C40.274 56.636 40.2498 56.5705 40.1944 56.5449C40.1839 56.5402 40.1728 56.537 40.1615 56.5356C40.136 56.5429 37.1308 55.7062 35.9257 58.0494C35.2225 59.3561 35.587 60.9811 36.781 61.8622C36.8133 61.8841 36.854 61.8895 36.8908 61.8767Z" fill="#263238"/>
<path d="M37.1016 61.9545C37.137 61.9441 37.1653 61.9171 37.1775 61.8823C37.1942 61.8253 37.1628 61.7652 37.1065 61.7463C37.1065 61.7463 35.7817 61.3071 35.3708 60.3355C35.1751 59.8275 35.2183 59.2583 35.4884 58.7856C35.519 58.7329 35.501 58.6653 35.4483 58.6347L35.4447 58.6327C35.3903 58.6039 35.3228 58.6232 35.2918 58.6764C34.9922 59.2071 34.9466 59.8441 35.1675 60.4121C35.6191 61.4777 36.9784 61.9254 37.0391 61.9448C37.0584 61.9546 37.0803 61.958 37.1016 61.9545Z" fill="#263238"/>
<path d="M49.6703 69.5234C50.4923 69.3623 51.1897 68.8222 51.5515 68.0668C51.5802 68.014 51.5613 67.9478 51.509 67.9181C51.4587 67.8881 51.3936 67.9044 51.3635 67.9547L51.3603 67.9606C50.611 69.8565 46.8521 69.5017 46.8145 69.4986C46.7539 69.4913 46.6989 69.5345 46.6916 69.5951L46.6913 69.5982C46.684 69.6562 46.7253 69.7092 46.7833 69.7165L46.7896 69.7171C47.7539 69.8138 48.7276 69.7483 49.6703 69.5234Z" fill="#263238"/>
<path d="M64.7888 63.2463C64.0478 63.6258 63.2051 63.8043 62.3738 63.7578C63.4911 62.7694 63.9234 61.0776 63.417 59.6744C61.4904 61.1218 58.6772 61.2652 56.6133 60.0212C55.0876 59.1016 53.9662 57.5182 52.2823 56.937C50.8214 56.4327 47.7873 56.534 47.3916 58.6939L48.0463 60.2875C49.1671 59.7918 50.9102 61.5033 51.5256 62.5632C52.1408 63.6231 52.222 64.8969 52.3454 66.1162C52.4686 67.3355 52.6804 68.6224 53.4809 69.5505C54.1754 70.3558 55.2387 70.7779 56.2979 70.8717C57.3572 70.9654 58.4209 70.76 59.4471 70.4813C59.8696 70.3666 60.3091 70.2271 60.6106 69.9097C60.9121 69.5923 61.0126 69.0415 60.7112 68.7239C59.9734 68.8396 59.1977 68.6974 58.5489 68.3274C60.1025 68.4539 61.7389 68.1907 63.0112 67.2902C64.2835 66.3898 65.1072 64.7721 64.7888 63.2463Z" fill="#263238"/>
<path d="M36.7439 62.7185C35.8981 60.6751 36.7028 58.3215 38.6227 57.2238C39.8925 56.4069 41.5904 56.2986 43.2151 56.4817C46.7588 56.8809 49.5071 59.8009 49.7385 63.3595C49.9287 66.2854 49.1058 69.4547 44.9882 70.2823C36.8607 71.9161 36.7439 62.7185 36.7439 62.7185Z" fill="#263238"/>
<path d="M48.4065 74.1699C48.4065 74.1699 47.1386 75.3968 45.5249 77.1428C45.1887 77.5065 44.81 77.8311 44.4017 78.1114C43.3002 78.8678 42.2719 79.346 41.918 78.8136C41.8395 78.6967 41.7746 78.5677 41.7219 78.4307C41.3682 77.512 41.3174 76.1697 42.0132 75.4736C42.7977 74.6885 43.1467 74.0536 42.8852 73.1417C42.7436 72.624 42.4908 72.1017 42.2077 71.5987L43.1359 70.887L46.2783 66.8987C46.1225 69.1423 46.3882 73.0841 48.4065 74.1699Z" fill="#EBB373"/>
<path opacity="0.2" d="M42.9379 73.3425C43.8485 72.6515 44.8054 71.5239 44.546 70.3896C44.4336 69.9124 44.2771 69.4659 44.1277 69.1853L42.4434 72.0375C42.6544 72.4423 42.7459 72.7153 42.9379 73.3425Z" fill="black"/>
<path d="M46.5062 62.7801C46.5877 66.4666 46.6996 68.0212 45.0349 70.1487C42.5309 73.349 38.0638 72.8776 36.9016 69.3466C35.8555 66.1687 35.8979 60.674 39.3049 58.7325C42.6615 56.8197 46.4246 59.0936 46.5062 62.7801Z" fill="#EBB373"/>
<path d="M41.7248 64.5365C41.7508 64.9246 41.5779 65.2654 41.3385 65.2976C41.0992 65.33 40.8841 65.0416 40.8581 64.6535C40.8319 64.2655 41.0049 63.9247 41.2442 63.8924C41.4836 63.86 41.6987 64.1484 41.7248 64.5365Z" fill="#263238"/>
<path d="M38.0169 64.9396C38.0414 65.3158 37.8678 65.6468 37.6292 65.6791C37.3905 65.7113 37.1772 65.4326 37.1527 65.0564C37.1282 64.6803 37.3019 64.3492 37.5405 64.317C37.7791 64.2847 37.9924 64.5635 38.0169 64.9396Z" fill="#263238"/>
<path d="M42.524 63.0751C42.4781 63.0856 42.4294 63.0774 42.3895 63.0483C41.7682 62.5919 41.1561 62.8467 41.149 62.8497C41.0583 62.8877 40.9574 62.8454 40.925 62.7522C40.8929 62.659 40.941 62.5518 41.0327 62.5122C41.0647 62.4987 41.8327 62.178 42.6038 62.7446C42.6806 62.8011 42.695 62.915 42.636 62.9988C42.6073 63.0391 42.5669 63.0653 42.524 63.0751Z" fill="#263238"/>
<path d="M36.8974 63.2125C36.8593 63.2044 36.8255 63.1805 36.8049 63.1423C36.7623 63.0634 36.7909 62.9539 36.8687 62.8977C37.6492 62.3339 38.308 62.6198 38.3358 62.6326C38.4142 62.6678 38.4437 62.7694 38.4016 62.8596C38.3598 62.9496 38.2624 62.994 38.1841 62.9593C38.1585 62.9477 37.6439 62.7345 37.0233 63.183C36.9832 63.212 36.9378 63.2212 36.8974 63.2125Z" fill="#263238"/>
<path d="M39.2753 64.616C39.2753 64.616 38.8602 66.0467 38.3133 66.9714C38.2177 67.133 38.3121 67.3423 38.4945 67.3868C38.9639 67.5012 39.474 67.2911 39.474 67.2911L39.2753 64.616Z" fill="#E4873E"/>
<path d="M41.3834 63.8927L40.5234 63.7903C40.5234 63.7903 41.0525 64.3625 41.3834 63.8927Z" fill="#263238"/>
<path d="M37.6676 64.3161L36.8076 64.2136C36.8076 64.2136 37.3367 64.7859 37.6676 64.3161Z" fill="#263238"/>
<path d="M44.1086 63.5774C44.1086 63.5774 42.412 61.1907 43.4534 59.1487C43.4534 59.1487 36.5249 58.0096 36.3211 64.6622C36.3211 64.6622 34.9311 58.5828 41.0531 57.2906C47.1751 55.9983 48.8316 64.9954 46.156 68.2642C46.1543 68.2736 45.4691 65.231 44.1086 63.5774Z" fill="#263238"/>
<path d="M47.9485 65.6278C47.6029 66.4252 46.9561 66.9749 46.3324 67.2091C45.3943 67.5613 44.7187 66.0654 44.9381 65.0603C45.1356 64.1555 46.0188 63.4709 46.9803 63.5537C47.9276 63.6353 48.3438 64.7161 47.9485 65.6278Z" fill="#EBB373"/>
<path opacity="0.2" d="M45.8852 65.6659C45.8688 65.3178 45.9956 64.965 46.23 64.707C46.4642 64.4489 46.803 64.2886 47.1511 64.2712" stroke="black" stroke-width="0.5" stroke-linecap="round" stroke-linejoin="round"/>
<path d="M39.3555 68.4919C39.6292 68.8473 39.8774 69.2216 40.0983 69.6121L40.3277 69.5465C41.3344 69.1623 41.6712 68.6526 41.7501 68.2211C41.7812 68.0016 41.7583 67.7779 41.6833 67.5693C41.6451 67.4493 41.5907 67.3349 41.5218 67.2295C41.0065 67.743 40.3858 68.1383 39.7025 68.3881C39.4889 68.4445 39.3555 68.4919 39.3555 68.4919Z" fill="#263238"/>
<path d="M39.6934 68.3542L39.924 68.6788C40.8682 68.3171 41.489 67.9329 41.6741 67.5354C41.6359 67.4154 41.5816 67.301 41.5126 67.1956C40.9973 67.709 40.3766 68.1044 39.6934 68.3542Z" fill="white"/>
<path d="M40.3232 69.5295C41.33 69.1453 41.6668 68.6356 41.7456 68.2041C41.3654 68.3567 41.0158 68.5764 40.7134 68.8529C40.5165 69.0327 40.3802 69.2691 40.3232 69.5295Z" fill="#C15854"/>
<path d="M77.6525 38.8552H122.347C128.575 38.8552 133.631 43.9116 133.631 50.1396V166.744C133.631 171.489 129.779 175.342 125.033 175.342H73.6934C69.6505 175.342 66.3682 172.06 66.3682 168.017V50.1396C66.3682 43.9116 71.4245 38.8552 77.6525 38.8552Z" fill="#407BFF"/>
<path d="M122.645 42.0652H77.3556C72.7879 42.0652 69.085 45.7681 69.085 50.3358V163.861C69.085 168.429 72.7879 172.132 77.3556 172.132H122.645C127.212 172.132 130.915 168.429 130.915 163.861V50.3358C130.915 45.7681 127.212 42.0652 122.645 42.0652Z" fill="white"/>
<path d="M111.749 48.1306H86.3105V49.7209H111.749V48.1306Z" stroke="#407BFF" stroke-miterlimit="10"/>
<path d="M121.349 47.189C121.349 47.5287 121.077 47.804 120.741 47.804C120.404 47.804 120.132 47.5287 120.132 47.189C120.132 46.8493 120.404 46.574 120.741 46.574C121.077 46.574 121.349 46.8493 121.349 47.189Z" fill="#407BFF"/>
<path d="M121.349 48.7537C121.349 49.0934 121.077 49.3687 120.741 49.3687C120.404 49.3687 120.132 49.0934 120.132 48.7537C120.132 48.414 120.404 48.1387 120.741 48.1387C121.077 48.1387 121.349 48.414 121.349 48.7537Z" fill="#407BFF"/>
<path d="M121.349 50.3184C121.349 50.658 121.077 50.9334 120.741 50.9334C120.404 50.9334 120.132 50.658 120.132 50.3184C120.132 49.9787 120.404 49.7034 120.741 49.7034C121.077 49.7034 121.349 49.9787 121.349 50.3184Z" fill="#407BFF"/>
<path d="M79.2616 47.6196L78.0957 48.7394L79.2616 49.8875" stroke="#407BFF" stroke-linecap="round" stroke-linejoin="round"/>
<path d="M125.935 59.5757H74.2549V68.709H125.935V59.5757Z" stroke="#407BFF" stroke-miterlimit="10"/>
<path d="M69.0654 54.9683H131.193" stroke="#407BFF" stroke-miterlimit="10"/>
<path d="M125.935 73.093H74.2549V99.2184H125.935V73.093Z" stroke="#407BFF" stroke-miterlimit="10"/>
<path d="M74.2549 99.2184L90.5276 86.0954C91.1084 85.6271 91.9171 85.5754 92.5516 85.9662L101.023 91.183L112.091 82.6319C112.737 82.1325 113.623 82.0912 114.312 82.5282L125.935 89.8988" stroke="#407BFF" stroke-miterlimit="10"/>
<path d="M100.7 84.0433C102.487 84.0433 103.936 82.5793 103.936 80.7734C103.936 78.9674 102.487 77.5034 100.7 77.5034C98.912 77.5034 97.4629 78.9674 97.4629 80.7734C97.4629 82.5793 98.912 84.0433 100.7 84.0433Z" stroke="#407BFF" stroke-miterlimit="10"/>
<path d="M85.7441 103.156H74.2549V105.813H85.7441V103.156Z" stroke="#407BFF" stroke-miterlimit="10"/>
<path d="M125.935 108.912H74.2549V110.683H125.935V108.912Z" stroke="#407BFF" stroke-miterlimit="10"/>
<path d="M125.935 112.896H74.2549V114.667H125.935V112.896Z" stroke="#407BFF" stroke-miterlimit="10"/>
<path d="M97.2924 116.881H74.2549V118.652H97.2924V116.881Z" stroke="#407BFF" stroke-miterlimit="10"/>
<path d="M125.935 149.311H74.2549V151.081H125.935V149.311Z" stroke="#407BFF" stroke-miterlimit="10"/>
<path d="M125.935 153.295H74.2549V155.066H125.935V153.295Z" stroke="#407BFF" stroke-miterlimit="10"/>
<path d="M97.2924 157.28H74.2549V159.05H97.2924V157.28Z" stroke="#407BFF" stroke-miterlimit="10"/>
<path d="M96.0708 122.684H74.2432V144.736H96.0708V122.684Z" stroke="#407BFF" stroke-miterlimit="10"/>
<path d="M74.2432 144.736L96.0708 122.684" stroke="#407BFF" stroke-miterlimit="10"/>
<path d="M95.9996 144.736L74.1719 122.684" stroke="#407BFF" stroke-miterlimit="10"/>
<path d="M124.895 122.884H103.067V144.936H124.895V122.884Z" stroke="#407BFF" stroke-miterlimit="10"/>
<path d="M103.067 144.936L124.895 122.884" stroke="#407BFF" stroke-miterlimit="10"/>
<path d="M124.824 144.936L102.996 122.884" stroke="#407BFF" stroke-miterlimit="10"/>
<path opacity="0.2" d="M139.019 160.52C139.019 160.52 174.924 153.217 176.401 160.694C178.509 171.367 152.571 177.741 138.881 176.9C125.191 176.06 139.019 160.52 139.019 160.52Z" fill="black"/>
<path opacity="0.2" d="M164.633 162.641L147.574 172.789L149.715 176.031C149.715 176.031 148.487 177.741 146.403 172.316L156.966 165.773C156.966 165.773 153.733 165.352 153.829 164.847C153.991 164.019 161.162 162.645 164.432 162.027C164.601 161.972 164.784 162.064 164.839 162.233C164.895 162.403 164.803 162.585 164.633 162.641Z" fill="black"/>
<path opacity="0.2" d="M147.001 171.572L149.767 176.365C146.166 176.885 142.52 177.064 138.881 176.9C137.684 176.857 136.505 176.608 135.4 176.163L134.435 174.267L136.762 169.912L147.001 171.572Z" fill="black"/>
<path d="M152.601 169.864L145.014 174.368L146.242 178.022L155.103 174.35L152.601 169.864Z" fill="#895555"/>
<path d="M140.878 175.458L141.532 178.079C141.532 178.079 142.078 178.211 142.233 178.763C142.32 179.073 142.069 179.914 142.069 179.914L143.815 187.136C143.825 187.134 144.31 187.018 144.505 186.886C144.742 186.725 144.936 186.559 145.093 186.389C145.639 185.793 145.724 184.909 145.763 184.254C145.828 183.156 146.555 179.963 146.555 179.963C146.555 179.963 146.82 179.133 147.726 178.422C148.23 178.026 148.473 177.514 148.437 177.191C148.363 176.533 147.9 176.273 147.285 176.329L146.571 176.395C146.073 176.001 145.936 175.356 146.276 174.748C146.276 174.748 146.743 173.2 146.081 173.443C145.703 173.582 144.037 174.267 142.705 174.769C142.395 174.886 142.101 174.996 141.843 175.093L141.843 175.094C141.271 175.309 140.878 175.458 140.878 175.458Z" fill="#263238"/>
<path d="M146.229 181.667C146.25 181.628 146.241 181.577 146.208 181.545C146.059 181.4 145.872 181.293 145.659 181.241C145.546 181.214 145.489 181.395 145.603 181.422C145.792 181.467 145.957 181.561 146.088 181.688C146.132 181.73 146.199 181.722 146.228 181.669L146.229 181.667Z" fill="#407BFF"/>
<path d="M146.394 181.038C146.415 180.998 146.406 180.947 146.373 180.916C146.224 180.77 146.037 180.663 145.824 180.611C145.711 180.584 145.654 180.765 145.768 180.792C145.957 180.837 146.122 180.931 146.253 181.058C146.297 181.101 146.364 181.093 146.393 181.039L146.394 181.038Z" fill="#407BFF"/>
<path d="M146.535 180.395C146.556 180.356 146.547 180.305 146.514 180.273C146.364 180.127 146.178 180.02 145.964 179.969C145.852 179.942 145.795 180.122 145.909 180.15C146.098 180.195 146.263 180.288 146.394 180.416C146.438 180.458 146.505 180.45 146.534 180.397L146.535 180.395Z" fill="#407BFF"/>
<path opacity="0.2" d="M141.843 175.093L141.843 175.094C141.271 175.309 140.878 175.458 140.878 175.458L141.532 178.079C141.532 178.079 142.078 178.211 142.233 178.763C142.32 179.074 142.069 179.914 142.069 179.914L143.815 187.136C143.825 187.134 144.31 187.018 144.505 186.886C144.614 186.812 144.711 186.737 144.803 186.661L141.987 175.039C141.94 175.057 141.888 175.076 141.843 175.093Z" fill="white"/>
<path d="M146.436 180.349C146.681 180.266 146.928 180.183 147.183 180.145C147.439 180.107 147.707 180.115 147.948 180.211C148.059 180.255 148.174 180.332 148.195 180.451C148.218 180.575 148.125 180.693 148.02 180.763C147.818 180.899 147.557 180.926 147.319 180.873C147.082 180.821 146.629 180.496 146.436 180.349Z" stroke="#407BFF" stroke-width="0.25" stroke-miterlimit="10"/>
<path d="M146.428 180.318C146.635 180.163 146.844 180.008 147.021 179.819C147.198 179.63 147.344 179.405 147.402 179.153C147.429 179.036 147.431 178.897 147.345 178.813C147.256 178.724 147.106 178.733 146.989 178.779C146.762 178.868 146.591 179.068 146.499 179.293C146.407 179.518 146.417 180.075 146.428 180.318Z" stroke="#407BFF" stroke-width="0.25" stroke-miterlimit="10"/>
<path d="M154.421 138.266C154.421 138.266 155.382 149.898 155.711 150.53C156.826 152.669 164.516 156.505 164.516 156.505L168.516 155.789L171.294 158.252L169.373 159.668L167.193 158.77C165.985 158.949 164.762 159.02 163.541 158.982C161.487 158.922 151.255 156.362 149.684 153.553C148.113 150.744 148.135 137.695 148.135 137.695L154.421 138.266Z" fill="#895555"/>
<path d="M147.82 142.633C147.82 142.633 145.066 132.361 148.955 129.647C152.845 126.933 155.459 141.02 155.459 141.02L147.82 142.633Z" fill="#407BFF"/>
<path opacity="0.5" d="M147.82 142.633C147.82 142.633 145.066 132.361 148.955 129.647C152.845 126.933 155.459 141.02 155.459 141.02L147.82 142.633Z" fill="white"/>
<path d="M149.682 161.327L150.05 147.831L150.305 129.345L142.383 127.381L136.834 127.328L127.45 130.25L127.132 134.779C127.132 134.779 127.422 155.624 127.352 156.25C127.268 157.018 124.886 161.781 124.886 161.781C134.794 164.348 149.819 162.019 149.682 161.327Z" fill="#407BFF"/>
<path opacity="0.2" d="M150.105 142.15L150.239 134.1L151.655 141.823L150.105 142.15Z" fill="black"/>
<path opacity="0.2" d="M133.188 142.921C133.435 142.88 134.443 142.582 134.443 142.582L132.153 134.739L135.697 143.356L133.389 144.197L133.188 142.921Z" fill="black"/>
<path d="M132.307 136.512C132.307 136.512 133.862 149.44 134.944 150.677C136.772 152.765 145.965 158.436 145.965 158.436L150.681 156.937C151.012 156.839 151.372 156.908 151.633 157.12L154.753 159.65L154.44 159.898C154.306 160.005 154.114 160.022 153.961 159.941L153.473 159.679L154.011 160.239L153.831 160.382C153.652 160.524 153.408 160.57 153.186 160.503L151.77 160.079L153.061 160.994C152.76 161.233 152.348 161.307 151.975 161.189L149.905 160.532C148.472 160.816 147.015 160.981 145.552 161.025C143.089 161.104 131.599 156.706 129.523 153.672C127.447 150.639 125.579 138.241 125.579 138.241L132.307 136.512Z" fill="#895555"/>
<path d="M125.878 144.893C125.878 144.893 123.329 133.142 127.218 130.428C131.108 127.714 134.443 142.582 134.443 142.582L125.878 144.893Z" fill="#407BFF"/>
<path opacity="0.5" d="M125.878 144.893C125.878 144.893 123.329 133.142 127.218 130.428C131.108 127.714 134.443 142.582 134.443 142.582L125.878 144.893Z" fill="white"/>
<path d="M156.594 160.638L149.415 160.426L141.796 160.202L141.796 160.207C141.783 160.772 142.401 161.246 143.175 161.267L150.787 161.491L155.141 161.619L155.161 161.62L155.163 161.62L167.28 161.977C168.049 161.994 168.68 161.555 168.693 160.995L156.594 160.638Z" fill="#263238"/>
<path d="M167.504 161.926L153.985 161.527C153.752 161.519 153.569 161.36 153.576 161.173C153.578 161.138 153.586 161.103 153.601 161.07L160.021 147.46C160.185 147.071 160.645 146.815 161.159 146.828L174.686 147.227C174.915 147.234 175.096 147.388 175.09 147.572C175.089 147.61 175.08 147.648 175.062 147.684L168.642 161.294C168.476 161.682 168.017 161.937 167.504 161.926Z" fill="#263238"/>
<path opacity="0.7" d="M174.686 147.227L161.159 146.828C160.645 146.815 160.184 147.071 160.021 147.46L153.843 160.557L149.415 160.427L141.796 160.202L141.796 160.207C141.783 160.772 142.401 161.246 143.175 161.267L150.787 161.491L155.141 161.619L155.161 161.62L155.163 161.62L167.28 161.977C167.524 161.983 167.75 161.938 167.951 161.863C168.269 161.766 168.527 161.563 168.642 161.294L175.062 147.684C175.079 147.648 175.089 147.61 175.09 147.572C175.095 147.388 174.914 147.234 174.686 147.227Z" fill="white"/>
<path d="M166.345 154.328C166.034 154.981 165.428 155.418 164.989 155.312C164.55 155.207 164.451 154.6 164.754 153.945C165.057 153.29 165.669 152.864 166.108 152.969C166.546 153.075 166.661 153.658 166.345 154.328Z" fill="white"/>
<g opacity="0.3">
<path d="M160.021 147.46L153.843 160.557L154.469 160.576L161.159 146.828C160.645 146.815 160.184 147.071 160.021 147.46Z" fill="black"/>
</g>
<path d="M159.878 176.041L168.544 177.699L170.047 174.149L160.979 171.024L159.878 176.041Z" fill="#895555"/>
<path d="M172.363 179.625L173.611 177.228C173.611 177.228 173.29 176.768 173.54 176.252C173.681 175.962 174.426 175.499 174.426 175.499L177.907 168.934C177.897 168.929 177.458 168.695 177.224 168.664C176.94 168.627 176.684 168.624 176.455 168.647C175.65 168.73 175.001 169.336 174.537 169.801C173.76 170.58 171.1 172.488 171.1 172.488C171.1 172.488 170.351 172.933 169.202 172.865C168.561 172.828 168.04 173.05 167.853 173.316C167.472 173.857 167.647 174.359 168.144 174.725L168.722 175.149C168.834 175.774 168.509 176.348 167.851 176.577C167.851 176.577 166.475 177.427 167.132 177.684C167.507 177.83 169.208 178.422 170.538 178.929C170.848 179.047 171.142 179.159 171.399 179.258L171.399 179.257C171.97 179.475 172.363 179.625 172.363 179.625Z" fill="#263238"/>
<path d="M172.473 171.428C172.431 171.444 172.404 171.488 172.408 171.533C172.423 171.741 172.492 171.945 172.617 172.125C172.684 172.22 172.846 172.123 172.779 172.027C172.667 171.867 172.606 171.688 172.592 171.506C172.587 171.445 172.531 171.407 172.475 171.427L172.473 171.428Z" fill="#407BFF"/>
<path d="M171.932 171.79C171.89 171.806 171.863 171.85 171.867 171.895C171.882 172.103 171.951 172.307 172.076 172.487C172.143 172.582 172.305 172.485 172.238 172.389C172.126 172.229 172.065 172.05 172.051 171.868C172.046 171.807 171.99 171.769 171.934 171.789L171.932 171.79Z" fill="#407BFF"/>
<path d="M171.401 172.178C171.358 172.193 171.332 172.237 171.335 172.283C171.351 172.491 171.419 172.695 171.545 172.875C171.611 172.97 171.774 172.872 171.707 172.777C171.595 172.617 171.533 172.438 171.52 172.256C171.515 172.195 171.459 172.156 171.403 172.177L171.401 172.178Z" fill="#407BFF"/>
<path opacity="0.2" d="M173.54 176.252C173.68 175.962 174.425 175.499 174.425 175.499L177.906 168.934C177.896 168.929 177.457 168.694 177.224 168.664C177.093 168.647 176.97 168.639 176.851 168.635L171.255 179.203C171.302 179.221 171.353 179.24 171.398 179.258L171.399 179.257C171.97 179.475 172.363 179.625 172.363 179.625L173.61 177.228C173.61 177.228 173.29 176.768 173.54 176.252Z" fill="white"/>
<path d="M171.444 172.279C171.206 172.178 170.967 172.076 170.75 171.935C170.533 171.794 170.337 171.61 170.221 171.38C170.167 171.272 170.132 171.138 170.195 171.035C170.261 170.928 170.408 170.901 170.533 170.917C170.774 170.95 170.988 171.103 171.131 171.3C171.274 171.497 171.397 172.04 171.444 172.279Z" stroke="#407BFF" stroke-width="0.25" stroke-miterlimit="10"/>
<path d="M171.429 172.307C171.172 172.285 170.912 172.263 170.655 172.287C170.397 172.311 170.139 172.383 169.928 172.533C169.83 172.603 169.737 172.705 169.745 172.825C169.753 172.951 169.87 173.043 169.989 173.087C170.217 173.171 170.478 173.134 170.696 173.027C170.914 172.919 171.277 172.496 171.429 172.307Z" stroke="#407BFF" stroke-width="0.25" stroke-miterlimit="10"/>
<path d="M127.273 171.105C125.483 168.06 121.478 159.829 130.138 158.504C138.798 157.179 167.175 171.704 167.175 171.704L165.189 177.143L138.527 172.13C138.527 172.13 142.048 177.132 137.609 176.778C131.161 175.947 129.654 174.354 127.273 171.105Z" fill="#263238"/>
<path opacity="0.2" d="M139.159 172.296L131.878 169.768C131.878 169.768 137.932 173.721 140.18 174.236L139.159 172.296Z" fill="black"/>
<path d="M135.27 128.648C137.229 126.772 136.837 121.681 136.314 119.052L142.48 123.804C142.356 124.111 142.253 124.427 142.172 124.749C142.005 125.326 141.99 125.935 142.128 126.519C142.261 127 142.883 128.325 142.883 128.325C142.883 128.325 143.265 129.825 139.266 129.983C137.519 130.242 135.27 128.648 135.27 128.648Z" fill="#895555"/>
<path opacity="0.2" d="M137.522 121.688C137.349 124.801 140.536 126.121 142.131 126.525C141.994 125.941 142.009 125.331 142.175 124.755L137.522 121.688Z" fill="black"/>
<path d="M135.175 116.799C136.11 120.412 136.563 122.468 138.826 123.971C142.231 126.231 146.461 123.745 146.656 119.916C146.832 116.469 145.272 111.14 141.306 110.412C137.399 109.694 134.239 113.186 135.175 116.799Z" fill="#895555"/>
<path d="M133.596 111.882C133.734 109.625 139.284 108.561 141.047 109.37C141.311 109.491 138.33 111.713 138.516 111.605L137.067 112.415C136.819 112.409 136.402 112.767 136.298 113.533C136.298 113.533 137.629 119.489 136.215 121.55C134.683 121.148 134.144 118.79 133.429 117.46C132.363 115.477 130.974 112.542 133.596 111.882Z" fill="#263238"/>
<path d="M134.275 120.126C134.757 121.011 135.617 121.589 136.434 121.81C137.661 122.141 137.85 120.87 137.522 119.738C137.226 118.719 136.671 117.514 135.433 117.682C134.213 117.847 133.724 119.114 134.275 120.126Z" fill="#895555"/>
<path d="M140.287 116.689C140.359 117.063 140.621 117.326 140.873 117.276C141.125 117.227 141.271 116.883 141.199 116.509C141.126 116.135 140.864 115.872 140.612 115.921C140.361 115.971 140.215 116.315 140.287 116.689Z" fill="#263238"/>
<path d="M144.09 116.25C144.162 116.624 144.424 116.887 144.676 116.837C144.928 116.787 145.073 116.444 145.001 116.07C144.929 115.695 144.667 115.432 144.415 115.482C144.163 115.532 144.018 115.875 144.09 116.25Z" fill="#263238"/>
<path d="M143.289 116.232C143.289 116.232 144.867 117.862 145.403 118.546C144.958 119.117 143.993 119.073 143.993 119.073L143.289 116.232Z" fill="#6D3939"/>
<path d="M139.485 115.257C139.547 115.27 139.615 115.25 139.661 115.199C140.205 114.597 140.875 114.676 140.882 114.677C140.982 114.69 141.075 114.622 141.09 114.525C141.105 114.427 141.036 114.338 140.936 114.325C140.901 114.32 140.061 114.22 139.386 114.967C139.319 115.041 139.326 115.154 139.402 115.218C139.426 115.239 139.455 115.252 139.485 115.257Z" fill="#263238"/>
<path opacity="0.2" d="M134.94 118.953C135.05 118.707 135.344 118.568 135.619 118.582C135.895 118.596 136.148 118.737 136.35 118.919C136.592 119.138 136.773 119.419 136.87 119.726" stroke="black" stroke-width="0.5" stroke-linecap="round" stroke-linejoin="round"/>
<path d="M145.921 114.317C145.953 114.304 145.981 114.282 146.002 114.251C146.059 114.168 146.037 114.057 145.953 114.003C145.114 113.458 144.339 113.785 144.302 113.795C144.209 113.835 144.166 113.94 144.205 114.031C144.244 114.121 144.35 114.162 144.443 114.124C144.475 114.109 145.075 113.865 145.749 114.302C145.801 114.336 145.866 114.34 145.921 114.317Z" fill="#263238"/>
<path d="M143.925 120.332C143.633 120.757 143.373 121.201 143.146 121.663C143.06 121.637 142.971 121.613 142.886 121.582C141.712 121.211 141.287 120.652 141.18 120.142C141.132 119.892 141.143 119.634 141.212 119.389C141.248 119.25 141.304 119.117 141.376 118.993C141.882 119.562 142.946 119.992 143.527 120.198C143.781 120.275 143.925 120.332 143.925 120.332Z" fill="#263238"/>
<path d="M143.54 120.19L143.299 120.577C142.197 120.225 141.468 119.833 141.226 119.381C141.262 119.242 141.317 119.109 141.389 118.985C141.898 119.56 142.96 119.985 143.54 120.19Z" fill="white"/>
<path d="M142.899 121.575C141.725 121.203 141.301 120.645 141.193 120.135C141.637 120.284 142.051 120.511 142.415 120.804C142.653 121.004 142.822 121.274 142.899 121.575Z" fill="#C15854"/>
<path d="M135.386 111.257C135.386 111.257 137.088 105.684 142.192 105.815C141.732 106.006 141.312 106.284 140.956 106.633C140.956 106.633 145.175 105.468 147.066 108.234L146.155 107.907C146.155 107.907 147.704 110.197 146.728 112.079L146.339 111.296C146.339 111.296 144.984 113.794 142.248 113.661L143.069 113.03C143.069 113.03 138.531 113.723 137.223 112.784C136.555 112.346 135.939 111.834 135.386 111.257Z" fill="#263238"/>
</svg>
