<svg width="25" height="25" viewBox="0 0 25 25" fill="none" xmlns="http://www.w3.org/2000/svg">
<path fill-rule="evenodd" clip-rule="evenodd" d="M22.9163 12.4999C22.9163 18.253 18.2528 22.9166 12.4997 22.9166C6.74655 22.9166 2.08301 18.253 2.08301 12.4999C2.08301 6.74679 6.74655 2.08325 12.4997 2.08325C18.2528 2.08325 22.9163 6.74679 22.9163 12.4999ZM8.44863 16.551C8.35099 16.4533 8.29614 16.3208 8.29614 16.1827C8.29614 16.0446 8.35099 15.9122 8.44863 15.8145L11.7632 12.4999L8.44863 9.18533C8.35376 9.0871 8.30126 8.95554 8.30245 8.81898C8.30364 8.68242 8.35841 8.55179 8.45498 8.45522C8.55154 8.35865 8.68218 8.30388 8.81874 8.30269C8.9553 8.30151 9.08686 8.354 9.18509 8.44888L12.4997 11.7635L15.8143 8.44888C15.9125 8.354 16.0441 8.30151 16.1806 8.30269C16.3172 8.30388 16.4478 8.35865 16.5444 8.45522C16.6409 8.55179 16.6957 8.68242 16.6969 8.81898C16.6981 8.95554 16.6456 9.0871 16.5507 9.18533L13.2361 12.4999L16.5507 15.8145C16.6456 15.9127 16.6981 16.0443 16.6969 16.1809C16.6957 16.3174 16.6409 16.448 16.5444 16.5446C16.4478 16.6412 16.3172 16.696 16.1806 16.6971C16.0441 16.6983 15.9125 16.6458 15.8143 16.551L12.4997 13.2364L9.18509 16.551C9.08742 16.6486 8.95497 16.7035 8.81686 16.7035C8.67876 16.7035 8.5463 16.6486 8.44863 16.551Z" fill="#E95757"/>
</svg>
