<svg width="25" height="25" viewBox="0 0 25 25" fill="none" xmlns="http://www.w3.org/2000/svg">
<path fill-rule="evenodd" clip-rule="evenodd" d="M12.4997 22.9166C18.2528 22.9166 22.9163 18.253 22.9163 12.4999C22.9163 6.74679 18.2528 2.08325 12.4997 2.08325C6.74655 2.08325 2.08301 6.74679 2.08301 12.4999C2.08301 18.253 6.74655 22.9166 12.4997 22.9166ZM18.0945 9.20304C18.1432 9.15284 18.1813 9.09334 18.2065 9.02808C18.2318 8.96282 18.2436 8.89315 18.2413 8.82322C18.239 8.7533 18.2227 8.68455 18.1932 8.62108C18.1638 8.55762 18.1218 8.50073 18.0699 8.45383C18.018 8.40692 17.9572 8.37095 17.8911 8.34807C17.825 8.32519 17.7549 8.31587 17.6851 8.32066C17.6153 8.32545 17.5472 8.34425 17.4848 8.37594C17.4224 8.40764 17.3671 8.45157 17.3221 8.50513L11.083 15.3994L7.65072 12.1228C7.55085 12.0274 7.41715 11.9755 7.27904 11.9786C7.14092 11.9818 7.00971 12.0396 6.91426 12.1395C6.81881 12.2394 6.76694 12.3731 6.77007 12.5112C6.77319 12.6493 6.83105 12.7805 6.93092 12.876L10.7507 16.5218L11.1377 16.8916L11.4965 16.4947L18.0945 9.20304Z" fill="#63E957"/>
</svg>
