<svg width="37" height="37" viewBox="0 0 37 37" fill="none" xmlns="http://www.w3.org/2000/svg">
<path d="M13.8747 29.2918C6.16634 31.6043 6.16634 25.4376 3.08301 24.6668M24.6663 33.9168V27.9505C24.7242 27.2154 24.6249 26.4764 24.375 25.7826C24.1251 25.0889 23.7304 24.4562 23.2172 23.9268C28.058 23.3872 33.1455 21.5526 33.1455 13.1351C33.1451 10.9827 32.3172 8.91281 30.833 7.35388C31.5358 5.47074 31.4861 3.38925 30.6943 1.54179C30.6943 1.54179 28.8751 1.00221 24.6663 3.82346C21.1329 2.86581 17.4082 2.86581 13.8747 3.82346C9.66592 1.00221 7.84676 1.54179 7.84676 1.54179C7.05492 3.38925 7.00523 5.47074 7.70801 7.35388C6.21279 8.92437 5.38398 11.013 5.39551 13.1814C5.39551 21.5372 10.483 23.3718 15.3238 23.973C14.8166 24.4972 14.4255 25.1222 14.1758 25.8075C13.9261 26.4928 13.8235 27.223 13.8747 27.9505V33.9168" stroke="#CFEBF5" stroke-width="2" stroke-linecap="round" stroke-linejoin="round"/>
</svg>
