<svg width="30" height="31" viewBox="0 0 30 31" fill="none" xmlns="http://www.w3.org/2000/svg">
<path d="M28.9999 15.091C28.9999 22.802 22.7341 29.0569 15 29.0569C7.26586 29.0569 1 22.802 1 15.091C1 7.37991 7.26586 1.125 15 1.125C22.7341 1.125 28.9999 7.37991 28.9999 15.091Z" stroke="#CFEBF5" stroke-width="2"/>
<g clip-path="url(#clip0_62_198)">
<path d="M11.7262 24.6825C6.27166 26.3151 6.27166 21.9614 4.08984 21.4172M19.3625 27.9478V23.7355C19.4035 23.2165 19.3332 22.6948 19.1564 22.205C18.9796 21.7152 18.7003 21.2685 18.3371 20.8947C21.7625 20.5138 25.3625 19.2186 25.3625 13.2757C25.3623 11.7561 24.7764 10.2947 23.7262 9.19408C24.2235 7.86457 24.1883 6.39501 23.628 5.09069C23.628 5.09069 22.3407 4.70973 19.3625 6.70157C16.8622 6.02546 14.2265 6.02546 11.7262 6.70157C8.74802 4.70973 7.46075 5.09069 7.46075 5.09069C6.90043 6.39501 6.86527 7.86457 7.36257 9.19408C6.30452 10.3029 5.71805 11.7774 5.7262 13.3084C5.7262 19.2077 9.3262 20.5029 12.7516 20.9274C12.3927 21.2974 12.1159 21.7387 11.9393 22.2225C11.7626 22.7064 11.69 23.2219 11.7262 23.7355V27.9478" stroke="#CFEBF5" stroke-width="2" stroke-linecap="round" stroke-linejoin="round"/>
</g>
<defs>
<clipPath id="clip0_62_198">
<rect width="26.1818" height="26.1224" fill="white" transform="translate(1.9082 4.00244)"/>
</clipPath>
</defs>
</svg>
