<svg width="38" height="37" viewBox="0 0 38 37" fill="none" xmlns="http://www.w3.org/2000/svg">
<path d="M14.7497 29.2917C7.04134 31.6042 7.04134 25.4375 3.95801 24.6667M25.5413 33.9167V27.9504C25.5992 27.2153 25.4999 26.4763 25.25 25.7825C25.0001 25.0887 24.6054 24.4561 24.0922 23.9267C28.933 23.3871 34.0205 21.5525 34.0205 13.135C34.0201 10.9826 33.1922 8.91269 31.708 7.35375C32.4108 5.47062 32.3611 3.38913 31.5693 1.54167C31.5693 1.54167 29.7501 1.00209 25.5413 3.82334C22.0079 2.86569 18.2832 2.86569 14.7497 3.82334C10.5409 1.00209 8.72176 1.54167 8.72176 1.54167C7.92992 3.38913 7.88023 5.47062 8.58301 7.35375C7.08779 8.92425 6.25898 11.0128 6.27051 13.1813C6.27051 21.5371 11.358 23.3717 16.1988 23.9729C15.6916 24.497 15.3005 25.1221 15.0508 25.8074C14.8011 26.4927 14.6985 27.2229 14.7497 27.9504V33.9167" stroke="#E6E6E6" stroke-width="2" stroke-linecap="round" stroke-linejoin="round"/>
</svg>
