<svg width="38" height="37" viewBox="0 0 38 37" fill="none" xmlns="http://www.w3.org/2000/svg">
<circle cx="19" cy="18.5" r="17.5" stroke="#E6E6E6" stroke-width="2"/>
<g clip-path="url(#clip0_34_167)">
<path d="M15.8927 25.7575C10.7071 27.3132 10.7071 23.1647 8.63281 22.6461M23.1525 28.8689V24.8552C23.1914 24.3607 23.1246 23.8635 22.9565 23.3968C22.7884 22.9301 22.5229 22.5045 22.1776 22.1483C25.4342 21.7853 28.8567 20.5511 28.8567 14.8885C28.8564 13.4405 28.2994 12.048 27.301 10.9993C27.7738 9.73242 27.7403 8.33214 27.2077 7.08931C27.2077 7.08931 25.9838 6.72632 23.1525 8.62425C20.7754 7.98001 18.2697 7.98001 15.8927 8.62425C13.0613 6.72632 11.8375 7.08931 11.8375 7.08931C11.3048 8.33214 11.2714 9.73242 11.7442 10.9993C10.7383 12.0558 10.1807 13.4608 10.1885 14.9196C10.1885 20.5408 13.611 21.7749 16.8676 22.1794C16.5263 22.532 16.2632 22.9525 16.0952 23.4135C15.9273 23.8745 15.8582 24.3657 15.8927 24.8552V28.8689" stroke="#E6E6E6" stroke-width="2" stroke-linecap="round" stroke-linejoin="round"/>
</g>
<defs>
<clipPath id="clip0_34_167">
<rect width="24.8909" height="24.8909" fill="white" transform="translate(6.55859 6.05225)"/>
</clipPath>
</defs>
</svg>
