<svg width="37" height="37" viewBox="0 0 37 37" fill="none" xmlns="http://www.w3.org/2000/svg">
<circle cx="18.5" cy="18.5" r="17.5" stroke="#CFEBF5" stroke-width="2"/>
<g clip-path="url(#clip0_76_96)">
<path d="M15.3927 25.7575C10.2071 27.3132 10.2071 23.1647 8.13281 22.6461M22.6525 28.8689V24.8552C22.6914 24.3607 22.6246 23.8635 22.4565 23.3968C22.2884 22.9301 22.0229 22.5045 21.6776 22.1483C24.9342 21.7853 28.3567 20.5511 28.3567 14.8885C28.3564 13.4405 27.7994 12.048 26.801 10.9993C27.2738 9.73242 27.2403 8.33214 26.7077 7.08931C26.7077 7.08931 25.4838 6.72632 22.6525 8.62425C20.2754 7.98001 17.7697 7.98001 15.3927 8.62425C12.5613 6.72632 11.3375 7.08931 11.3375 7.08931C10.8048 8.33214 10.7714 9.73242 11.2442 10.9993C10.2383 12.0558 9.68074 13.4608 9.68849 14.9196C9.68849 20.5408 13.111 21.7749 16.3676 22.1794C16.0263 22.532 15.7632 22.9525 15.5952 23.4135C15.4273 23.8745 15.3582 24.3657 15.3927 24.8552V28.8689" stroke="#CFEBF5" stroke-width="2" stroke-linecap="round" stroke-linejoin="round"/>
</g>
<defs>
<clipPath id="clip0_76_96">
<rect width="24.8909" height="24.8909" fill="white" transform="translate(6.05859 6.05225)"/>
</clipPath>
</defs>
</svg>
