<svg width="38" height="37" viewBox="0 0 38 37" fill="none" xmlns="http://www.w3.org/2000/svg">
<circle cx="19" cy="18.5" r="17.5" stroke="#E6E6E6" stroke-width="2"/>
<path d="M27.5525 16.1717C26.3856 15.0047 24.8028 14.3491 23.1524 14.3491C21.502 14.3491 19.9193 15.0047 18.7523 16.1717C17.5853 17.3387 16.9297 18.9215 16.9297 20.5718V27.8317H21.0782V20.5718C21.0782 20.0217 21.2967 19.4941 21.6857 19.1051C22.0747 18.7161 22.6023 18.4976 23.1524 18.4976C23.7025 18.4976 24.2301 18.7161 24.6191 19.1051C25.0081 19.4941 25.2267 20.0217 25.2267 20.5718V27.8317H29.3751V20.5718C29.3751 18.9215 28.7195 17.3387 27.5525 16.1717Z" stroke="#E6E6E6" stroke-width="2" stroke-linecap="round" stroke-linejoin="round"/>
<path d="M12.7813 15.3862H8.63281V27.8317H12.7813V15.3862Z" stroke="#E6E6E6" stroke-width="2" stroke-linecap="round" stroke-linejoin="round"/>
<path d="M10.7071 12.275C11.8526 12.275 12.7813 11.3463 12.7813 10.2007C12.7813 9.05513 11.8526 8.12646 10.7071 8.12646C9.56148 8.12646 8.63281 9.05513 8.63281 10.2007C8.63281 11.3463 9.56148 12.275 10.7071 12.275Z" stroke="#E6E6E6" stroke-width="2" stroke-linecap="round" stroke-linejoin="round"/>
</svg>
