<svg width="38" height="37" viewBox="0 0 38 37" fill="none" xmlns="http://www.w3.org/2000/svg">
<path d="M32.0827 15.0426C30.348 13.3079 27.9952 12.3333 25.542 12.3333C23.0887 12.3333 20.736 13.3079 19.0013 15.0426C17.2665 16.7773 16.292 19.1301 16.292 21.5833V32.375H22.4587V21.5833C22.4587 20.7656 22.7835 19.9813 23.3617 19.4031C23.94 18.8248 24.7242 18.5 25.542 18.5C26.3597 18.5 27.144 18.8248 27.7222 19.4031C28.3005 19.9813 28.6253 20.7656 28.6253 21.5833V32.375H34.792V21.5833C34.792 19.1301 33.8174 16.7773 32.0827 15.0426Z" stroke="#E6E6E6" stroke-width="2" stroke-linecap="round" stroke-linejoin="round"/>
<path d="M10.1247 13.875H3.95801V32.375H10.1247V13.875Z" stroke="#E6E6E6" stroke-width="2" stroke-linecap="round" stroke-linejoin="round"/>
<path d="M7.04134 9.24998C8.74422 9.24998 10.1247 7.86952 10.1247 6.16665C10.1247 4.46377 8.74422 3.08331 7.04134 3.08331C5.33846 3.08331 3.95801 4.46377 3.95801 6.16665C3.95801 7.86952 5.33846 9.24998 7.04134 9.24998Z" stroke="#E6E6E6" stroke-width="2" stroke-linecap="round" stroke-linejoin="round"/>
</svg>
