<svg width="37" height="37" viewBox="0 0 37 37" fill="none" xmlns="http://www.w3.org/2000/svg">
<circle cx="18.5" cy="18.5" r="17.5" stroke="#CFEBF5" stroke-width="2"/>
<path d="M27.0525 16.1717C25.8856 15.0047 24.3028 14.3491 22.6524 14.3491C21.002 14.3491 19.4193 15.0047 18.2523 16.1717C17.0853 17.3387 16.4297 18.9215 16.4297 20.5718V27.8317H20.5782V20.5718C20.5782 20.0217 20.7967 19.4941 21.1857 19.1051C21.5747 18.7161 22.1023 18.4976 22.6524 18.4976C23.2025 18.4976 23.7301 18.7161 24.1191 19.1051C24.5081 19.4941 24.7267 20.0217 24.7267 20.5718V27.8317H28.8751V20.5718C28.8751 18.9215 28.2195 17.3387 27.0525 16.1717Z" stroke="#CFEBF5" stroke-width="2" stroke-linecap="round" stroke-linejoin="round"/>
<path d="M12.2813 15.3862H8.13281V27.8317H12.2813V15.3862Z" stroke="#CFEBF5" stroke-width="2" stroke-linecap="round" stroke-linejoin="round"/>
<path d="M10.2071 12.275C11.3526 12.275 12.2813 11.3463 12.2813 10.2007C12.2813 9.05513 11.3526 8.12646 10.2071 8.12646C9.06148 8.12646 8.13281 9.05513 8.13281 10.2007C8.13281 11.3463 9.06148 12.275 10.2071 12.275Z" stroke="#CFEBF5" stroke-width="2" stroke-linecap="round" stroke-linejoin="round"/>
</svg>
