<svg width="37" height="37" viewBox="0 0 37 37" fill="none" xmlns="http://www.w3.org/2000/svg">
<path d="M31.2077 15.0428C29.473 13.308 27.1202 12.3335 24.667 12.3335C22.2137 12.3335 19.861 13.308 18.1263 15.0428C16.3915 16.7775 15.417 19.1302 15.417 21.5835V32.3752H21.5837V21.5835C21.5837 20.7657 21.9085 19.9815 22.4867 19.4033C23.065 18.825 23.8492 18.5002 24.667 18.5002C25.4847 18.5002 26.269 18.825 26.8472 19.4033C27.4255 19.9815 27.7503 20.7657 27.7503 21.5835V32.3752H33.917V21.5835C33.917 19.1302 32.9424 16.7775 31.2077 15.0428Z" stroke="#CFEBF5" stroke-width="2" stroke-linecap="round" stroke-linejoin="round"/>
<path d="M9.24967 13.875H3.08301V32.375H9.24967V13.875Z" stroke="#CFEBF5" stroke-width="2" stroke-linecap="round" stroke-linejoin="round"/>
<path d="M6.16634 9.25016C7.86922 9.25016 9.24967 7.86971 9.24967 6.16683C9.24967 4.46395 7.86922 3.0835 6.16634 3.0835C4.46346 3.0835 3.08301 4.46395 3.08301 6.16683C3.08301 7.86971 4.46346 9.25016 6.16634 9.25016Z" stroke="#CFEBF5" stroke-width="2" stroke-linecap="round" stroke-linejoin="round"/>
</svg>
