{
  "accessors": [
    {
      "bufferView": 2,
      "componentType": 5126,
      "count": 65532,
      "max": [
        0.6369484663009644,
        0.6369486451148987,
        0.6369489431381226
      ],
      "min": [
        -0.6369485259056091,
        -0.6369484663009644,
        -0.6369484663009644
      ],
      "type": "VEC3"
    },
    {
      "bufferView": 2,
      "byteOffset": 786384,
      "componentType": 5126,
      "count": 65532,
      "max": [
        1.0,
        1.0,
        1.0
      ],
      "min": [
        -1.0,
        -1.0,
        -1.0
      ],
      "type": "VEC3"
    },
    {
      "bufferView": 1,
      "componentType": 5126,
      "count": 65532,
      "max": [
        0.44483405351638794,
        0.3641829192638397
      ],
      "min": [
        -0.44483405351638794,
        -0.3641829192638397
      ],
      "type": "VEC2"
    },
    {
      "bufferView": 0,
      "componentType": 5125,
      "count": 373152,
      "type": "SCALAR"
    },
    {
      "bufferView": 2,
      "byteOffset": 1572768,
      "componentType": 5126,
      "count": 65532,
      "max": [
        0.6369484663009644,
        0.6369486451148987,
        0.6369489431381226
      ],
      "min": [
        -0.6369485259056091,
        -0.6369484663009644,
        -0.6369489431381226
      ],
      "type": "VEC3"
    },
    {
      "bufferView": 2,
      "byteOffset": 2359152,
      "componentType": 5126,
      "count": 65532,
      "max": [
        0.9999944567680359,
        0.9999945163726807,
        1.0
      ],
      "min": [
        -0.9999945163726807,
        -0.9999107718467712,
        -1.0
      ],
      "type": "VEC3"
    },
    {
      "bufferView": 1,
      "byteOffset": 524256,
      "componentType": 5126,
      "count": 65532,
      "max": [
        0.44483405351638794,
        0.3641829192638397
      ],
      "min": [
        -0.44483405351638794,
        -0.3641829192638397
      ],
      "type": "VEC2"
    },
    {
      "bufferView": 0,
      "byteOffset": 1492608,
      "componentType": 5125,
      "count": 368028,
      "type": "SCALAR"
    },
    {
      "bufferView": 2,
      "byteOffset": 3145536,
      "componentType": 5126,
      "count": 11096,
      "max": [
        0.597018837928772,
        0.5970187783241272,
        0.5786513090133667
      ],
      "min": [
        -0.5970188975334167,
        -0.5843337178230286,
        -0.6176270842552185
      ],
      "type": "VEC3"
    },
    {
      "bufferView": 2,
      "byteOffset": 3278688,
      "componentType": 5126,
      "count": 11096,
      "max": [
        0.9999464750289917,
        0.9999464750289917,
        0.9999464750289917
      ],
      "min": [
        -0.9999464750289917,
        -0.9999464154243469,
        -0.9999944567680359
      ],
      "type": "VEC3"
    },
    {
      "bufferView": 1,
      "byteOffset": 1048512,
      "componentType": 5126,
      "count": 11096,
      "max": [
        0.3848124146461487,
        0.29299306869506836
      ],
      "min": [
        -0.3892756700515747,
        -0.30901697278022766
      ],
      "type": "VEC2"
    },
    {
      "bufferView": 0,
      "byteOffset": 2964720,
      "componentType": 5125,
      "count": 53700,
      "type": "SCALAR"
    }
  ],
  "asset": {
    "extras": {
      "author": "Emilio.Gallo (https://sketchfab.com/Emilio.Gallo)",
      "license": "CC-BY-4.0 (http://creativecommons.org/licenses/by/4.0/)",
      "source": "https://sketchfab.com/3d-models/icosahedral-abstract-figure-16fa6fe9115f461289a3c5e8b7c7f64a",
      "title": "Icosahedral Abstract Figure"
    },
    "generator": "Sketchfab-12.64.0",
    "version": "2.0"
  },
  "bufferViews": [
    {
      "buffer": 0,
      "byteLength": 3179520,
      "name": "floatBufferViews",
      "target": 34963
    },
    {
      "buffer": 0,
      "byteLength": 1137280,
      "byteOffset": 3179520,
      "byteStride": 8,
      "name": "floatBufferViews",
      "target": 34962
    },
    {
      "buffer": 0,
      "byteLength": 3411840,
      "byteOffset": 4316800,
      "byteStride": 12,
      "name": "floatBufferViews",
      "target": 34962
    }
  ],
  "buffers": [
    {
      "byteLength": 7728640,
      "uri": "scene.bin"
    }
  ],
  "materials": [
    {
      "doubleSided": true,
      "name": "Scene_-_Root",
      "pbrMetallicRoughness": {
        "metallicFactor": 0.9866981011619211,
        "roughnessFactor": 0.22002778639135645
      }
    }
  ],
  "meshes": [
    {
      "name": "Hedra001__0",
      "primitives": [
        {
          "attributes": {
            "NORMAL": 1,
            "POSITION": 0,
            "TEXCOORD_0": 2
          },
          "indices": 3,
          "material": 0,
          "mode": 4
        }
      ]
    },
    {
      "name": "Hedra001__0",
      "primitives": [
        {
          "attributes": {
            "NORMAL": 5,
            "POSITION": 4,
            "TEXCOORD_0": 6
          },
          "indices": 7,
          "material": 0,
          "mode": 4
        }
      ]
    },
    {
      "name": "Hedra001__0",
      "primitives": [
        {
          "attributes": {
            "NORMAL": 9,
            "POSITION": 8,
            "TEXCOORD_0": 10
          },
          "indices": 11,
          "material": 0,
          "mode": 4
        }
      ]
    }
  ],
  "nodes": [
    {
      "children": [
        1
      ],
      "matrix": [
        1.0,
        0.0,
        0.0,
        0.0,
        0.0,
        2.220446049250313e-16,
        -1.0,
        0.0,
        0.0,
        1.0,
        2.220446049250313e-16,
        0.0,
        0.0,
        0.0,
        0.0,
        1.0
      ],
      "name": "Sketchfab_model"
    },
    {
      "children": [
        2
      ],
      "matrix": [
        0.02539999969303608,
        0.0,
        0.0,
        0.0,
        0.0,
        0.0,
        0.02539999969303608,
        0.0,
        0.0,
        -0.02539999969303608,
        0.0,
        0.0,
        0.0,
        0.0,
        0.0,
        1.0
      ],
      "name": "c3ccdb9907094d3e90d023a7e6551eeb.fbx"
    },
    {
      "children": [
        3
      ],
      "name": "RootNode"
    },
    {
      "children": [
        4,
        5,
        6
      ],
      "matrix": [
        1.0,
        0.0,
        0.0,
        0.0,
        0.0,
        2.220446049250313e-16,
        -1.0,
        0.0,
        0.0,
        1.0,
        2.220446049250313e-16,
        0.0,
        -4.996607780456543,
        0.0,
        6.653024673461914,
        1.0
      ],
      "name": "Hedra001"
    },
    {
      "mesh": 0,
      "name": "Hedra001__0"
    },
    {
      "mesh": 1,
      "name": "Hedra001__0"
    },
    {
      "mesh": 2,
      "name": "Hedra001__0"
    }
  ],
  "scene": 0,
  "scenes": [
    {
      "name": "Sketchfab_Scene",
      "nodes": [
        0
      ]
    }
  ]
}
