<svg width="82" height="19" viewBox="0 0 82 19" fill="none" xmlns="http://www.w3.org/2000/svg">
<path d="M32.18 13.1C31.6467 13.1 31.15 13.0133 30.69 12.84C30.2367 12.66 29.84 12.41 29.5 12.09C29.1667 11.7633 28.9067 11.38 28.72 10.94C28.5333 10.5 28.44 10.02 28.44 9.5C28.44 8.98 28.5333 8.5 28.72 8.06C28.9067 7.62 29.17 7.24 29.51 6.92C29.85 6.59333 30.2467 6.34333 30.7 6.17C31.1533 5.99 31.65 5.9 32.19 5.9C32.7633 5.9 33.2867 6 33.76 6.2C34.2333 6.39333 34.6333 6.68333 34.96 7.07L34.12 7.86C33.8667 7.58667 33.5833 7.38333 33.27 7.25C32.9567 7.11 32.6167 7.04 32.25 7.04C31.8833 7.04 31.5467 7.1 31.24 7.22C30.94 7.34 30.6767 7.51 30.45 7.73C30.23 7.95 30.0567 8.21 29.93 8.51C29.81 8.81 29.75 9.14 29.75 9.5C29.75 9.86 29.81 10.19 29.93 10.49C30.0567 10.79 30.23 11.05 30.45 11.27C30.6767 11.49 30.94 11.66 31.24 11.78C31.5467 11.9 31.8833 11.96 32.25 11.96C32.6167 11.96 32.9567 11.8933 33.27 11.76C33.5833 11.62 33.8667 11.41 34.12 11.13L34.96 11.93C34.6333 12.31 34.2333 12.6 33.76 12.8C33.2867 13 32.76 13.1 32.18 13.1ZM38.3659 13.1C37.8192 13.1 37.2959 13.0233 36.7959 12.87C36.2959 12.71 35.8992 12.5067 35.6059 12.26L36.0559 11.25C36.3359 11.47 36.6825 11.6533 37.0959 11.8C37.5092 11.9467 37.9325 12.02 38.3659 12.02C38.7325 12.02 39.0292 11.98 39.2559 11.9C39.4825 11.82 39.6492 11.7133 39.7559 11.58C39.8625 11.44 39.9159 11.2833 39.9159 11.11C39.9159 10.8967 39.8392 10.7267 39.6859 10.6C39.5325 10.4667 39.3325 10.3633 39.0859 10.29C38.8459 10.21 38.5759 10.1367 38.2759 10.07C37.9825 10.0033 37.6859 9.92667 37.3859 9.84C37.0925 9.74667 36.8225 9.63 36.5759 9.49C36.3359 9.34333 36.1392 9.15 35.9859 8.91C35.8325 8.67 35.7559 8.36333 35.7559 7.99C35.7559 7.61 35.8559 7.26333 36.0559 6.95C36.2625 6.63 36.5725 6.37667 36.9859 6.19C37.4059 5.99667 37.9359 5.9 38.5759 5.9C38.9959 5.9 39.4125 5.95333 39.8259 6.06C40.2392 6.16667 40.5992 6.32 40.9059 6.52L40.4959 7.53C40.1825 7.34333 39.8592 7.20667 39.5259 7.12C39.1925 7.02667 38.8725 6.98 38.5659 6.98C38.2059 6.98 37.9125 7.02333 37.6859 7.11C37.4659 7.19667 37.3025 7.31 37.1959 7.45C37.0959 7.59 37.0459 7.75 37.0459 7.93C37.0459 8.14333 37.1192 8.31667 37.2659 8.45C37.4192 8.57667 37.6159 8.67667 37.8559 8.75C38.1025 8.82333 38.3759 8.89667 38.6759 8.97C38.9759 9.03667 39.2725 9.11333 39.5659 9.2C39.8659 9.28667 40.1359 9.4 40.3759 9.54C40.6225 9.68 40.8192 9.87 40.9659 10.11C41.1192 10.35 41.1959 10.6533 41.1959 11.02C41.1959 11.3933 41.0925 11.74 40.8859 12.06C40.6859 12.3733 40.3759 12.6267 39.9559 12.82C39.5359 13.0067 39.0059 13.1 38.3659 13.1ZM44.6549 13.1C44.1083 13.1 43.5849 13.0233 43.0849 12.87C42.5849 12.71 42.1883 12.5067 41.8949 12.26L42.3449 11.25C42.6249 11.47 42.9716 11.6533 43.3849 11.8C43.7983 11.9467 44.2216 12.02 44.6549 12.02C45.0216 12.02 45.3183 11.98 45.5449 11.9C45.7716 11.82 45.9383 11.7133 46.0449 11.58C46.1516 11.44 46.2049 11.2833 46.2049 11.11C46.2049 10.8967 46.1283 10.7267 45.9749 10.6C45.8216 10.4667 45.6216 10.3633 45.3749 10.29C45.1349 10.21 44.8649 10.1367 44.5649 10.07C44.2716 10.0033 43.9749 9.92667 43.6749 9.84C43.3816 9.74667 43.1116 9.63 42.8649 9.49C42.6249 9.34333 42.4283 9.15 42.2749 8.91C42.1216 8.67 42.0449 8.36333 42.0449 7.99C42.0449 7.61 42.1449 7.26333 42.3449 6.95C42.5516 6.63 42.8616 6.37667 43.2749 6.19C43.6949 5.99667 44.2249 5.9 44.8649 5.9C45.2849 5.9 45.7016 5.95333 46.1149 6.06C46.5283 6.16667 46.8883 6.32 47.1949 6.52L46.7849 7.53C46.4716 7.34333 46.1483 7.20667 45.8149 7.12C45.4816 7.02667 45.1616 6.98 44.8549 6.98C44.4949 6.98 44.2016 7.02333 43.9749 7.11C43.7549 7.19667 43.5916 7.31 43.4849 7.45C43.3849 7.59 43.3349 7.75 43.3349 7.93C43.3349 8.14333 43.4083 8.31667 43.5549 8.45C43.7083 8.57667 43.9049 8.67667 44.1449 8.75C44.3916 8.82333 44.6649 8.89667 44.9649 8.97C45.2649 9.03667 45.5616 9.11333 45.8549 9.2C46.1549 9.28667 46.4249 9.4 46.6649 9.54C46.9116 9.68 47.1083 9.87 47.2549 10.11C47.4083 10.35 47.4849 10.6533 47.4849 11.02C47.4849 11.3933 47.3816 11.74 47.1749 12.06C46.9749 12.3733 46.6649 12.6267 46.2449 12.82C45.8249 13.0067 45.2949 13.1 44.6549 13.1ZM50.4252 13.1C49.9318 13.1 49.4485 13.03 48.9752 12.89C48.5085 12.7433 48.1152 12.5433 47.7952 12.29L48.3552 11.28C48.6085 11.4867 48.9152 11.6533 49.2752 11.78C49.6352 11.9067 50.0118 11.97 50.4052 11.97C50.8718 11.97 51.2352 11.8767 51.4952 11.69C51.7552 11.4967 51.8852 11.2367 51.8852 10.91C51.8852 10.59 51.7652 10.3367 51.5252 10.15C51.2852 9.96333 50.8985 9.87 50.3652 9.87H49.7252V8.98L51.7252 6.6L51.8952 7.09H48.1352V6H52.9052V6.87L50.9052 9.25L50.2252 8.85H50.6152C51.4752 8.85 52.1185 9.04333 52.5452 9.43C52.9785 9.81 53.1952 10.3 53.1952 10.9C53.1952 11.2933 53.0952 11.6567 52.8952 11.99C52.6952 12.3233 52.3885 12.5933 51.9752 12.8C51.5685 13 51.0518 13.1 50.4252 13.1Z" fill="#E6E6E6"/>
<rect x="0.875" y="0.875" width="80.25" height="17.25" rx="4.125" stroke="#4B86BC" stroke-width="1.75"/>
</svg>
