<svg width="82" height="19" viewBox="0 0 82 19" fill="none" xmlns="http://www.w3.org/2000/svg">
<path d="M25.63 9.22H29.12V10.32H25.63V9.22ZM25.74 13H24.44V6H29.55V7.09H25.74V13ZM30.8072 13V6H32.1072V13H30.8072ZM37.2705 13.1C36.7239 13.1 36.2205 13.0133 35.7605 12.84C35.3072 12.66 34.9105 12.41 34.5705 12.09C34.2305 11.7633 33.9672 11.38 33.7805 10.94C33.5939 10.5 33.5005 10.02 33.5005 9.5C33.5005 8.98 33.5939 8.5 33.7805 8.06C33.9672 7.62 34.2305 7.24 34.5705 6.92C34.9172 6.59333 35.3205 6.34333 35.7805 6.17C36.2405 5.99 36.7439 5.9 37.2905 5.9C37.8839 5.9 38.4172 5.99667 38.8905 6.19C39.3705 6.38333 39.7739 6.66667 40.1005 7.04L39.2805 7.84C39.0072 7.56667 38.7105 7.36667 38.3905 7.24C38.0772 7.10667 37.7305 7.04 37.3505 7.04C36.9839 7.04 36.6439 7.1 36.3305 7.22C36.0172 7.34 35.7472 7.51 35.5205 7.73C35.2939 7.95 35.1172 8.21 34.9905 8.51C34.8705 8.81 34.8105 9.14 34.8105 9.5C34.8105 9.85333 34.8705 10.18 34.9905 10.48C35.1172 10.78 35.2939 11.0433 35.5205 11.27C35.7472 11.49 36.0139 11.66 36.3205 11.78C36.6272 11.9 36.9672 11.96 37.3405 11.96C37.6872 11.96 38.0205 11.9067 38.3405 11.8C38.6672 11.6867 38.9772 11.5 39.2705 11.24L40.0105 12.21C39.6439 12.5033 39.2172 12.7267 38.7305 12.88C38.2505 13.0267 37.7639 13.1 37.2705 13.1ZM38.7805 12.04V9.42H40.0105V12.21L38.7805 12.04ZM41.7252 13V6H42.7952L45.8552 11.11H45.2952L48.3052 6H49.3752L49.3852 13H48.1552L48.1452 7.93H48.4052L45.8452 12.2H45.2652L42.6652 7.93H42.9652V13H41.7252ZM50.2859 13L53.4359 6H54.7159L57.8759 13H56.5159L53.8059 6.69H54.3259L51.6259 13H50.2859ZM51.7359 11.38L52.0859 10.36H55.8659L56.2159 11.38H51.7359Z" fill="#E6E6E6"/>
<rect x="0.875" y="0.875" width="80.25" height="17.25" rx="4.125" stroke="#4B86BC" stroke-width="1.75"/>
</svg>
