<svg width="82" height="19" viewBox="0 0 82 19" fill="none" xmlns="http://www.w3.org/2000/svg">
<path d="M28.86 6H30.16V13H28.86V6ZM25.24 13H23.94V6H25.24V13ZM28.96 10H25.13V8.89H28.96V10ZM33.4557 13V7.1H31.1357V6H37.0757V7.1H34.7557V13H33.4557ZM38.0513 13V6H39.1213L42.1813 11.11H41.6213L44.6313 6H45.7013L45.7113 13H44.4813L44.4713 7.93H44.7313L42.1713 12.2H41.5913L38.9913 7.93H39.2913V13H38.0513ZM47.6021 13V6H48.9021V11.9H52.5621V13H47.6021ZM55.4084 13.1C54.9151 13.1 54.4318 13.03 53.9584 12.89C53.4918 12.7433 53.0984 12.5433 52.7784 12.29L53.3284 11.28C53.5818 11.4867 53.8884 11.6533 54.2484 11.78C54.6151 11.9067 54.9951 11.97 55.3884 11.97C55.8484 11.97 56.2084 11.8733 56.4684 11.68C56.7351 11.4867 56.8684 11.2267 56.8684 10.9C56.8684 10.68 56.8118 10.4867 56.6984 10.32C56.5918 10.1533 56.3984 10.0267 56.1184 9.94C55.8451 9.85333 55.4684 9.81 54.9884 9.81H53.2984L53.6584 6H57.7684V7.09H54.1384L54.8184 6.47L54.5484 9.32L53.8684 8.71H55.2784C55.9718 8.71 56.5284 8.80333 56.9484 8.99C57.3751 9.17 57.6851 9.42333 57.8784 9.75C58.0784 10.07 58.1784 10.4367 58.1784 10.85C58.1784 11.2567 58.0784 11.63 57.8784 11.97C57.6784 12.31 57.3718 12.5833 56.9584 12.79C56.5518 12.9967 56.0351 13.1 55.4084 13.1Z" fill="#E6E6E6"/>
<rect x="0.875" y="0.875" width="80.25" height="17.25" rx="4.125" stroke="#4B86BC" stroke-width="1.75"/>
</svg>
