<svg width="82" height="19" viewBox="0 0 82 19" fill="none" xmlns="http://www.w3.org/2000/svg">
<path d="M11.03 13.1C10.5833 13.1 10.17 13.0133 9.79 12.84C9.41667 12.6667 9.11 12.4167 8.87 12.09L9.61 11.2C9.80333 11.4667 10.0133 11.6667 10.24 11.8C10.4733 11.9333 10.7267 12 11 12C11.7267 12 12.09 11.57 12.09 10.71V7.09H9.6V6H13.39V10.64C13.39 11.4667 13.1867 12.0833 12.78 12.49C12.38 12.8967 11.7967 13.1 11.03 13.1ZM14.077 13L17.227 6H18.507L21.667 13H20.307L17.597 6.69H18.117L15.417 13H14.077ZM15.527 11.38L15.877 10.36H19.657L20.007 11.38H15.527ZM24.2561 13L21.1961 6H22.6061L25.3361 12.33H24.5261L27.2861 6H28.5861L25.5361 13H24.2561ZM28.1102 13L31.2602 6H32.5402L35.7002 13H34.3402L31.6302 6.69H32.1502L29.4502 13H28.1102ZM29.5602 11.38L29.9102 10.36H33.6902L34.0402 11.38H29.5602ZM38.7604 13.1C38.2137 13.1 37.6904 13.0233 37.1904 12.87C36.6904 12.71 36.2937 12.5067 36.0004 12.26L36.4504 11.25C36.7304 11.47 37.0771 11.6533 37.4904 11.8C37.9037 11.9467 38.3271 12.02 38.7604 12.02C39.1271 12.02 39.4237 11.98 39.6504 11.9C39.8771 11.82 40.0437 11.7133 40.1504 11.58C40.2571 11.44 40.3104 11.2833 40.3104 11.11C40.3104 10.8967 40.2337 10.7267 40.0804 10.6C39.9271 10.4667 39.7271 10.3633 39.4804 10.29C39.2404 10.21 38.9704 10.1367 38.6704 10.07C38.3771 10.0033 38.0804 9.92667 37.7804 9.84C37.4871 9.74667 37.2171 9.63 36.9704 9.49C36.7304 9.34333 36.5337 9.15 36.3804 8.91C36.2271 8.67 36.1504 8.36333 36.1504 7.99C36.1504 7.61 36.2504 7.26333 36.4504 6.95C36.6571 6.63 36.9671 6.37667 37.3804 6.19C37.8004 5.99667 38.3304 5.9 38.9704 5.9C39.3904 5.9 39.8071 5.95333 40.2204 6.06C40.6337 6.16667 40.9937 6.32 41.3004 6.52L40.8904 7.53C40.5771 7.34333 40.2537 7.20667 39.9204 7.12C39.5871 7.02667 39.2671 6.98 38.9604 6.98C38.6004 6.98 38.3071 7.02333 38.0804 7.11C37.8604 7.19667 37.6971 7.31 37.5904 7.45C37.4904 7.59 37.4404 7.75 37.4404 7.93C37.4404 8.14333 37.5137 8.31667 37.6604 8.45C37.8137 8.57667 38.0104 8.67667 38.2504 8.75C38.4971 8.82333 38.7704 8.89667 39.0704 8.97C39.3704 9.03667 39.6671 9.11333 39.9604 9.2C40.2604 9.28667 40.5304 9.4 40.7704 9.54C41.0171 9.68 41.2137 9.87 41.3604 10.11C41.5137 10.35 41.5904 10.6533 41.5904 11.02C41.5904 11.3933 41.4871 11.74 41.2804 12.06C41.0804 12.3733 40.7704 12.6267 40.3504 12.82C39.9304 13.0067 39.4004 13.1 38.7604 13.1ZM46.1195 13.1C45.5861 13.1 45.0895 13.0133 44.6295 12.84C44.1761 12.66 43.7795 12.41 43.4395 12.09C43.1061 11.7633 42.8461 11.38 42.6595 10.94C42.4728 10.5 42.3795 10.02 42.3795 9.5C42.3795 8.98 42.4728 8.5 42.6595 8.06C42.8461 7.62 43.1095 7.24 43.4495 6.92C43.7895 6.59333 44.1861 6.34333 44.6395 6.17C45.0928 5.99 45.5895 5.9 46.1295 5.9C46.7028 5.9 47.2261 6 47.6995 6.2C48.1728 6.39333 48.5728 6.68333 48.8995 7.07L48.0595 7.86C47.8061 7.58667 47.5228 7.38333 47.2095 7.25C46.8961 7.11 46.5561 7.04 46.1895 7.04C45.8228 7.04 45.4861 7.1 45.1795 7.22C44.8795 7.34 44.6161 7.51 44.3895 7.73C44.1695 7.95 43.9961 8.21 43.8695 8.51C43.7495 8.81 43.6895 9.14 43.6895 9.5C43.6895 9.86 43.7495 10.19 43.8695 10.49C43.9961 10.79 44.1695 11.05 44.3895 11.27C44.6161 11.49 44.8795 11.66 45.1795 11.78C45.4861 11.9 45.8228 11.96 46.1895 11.96C46.5561 11.96 46.8961 11.8933 47.2095 11.76C47.5228 11.62 47.8061 11.41 48.0595 11.13L48.8995 11.93C48.5728 12.31 48.1728 12.6 47.6995 12.8C47.2261 13 46.6995 13.1 46.1195 13.1ZM50.1451 13V6H53.0251C53.6451 6 54.1751 6.1 54.6151 6.3C55.0617 6.5 55.4051 6.78667 55.6451 7.16C55.8851 7.53333 56.0051 7.97667 56.0051 8.49C56.0051 9.00333 55.8851 9.44667 55.6451 9.82C55.4051 10.1867 55.0617 10.47 54.6151 10.67C54.1751 10.8633 53.6451 10.96 53.0251 10.96H50.8651L51.4451 10.37V13H50.1451ZM54.7251 13L52.9551 10.46H54.3451L56.1251 13H54.7251ZM51.4451 10.51L50.8651 9.89H52.9651C53.5384 9.89 53.9684 9.76667 54.2551 9.52C54.5484 9.27333 54.6951 8.93 54.6951 8.49C54.6951 8.04333 54.5484 7.7 54.2551 7.46C53.9684 7.22 53.5384 7.1 52.9651 7.1H50.8651L51.4451 6.46V10.51ZM57.4595 13V6H58.7595V13H57.4595ZM60.6529 13V6H63.5329C64.1529 6 64.6829 6.1 65.1229 6.3C65.5696 6.5 65.9129 6.78667 66.1529 7.16C66.3929 7.53333 66.5129 7.97667 66.5129 8.49C66.5129 9.00333 66.3929 9.44667 66.1529 9.82C65.9129 10.1933 65.5696 10.48 65.1229 10.68C64.6829 10.88 64.1529 10.98 63.5329 10.98H61.3729L61.9529 10.37V13H60.6529ZM61.9529 10.51L61.3729 9.88H63.4729C64.0462 9.88 64.4762 9.76 64.7629 9.52C65.0562 9.27333 65.2029 8.93 65.2029 8.49C65.2029 8.04333 65.0562 7.7 64.7629 7.46C64.4762 7.22 64.0462 7.1 63.4729 7.1H61.3729L61.9529 6.46V10.51ZM69.026 13V7.1H66.706V6H72.646V7.1H70.326V13H69.026Z" fill="#E6E6E6"/>
<rect x="0.875" y="0.875" width="80.25" height="17.25" rx="4.125" stroke="#4B86BC" stroke-width="1.75"/>
</svg>
