<svg width="82" height="19" viewBox="0 0 82 19" fill="none" xmlns="http://www.w3.org/2000/svg">
<path d="M17.44 13V6H20.32C20.94 6 21.47 6.1 21.91 6.3C22.3567 6.5 22.7 6.78667 22.94 7.16C23.18 7.53333 23.3 7.97667 23.3 8.49C23.3 9.00333 23.18 9.44667 22.94 9.82C22.7 10.1867 22.3567 10.47 21.91 10.67C21.47 10.8633 20.94 10.96 20.32 10.96H18.16L18.74 10.37V13H17.44ZM22.02 13L20.25 10.46H21.64L23.42 13H22.02ZM18.74 10.51L18.16 9.89H20.26C20.8333 9.89 21.2633 9.76667 21.55 9.52C21.8433 9.27333 21.99 8.93 21.99 8.49C21.99 8.04333 21.8433 7.7 21.55 7.46C21.2633 7.22 20.8333 7.1 20.26 7.1H18.16L18.74 6.46V10.51ZM25.9545 8.91H29.4345V9.98H25.9545V8.91ZM26.0545 11.91H30.0045V13H24.7545V6H29.8645V7.09H26.0545V11.91ZM30.4637 13L33.6137 6H34.8937L38.0537 13H36.6937L33.9837 6.69H34.5037L31.8037 13H30.4637ZM31.9137 11.38L32.2637 10.36H36.0437L36.3937 11.38H31.9137ZM42.0863 13.1C41.5529 13.1 41.0563 13.0133 40.5963 12.84C40.1429 12.66 39.7463 12.41 39.4063 12.09C39.0729 11.7633 38.8129 11.38 38.6263 10.94C38.4396 10.5 38.3463 10.02 38.3463 9.5C38.3463 8.98 38.4396 8.5 38.6263 8.06C38.8129 7.62 39.0763 7.24 39.4163 6.92C39.7563 6.59333 40.1529 6.34333 40.6063 6.17C41.0596 5.99 41.5563 5.9 42.0963 5.9C42.6696 5.9 43.1929 6 43.6663 6.2C44.1396 6.39333 44.5396 6.68333 44.8663 7.07L44.0263 7.86C43.7729 7.58667 43.4896 7.38333 43.1763 7.25C42.8629 7.11 42.5229 7.04 42.1563 7.04C41.7896 7.04 41.4529 7.1 41.1463 7.22C40.8463 7.34 40.5829 7.51 40.3563 7.73C40.1363 7.95 39.9629 8.21 39.8363 8.51C39.7163 8.81 39.6563 9.14 39.6563 9.5C39.6563 9.86 39.7163 10.19 39.8363 10.49C39.9629 10.79 40.1363 11.05 40.3563 11.27C40.5829 11.49 40.8463 11.66 41.1463 11.78C41.4529 11.9 41.7896 11.96 42.1563 11.96C42.5229 11.96 42.8629 11.8933 43.1763 11.76C43.4896 11.62 43.7729 11.41 44.0263 11.13L44.8663 11.93C44.5396 12.31 44.1396 12.6 43.6663 12.8C43.1929 13 42.6663 13.1 42.0863 13.1ZM47.4538 13V7.1H45.1338V6H51.0738V7.1H48.7538V13H47.4538ZM52.0071 13.07C51.7804 13.07 51.5871 12.9933 51.4271 12.84C51.2671 12.68 51.1871 12.48 51.1871 12.24C51.1871 11.9867 51.2671 11.7867 51.4271 11.64C51.5871 11.4867 51.7804 11.41 52.0071 11.41C52.2338 11.41 52.4271 11.4867 52.5871 11.64C52.7471 11.7867 52.8271 11.9867 52.8271 12.24C52.8271 12.48 52.7471 12.68 52.5871 12.84C52.4271 12.9933 52.2338 13.07 52.0071 13.07ZM55.8054 13.1C55.3587 13.1 54.9454 13.0133 54.5654 12.84C54.1921 12.6667 53.8854 12.4167 53.6454 12.09L54.3854 11.2C54.5787 11.4667 54.7887 11.6667 55.0154 11.8C55.2487 11.9333 55.5021 12 55.7754 12C56.5021 12 56.8654 11.57 56.8654 10.71V7.09H54.3754V6H58.1654V10.64C58.1654 11.4667 57.9621 12.0833 57.5554 12.49C57.1554 12.8967 56.5721 13.1 55.8054 13.1ZM62.1588 13.1C61.6122 13.1 61.0888 13.0233 60.5888 12.87C60.0888 12.71 59.6922 12.5067 59.3988 12.26L59.8488 11.25C60.1288 11.47 60.4755 11.6533 60.8888 11.8C61.3022 11.9467 61.7255 12.02 62.1588 12.02C62.5255 12.02 62.8222 11.98 63.0488 11.9C63.2755 11.82 63.4422 11.7133 63.5488 11.58C63.6555 11.44 63.7088 11.2833 63.7088 11.11C63.7088 10.8967 63.6322 10.7267 63.4788 10.6C63.3255 10.4667 63.1255 10.3633 62.8788 10.29C62.6388 10.21 62.3688 10.1367 62.0688 10.07C61.7755 10.0033 61.4788 9.92667 61.1788 9.84C60.8855 9.74667 60.6155 9.63 60.3688 9.49C60.1288 9.34333 59.9322 9.15 59.7788 8.91C59.6255 8.67 59.5488 8.36333 59.5488 7.99C59.5488 7.61 59.6488 7.26333 59.8488 6.95C60.0555 6.63 60.3655 6.37667 60.7788 6.19C61.1988 5.99667 61.7288 5.9 62.3688 5.9C62.7888 5.9 63.2055 5.95333 63.6188 6.06C64.0322 6.16667 64.3922 6.32 64.6988 6.52L64.2888 7.53C63.9755 7.34333 63.6522 7.20667 63.3188 7.12C62.9855 7.02667 62.6655 6.98 62.3588 6.98C61.9988 6.98 61.7055 7.02333 61.4788 7.11C61.2588 7.19667 61.0955 7.31 60.9888 7.45C60.8888 7.59 60.8388 7.75 60.8388 7.93C60.8388 8.14333 60.9122 8.31667 61.0588 8.45C61.2122 8.57667 61.4088 8.67667 61.6488 8.75C61.8955 8.82333 62.1688 8.89667 62.4688 8.97C62.7688 9.03667 63.0655 9.11333 63.3588 9.2C63.6588 9.28667 63.9288 9.4 64.1688 9.54C64.4155 9.68 64.6122 9.87 64.7588 10.11C64.9122 10.35 64.9888 10.6533 64.9888 11.02C64.9888 11.3933 64.8855 11.74 64.6788 12.06C64.4788 12.3733 64.1688 12.6267 63.7488 12.82C63.3288 13.0067 62.7988 13.1 62.1588 13.1Z" fill="#E6E6E6"/>
<rect x="0.875" y="0.875" width="80.25" height="17.25" rx="4.125" stroke="#4B86BC" stroke-width="1.75"/>
</svg>
