<svg width="82" height="19" viewBox="0 0 82 19" fill="none" xmlns="http://www.w3.org/2000/svg">
<path d="M6.86 13V7.1H4.54V6H10.48V7.1H8.16V13H6.86ZM10.1141 13L13.2641 6H14.5441L17.7041 13H16.3441L13.6341 6.69H14.1541L11.4541 13H10.1141ZM11.5641 11.38L11.9141 10.36H15.6941L16.0441 11.38H11.5641ZM18.5943 13V6H19.8943V13H18.5943ZM21.7877 13V6H23.0877V11.9H26.7477V13H21.7877ZM28.9259 13L26.6059 6H27.9559L30.0259 12.33H29.3559L31.5059 6H32.7059L34.7959 12.33H34.1459L36.2659 6H37.5059L35.1859 13H33.8059L31.8959 7.29H32.2559L30.3159 13H28.9259ZM38.565 13V6H39.865V13H38.565ZM41.7584 13V6H42.8284L47.2184 11.39H46.6884V6H47.9784V13H46.9084L42.5184 7.61H43.0484V13H41.7584ZM49.8541 13V6H52.9141C53.6741 6 54.3407 6.14667 54.9141 6.44C55.4874 6.73333 55.9341 7.14 56.2541 7.66C56.5741 8.18 56.7341 8.79333 56.7341 9.5C56.7341 10.2 56.5741 10.8133 56.2541 11.34C55.9341 11.86 55.4874 12.2667 54.9141 12.56C54.3407 12.8533 53.6741 13 52.9141 13H49.8541ZM51.1541 11.9H52.8541C53.3807 11.9 53.8341 11.8 54.2141 11.6C54.6007 11.4 54.8974 11.12 55.1041 10.76C55.3174 10.4 55.4241 9.98 55.4241 9.5C55.4241 9.01333 55.3174 8.59333 55.1041 8.24C54.8974 7.88 54.6007 7.6 54.2141 7.4C53.8341 7.2 53.3807 7.1 52.8541 7.1H51.1541V11.9ZM61.3558 13.1C60.8224 13.1 60.3258 13.0133 59.8658 12.84C59.4124 12.66 59.0158 12.41 58.6758 12.09C58.3424 11.7633 58.0824 11.38 57.8958 10.94C57.7091 10.5 57.6158 10.02 57.6158 9.5C57.6158 8.98 57.7091 8.5 57.8958 8.06C58.0824 7.62 58.3458 7.24 58.6858 6.92C59.0258 6.59333 59.4224 6.34333 59.8758 6.17C60.3291 5.99 60.8258 5.9 61.3658 5.9C61.9391 5.9 62.4624 6 62.9358 6.2C63.4091 6.39333 63.8091 6.68333 64.1358 7.07L63.2958 7.86C63.0424 7.58667 62.7591 7.38333 62.4458 7.25C62.1324 7.11 61.7924 7.04 61.4258 7.04C61.0591 7.04 60.7224 7.1 60.4158 7.22C60.1158 7.34 59.8524 7.51 59.6258 7.73C59.4058 7.95 59.2324 8.21 59.1058 8.51C58.9858 8.81 58.9258 9.14 58.9258 9.5C58.9258 9.86 58.9858 10.19 59.1058 10.49C59.2324 10.79 59.4058 11.05 59.6258 11.27C59.8524 11.49 60.1158 11.66 60.4158 11.78C60.7224 11.9 61.0591 11.96 61.4258 11.96C61.7924 11.96 62.1324 11.8933 62.4458 11.76C62.7591 11.62 63.0424 11.41 63.2958 11.13L64.1358 11.93C63.8091 12.31 63.4091 12.6 62.9358 12.8C62.4624 13 61.9358 13.1 61.3558 13.1ZM67.5416 13.1C66.995 13.1 66.4716 13.0233 65.9716 12.87C65.4716 12.71 65.075 12.5067 64.7816 12.26L65.2316 11.25C65.5116 11.47 65.8583 11.6533 66.2716 11.8C66.685 11.9467 67.1083 12.02 67.5416 12.02C67.9083 12.02 68.205 11.98 68.4316 11.9C68.6583 11.82 68.825 11.7133 68.9316 11.58C69.0383 11.44 69.0916 11.2833 69.0916 11.11C69.0916 10.8967 69.015 10.7267 68.8616 10.6C68.7083 10.4667 68.5083 10.3633 68.2616 10.29C68.0216 10.21 67.7516 10.1367 67.4516 10.07C67.1583 10.0033 66.8616 9.92667 66.5616 9.84C66.2683 9.74667 65.9983 9.63 65.7516 9.49C65.5116 9.34333 65.315 9.15 65.1616 8.91C65.0083 8.67 64.9316 8.36333 64.9316 7.99C64.9316 7.61 65.0316 7.26333 65.2316 6.95C65.4383 6.63 65.7483 6.37667 66.1616 6.19C66.5816 5.99667 67.1116 5.9 67.7516 5.9C68.1716 5.9 68.5883 5.95333 69.0016 6.06C69.415 6.16667 69.775 6.32 70.0816 6.52L69.6716 7.53C69.3583 7.34333 69.035 7.20667 68.7016 7.12C68.3683 7.02667 68.0483 6.98 67.7416 6.98C67.3816 6.98 67.0883 7.02333 66.8616 7.11C66.6416 7.19667 66.4783 7.31 66.3716 7.45C66.2716 7.59 66.2216 7.75 66.2216 7.93C66.2216 8.14333 66.295 8.31667 66.4416 8.45C66.595 8.57667 66.7916 8.67667 67.0316 8.75C67.2783 8.82333 67.5516 8.89667 67.8516 8.97C68.1516 9.03667 68.4483 9.11333 68.7416 9.2C69.0416 9.28667 69.3116 9.4 69.5516 9.54C69.7983 9.68 69.995 9.87 70.1416 10.11C70.295 10.35 70.3716 10.6533 70.3716 11.02C70.3716 11.3933 70.2683 11.74 70.0616 12.06C69.8616 12.3733 69.5516 12.6267 69.1316 12.82C68.7116 13.0067 68.1816 13.1 67.5416 13.1ZM73.8307 13.1C73.284 13.1 72.7607 13.0233 72.2607 12.87C71.7607 12.71 71.364 12.5067 71.0707 12.26L71.5207 11.25C71.8007 11.47 72.1474 11.6533 72.5607 11.8C72.974 11.9467 73.3974 12.02 73.8307 12.02C74.1974 12.02 74.494 11.98 74.7207 11.9C74.9474 11.82 75.114 11.7133 75.2207 11.58C75.3274 11.44 75.3807 11.2833 75.3807 11.11C75.3807 10.8967 75.304 10.7267 75.1507 10.6C74.9974 10.4667 74.7974 10.3633 74.5507 10.29C74.3107 10.21 74.0407 10.1367 73.7407 10.07C73.4474 10.0033 73.1507 9.92667 72.8507 9.84C72.5574 9.74667 72.2874 9.63 72.0407 9.49C71.8007 9.34333 71.604 9.15 71.4507 8.91C71.2974 8.67 71.2207 8.36333 71.2207 7.99C71.2207 7.61 71.3207 7.26333 71.5207 6.95C71.7274 6.63 72.0374 6.37667 72.4507 6.19C72.8707 5.99667 73.4007 5.9 74.0407 5.9C74.4607 5.9 74.8774 5.95333 75.2907 6.06C75.704 6.16667 76.064 6.32 76.3707 6.52L75.9607 7.53C75.6474 7.34333 75.324 7.20667 74.9907 7.12C74.6574 7.02667 74.3374 6.98 74.0307 6.98C73.6707 6.98 73.3774 7.02333 73.1507 7.11C72.9307 7.19667 72.7674 7.31 72.6607 7.45C72.5607 7.59 72.5107 7.75 72.5107 7.93C72.5107 8.14333 72.584 8.31667 72.7307 8.45C72.884 8.57667 73.0807 8.67667 73.3207 8.75C73.5674 8.82333 73.8407 8.89667 74.1407 8.97C74.4407 9.03667 74.7374 9.11333 75.0307 9.2C75.3307 9.28667 75.6007 9.4 75.8407 9.54C76.0874 9.68 76.284 9.87 76.4307 10.11C76.584 10.35 76.6607 10.6533 76.6607 11.02C76.6607 11.3933 76.5574 11.74 76.3507 12.06C76.1507 12.3733 75.8407 12.6267 75.4207 12.82C75.0007 13.0067 74.4707 13.1 73.8307 13.1Z" fill="#E6E6E6"/>
<rect x="0.875" y="0.875" width="80.25" height="17.25" rx="4.125" stroke="#4B86BC" stroke-width="1.75"/>
</svg>
