<svg width="82" height="19" viewBox="0 0 82 19" fill="none" xmlns="http://www.w3.org/2000/svg">
<path d="M18.36 13V7.1H16.04V6H21.98V7.1H19.66V13H18.36ZM27.8756 6H29.1756V13H27.8756V6ZM24.2556 13H22.9556V6H24.2556V13ZM27.9756 10H24.1456V8.89H27.9756V10ZM31.0513 13V6H33.9313C34.5513 6 35.0813 6.1 35.5213 6.3C35.968 6.5 36.3113 6.78667 36.5513 7.16C36.7913 7.53333 36.9113 7.97667 36.9113 8.49C36.9113 9.00333 36.7913 9.44667 36.5513 9.82C36.3113 10.1867 35.968 10.47 35.5213 10.67C35.0813 10.8633 34.5513 10.96 33.9313 10.96H31.7713L32.3513 10.37V13H31.0513ZM35.6313 13L33.8613 10.46H35.2513L37.0313 13H35.6313ZM32.3513 10.51L31.7713 9.89H33.8713C34.4447 9.89 34.8747 9.76667 35.1613 9.52C35.4547 9.27333 35.6013 8.93 35.6013 8.49C35.6013 8.04333 35.4547 7.7 35.1613 7.46C34.8747 7.22 34.4447 7.1 33.8713 7.1H31.7713L32.3513 6.46V10.51ZM39.5658 8.91H43.0458V9.98H39.5658V8.91ZM39.6658 11.91H43.6158V13H38.3658V6H43.4758V7.09H39.6658V11.91ZM46.265 8.91H49.745V9.98H46.265V8.91ZM46.365 11.91H50.315V13H45.065V6H50.175V7.09H46.365V11.91ZM52.1419 13.07C51.9152 13.07 51.7219 12.9933 51.5619 12.84C51.4019 12.68 51.3219 12.48 51.3219 12.24C51.3219 11.9867 51.4019 11.7867 51.5619 11.64C51.7219 11.4867 51.9152 11.41 52.1419 11.41C52.3685 11.41 52.5619 11.4867 52.7219 11.64C52.8819 11.7867 52.9619 11.9867 52.9619 12.24C52.9619 12.48 52.8819 12.68 52.7219 12.84C52.5619 12.9933 52.3685 13.07 52.1419 13.07ZM55.9402 13.1C55.4935 13.1 55.0802 13.0133 54.7002 12.84C54.3268 12.6667 54.0202 12.4167 53.7802 12.09L54.5202 11.2C54.7135 11.4667 54.9235 11.6667 55.1502 11.8C55.3835 11.9333 55.6368 12 55.9102 12C56.6368 12 57.0002 11.57 57.0002 10.71V7.09H54.5102V6H58.3002V10.64C58.3002 11.4667 58.0968 12.0833 57.6902 12.49C57.2902 12.8967 56.7068 13.1 55.9402 13.1ZM62.2936 13.1C61.7469 13.1 61.2236 13.0233 60.7236 12.87C60.2236 12.71 59.8269 12.5067 59.5336 12.26L59.9836 11.25C60.2636 11.47 60.6103 11.6533 61.0236 11.8C61.4369 11.9467 61.8603 12.02 62.2936 12.02C62.6603 12.02 62.9569 11.98 63.1836 11.9C63.4103 11.82 63.5769 11.7133 63.6836 11.58C63.7903 11.44 63.8436 11.2833 63.8436 11.11C63.8436 10.8967 63.7669 10.7267 63.6136 10.6C63.4603 10.4667 63.2603 10.3633 63.0136 10.29C62.7736 10.21 62.5036 10.1367 62.2036 10.07C61.9103 10.0033 61.6136 9.92667 61.3136 9.84C61.0203 9.74667 60.7503 9.63 60.5036 9.49C60.2636 9.34333 60.0669 9.15 59.9136 8.91C59.7603 8.67 59.6836 8.36333 59.6836 7.99C59.6836 7.61 59.7836 7.26333 59.9836 6.95C60.1903 6.63 60.5003 6.37667 60.9136 6.19C61.3336 5.99667 61.8636 5.9 62.5036 5.9C62.9236 5.9 63.3403 5.95333 63.7536 6.06C64.1669 6.16667 64.5269 6.32 64.8336 6.52L64.4236 7.53C64.1103 7.34333 63.7869 7.20667 63.4536 7.12C63.1203 7.02667 62.8003 6.98 62.4936 6.98C62.1336 6.98 61.8403 7.02333 61.6136 7.11C61.3936 7.19667 61.2303 7.31 61.1236 7.45C61.0236 7.59 60.9736 7.75 60.9736 7.93C60.9736 8.14333 61.0469 8.31667 61.1936 8.45C61.3469 8.57667 61.5436 8.67667 61.7836 8.75C62.0303 8.82333 62.3036 8.89667 62.6036 8.97C62.9036 9.03667 63.2003 9.11333 63.4936 9.2C63.7936 9.28667 64.0636 9.4 64.3036 9.54C64.5503 9.68 64.7469 9.87 64.8936 10.11C65.0469 10.35 65.1236 10.6533 65.1236 11.02C65.1236 11.3933 65.0203 11.74 64.8136 12.06C64.6136 12.3733 64.3036 12.6267 63.8836 12.82C63.4636 13.0067 62.9336 13.1 62.2936 13.1Z" fill="#E6E6E6"/>
<rect x="0.875" y="0.875" width="80.25" height="17.25" rx="4.125" stroke="#4B86BC" stroke-width="1.75"/>
</svg>
