{
  "accessors": [
    {
      "bufferView": 2,
      "componentType": 5126,
      "count": 52102,
      "max": [
        19.883981704711914,
        19.883981704711914,
        19.883981704711914
      ],
      "min": [
        -19.883981704711914,
        -19.883981704711914,
        -19.883981704711914
      ],
      "type": "VEC3"
    },
    {
      "bufferView": 2,
      "byteOffset": 625224,
      "componentType": 5126,
      "count": 52102,
      "max": [
        0.999933123588562,
        0.999933123588562,
        0.999933123588562
      ],
      "min": [
        -0.999933123588562,
        -0.999933123588562,
        -0.999933123588562
      ],
      "type": "VEC3"
    },
    {
      "bufferView": 1,
      "componentType": 5126,
      "count": 52102,
      "max": [
        0.4736684560775757,
        0.4453831613063812
      ],
      "min": [
        -0.41390201449394226,
        -0.4453831911087036
      ],
      "type": "VEC2"
    },
    {
      "bufferView": 0,
      "componentType": 5125,
      "count": 293760,
      "type": "SCALAR"
    }
  ],
  "asset": {
    "extras": {
      "author": "Emilio.Gallo (https://sketchfab.com/Emilio.Gallo)",
      "license": "CC-BY-4.0 (http://creativecommons.org/licenses/by/4.0/)",
      "source": "https://sketchfab.com/3d-models/symmetrical-abstract-ball-cff031e8f9aa40499c8804cc29c2c8ac",
      "title": "Symmetrical Abstract Ball"
    },
    "generator": "Sketchfab-12.64.0",
    "version": "2.0"
  },
  "bufferViews": [
    {
      "buffer": 0,
      "byteLength": 1175040,
      "name": "floatBufferViews",
      "target": 34963
    },
    {
      "buffer": 0,
      "byteLength": 416816,
      "byteOffset": 1175040,
      "byteStride": 8,
      "name": "floatBufferViews",
      "target": 34962
    },
    {
      "buffer": 0,
      "byteLength": 1250448,
      "byteOffset": 1591856,
      "byteStride": 12,
      "name": "floatBufferViews",
      "target": 34962
    }
  ],
  "buffers": [
    {
      "byteLength": 2842304,
      "uri": "scene.bin"
    }
  ],
  "materials": [
    {
      "doubleSided": true,
      "name": "Silver",
      "pbrMetallicRoughness": {
        "roughnessFactor": 0.33555107649465854
      }
    }
  ],
  "meshes": [
    {
      "name": "Hedra01_Silver_0",
      "primitives": [
        {
          "attributes": {
            "NORMAL": 1,
            "POSITION": 0,
            "TEXCOORD_0": 2
          },
          "indices": 3,
          "material": 0,
          "mode": 4
        }
      ]
    }
  ],
  "nodes": [
    {
      "children": [
        1
      ],
      "matrix": [
        1.0,
        0.0,
        0.0,
        0.0,
        0.0,
        2.220446049250313e-16,
        -1.0,
        0.0,
        0.0,
        1.0,
        2.220446049250313e-16,
        0.0,
        0.0,
        0.0,
        0.0,
        1.0
      ],
      "name": "Sketchfab_model"
    },
    {
      "children": [
        2
      ],
      "matrix": [
        1.0,
        0.0,
        0.0,
        0.0,
        0.0,
        0.0,
        1.0,
        0.0,
        0.0,
        -1.0,
        0.0,
        0.0,
        0.0,
        0.0,
        0.0,
        1.0
      ],
      "name": "8bf3e082aae04dc8924fb585be8e2a25.fbx"
    },
    {
      "children": [
        3
      ],
      "name": "RootNode"
    },
    {
      "children": [
        4
      ],
      "matrix": [
        1.0,
        0.0,
        0.0,
        0.0,
        0.0,
        2.220446049250313e-16,
        -1.0,
        0.0,
        0.0,
        1.0,
        2.220446049250313e-16,
        0.0,
        0.0,
        20.130800247192383,
        8.799452189123258e-07,
        1.0
      ],
      "name": "Hedra01"
    },
    {
      "mesh": 0,
      "name": "Hedra01_Silver_0"
    }
  ],
  "scene": 0,
  "scenes": [
    {
      "name": "Sketchfab_Scene",
      "nodes": [
        0
      ]
    }
  ]
}
